<?xml version="1.0" standalone="no"?>
<!DOCTYPE svg PUBLIC "-//W3C//DTD SVG 1.1//EN" "http://www.w3.org/Graphics/SVG/1.1/DTD/svg11.dtd" >
<svg>
<metadata>
Created by FontForge 20090622 at Sun May 19 10:54:33 2019
 By deploy user
Copyright &#194;&#169; 2012 Christian Schwartz for Commercial Type.
</metadata>
<defs>
<font id="GraphikLCG-Extralight" horiz-adv-x="600" >
  <font-face 
    font-family="Graphik LCG"
    font-weight="250"
    font-stretch="normal"
    units-per-em="1000"
    panose-1="2 11 3 3 3 2 2 6 2 3"
    ascent="818"
    descent="-182"
    x-height="523"
    cap-height="715"
    bbox="-220 -211 1055 1079"
    underline-thickness="50"
    underline-position="-50"
    unicode-range="U+000D-U+FB02"
  />
<missing-glyph horiz-adv-x="500" 
 />
    <glyph glyph-name="f_f" unicode="ff" horiz-adv-x="596" 
d="M107 494h-82v29h82v91q0 79 40 116.5t104 37.5q24 0 54 -8v-30q-24 8 -54 8q-49 0 -79 -29t-30 -93v-93h238v99q0 79 40 116.5t103 37.5q32 0 54 -8v-30q-27 9 -53 9q-110 0 -110 -122v-102h156v-29h-156v-494h-34v494h-238v-494h-35v494z" />
    <glyph glyph-name=".notdef" horiz-adv-x="500" 
 />
    <glyph glyph-name=".null" horiz-adv-x="0" 
 />
    <glyph glyph-name="nonmarkingreturn" horiz-adv-x="333" 
 />
    <glyph glyph-name="NULL" horiz-adv-x="0" 
 />
    <glyph glyph-name="NULL" horiz-adv-x="0" 
 />
    <glyph glyph-name="CR" unicode="&#xd;" horiz-adv-x="235" 
 />
    <glyph glyph-name="space" unicode=" " horiz-adv-x="235" 
 />
    <glyph glyph-name="exclam" unicode="!" horiz-adv-x="262" 
d="M131 -5q-12 0 -20.5 8.5t-8.5 20.5t8.5 20.5t20.5 8.5t20.5 -8.5t8.5 -20.5t-8.5 -20.5t-20.5 -8.5zM113 715h38l-5 -550h-28z" />
    <glyph glyph-name="quotedbl" unicode="&#x22;" horiz-adv-x="261" 
d="M57 715h37l-5 -186h-27zM167 715h38l-6 -186h-27z" />
    <glyph glyph-name="numbersign" unicode="#" horiz-adv-x="484" 
d="M292 303h-136l-29 -204h-30l30 204h-95v30h99l25 172h-96v30h101l26 180h30l-27 -180h136l26 180h30l-27 -180h97v-30h-101l-25 -172h98v-30h-103l-29 -204h-30zM161 333h135l25 172h-135z" />
    <glyph glyph-name="dollar" unicode="$" horiz-adv-x="593" 
d="M280 -6q-110 6 -169 60.5t-69 142.5h35q24 -164 203 -174v337q-112 19 -162 61t-50 119q0 80 58.5 129t153.5 53v91h31v-92q87 -5 139.5 -48.5t64.5 -119.5h-34q-25 131 -170 138v-304q122 -19 174 -61t52 -136q0 -83 -61.5 -139t-164.5 -58v-128h-31v129zM502 189
q0 78 -43 114.5t-148 52.5v-333q88 2 139.5 48.5t51.5 117.5zM102 542q0 -62 40 -97t138 -53v300q-83 -3 -130.5 -42t-47.5 -108z" />
    <glyph glyph-name="percent" unicode="%" horiz-adv-x="755" 
d="M196 435q51 0 85 34.5t34 93.5t-33.5 93.5t-85.5 34.5q-50 0 -84.5 -35.5t-34.5 -93.5t34.5 -92.5t84.5 -34.5zM196 407q-61 0 -106 43.5t-45 110.5q0 69 44.5 114t106.5 45q64 0 108 -44t44 -113q0 -70 -45 -113t-107 -43zM593 715h34l-467 -715h-34zM557 23q51 0 85 34
t34 94q0 59 -33.5 93.5t-85.5 34.5q-50 0 -84.5 -35.5t-34.5 -94.5q0 -58 34.5 -92t84.5 -34zM557 -6q-61 0 -106 43t-45 112q0 68 44.5 113t106.5 45q63 0 107.5 -44t44.5 -112q0 -70 -44.5 -113.5t-107.5 -43.5z" />
    <glyph glyph-name="ampersand" unicode="&#x26;" horiz-adv-x="649" 
d="M490 147l127 -147h-43l-103 119q-89 -126 -218 -126q-95 0 -150.5 53.5t-55.5 138.5q0 75 49 126t131 92q-41 48 -60 85.5t-19 80.5q0 65 44 107.5t109 42.5q64 0 103 -41t39 -101t-43.5 -103t-122.5 -79l193 -223l102 185h34zM254 23q117 0 196 120l-205 239
q-162 -79 -162 -195q0 -73 45 -118.5t126 -45.5zM182 568q0 -37 18.5 -71.5t59.5 -81.5q72 33 111 71.5t39 90.5q0 51 -29.5 82t-80.5 31t-84.5 -34t-33.5 -88z" />
    <glyph glyph-name="quotesingle" unicode="'" horiz-adv-x="151" 
d="M57 715h37l-5 -186h-27z" />
    <glyph glyph-name="parenleft" unicode="(" horiz-adv-x="285" 
d="M221 -148q-164 193 -164 460q0 265 164 461h35q-164 -202 -164 -461q0 -258 164 -460h-35z" />
    <glyph glyph-name="parenright" unicode=")" horiz-adv-x="285" 
d="M29 -147q164 202 164 460q0 259 -164 461h35q165 -198 165 -461q0 -266 -165 -460h-35z" />
    <glyph glyph-name="asterisk" unicode="*" horiz-adv-x="415" 
d="M91 451l96 121l-138 46l10 29l135 -52l-2 148h32l-2 -148l134 52l10 -29l-138 -46l95 -121l-26 -19l-90 123l-90 -123z" />
    <glyph glyph-name="plus" unicode="+" horiz-adv-x="505" 
d="M237 327h-200v30h200v215h31v-215h200v-30h-200v-214h-31v214z" />
    <glyph glyph-name="comma" unicode="," horiz-adv-x="195" 
d="M31 -101l65 160l35 -15l-75 -157z" />
    <glyph glyph-name="hyphen" unicode="-" horiz-adv-x="333" 
d="M63 295h207v-33h-207v33z" />
    <glyph glyph-name="period" unicode="." horiz-adv-x="195" 
d="M98 -5q-13 0 -21 8.5t-8 20.5t8 20.5t21 8.5q12 0 20 -8.5t8 -20.5t-8 -20.5t-20 -8.5z" />
    <glyph glyph-name="slash" unicode="/" horiz-adv-x="383" 
d="M308 776h34l-291 -924h-34z" />
    <glyph glyph-name="zero" unicode="0" horiz-adv-x="646" 
d="M324 24q114 0 172.5 76t58.5 224v73q0 137 -62 216t-172 79t-170 -77.5t-60 -220.5v-73q0 -146 61 -221.5t172 -75.5zM324 -7q-128 0 -198.5 85.5t-70.5 242.5v73q0 156 70 242t196 86q124 0 197 -87t73 -239v-73q0 -158 -69 -244t-198 -86z" />
    <glyph glyph-name="one" unicode="1" horiz-adv-x="348" 
d="M189 674l-165 -113v34l174 120h27v-715h-36v674z" />
    <glyph glyph-name="two" unicode="2" horiz-adv-x="527" 
d="M21 9l289 295q62 63 89.5 116.5t27.5 111.5q0 78 -45 119t-122 41q-76 0 -124 -44.5t-59 -132.5h-34q8 97 67.5 152t149.5 55t146.5 -50.5t56.5 -140.5q0 -64 -31.5 -122.5t-98.5 -125.5l-253 -252h397v-31h-456v9z" />
    <glyph glyph-name="three" unicode="3" horiz-adv-x="544" 
d="M268 -7q-104 0 -166.5 59t-66.5 144h33q6 -74 58 -123t142 -49q89 0 139 44.5t50 128.5q0 72 -44 117t-128 45h-50v31h47q76 0 113.5 41.5t37.5 103.5q0 68 -41.5 112t-115.5 44q-76 0 -124 -44.5t-57 -113.5h-32q6 82 65 135.5t148 53.5q88 0 140.5 -53t52.5 -133
q0 -58 -32.5 -101.5t-87.5 -57.5q66 -13 105.5 -60t39.5 -120q0 -95 -62 -149.5t-164 -54.5z" />
    <glyph glyph-name="four" unicode="4" horiz-adv-x="581" 
d="M405 167h-375v11l357 537h54v-517h99v-31h-99v-167h-36v167zM405 198v492l-325 -492h325z" />
    <glyph glyph-name="five" unicode="5" horiz-adv-x="545" 
d="M260 -7q-99 0 -158.5 54t-65.5 131h34q9 -66 57 -110t133 -44q93 0 145.5 55t52.5 151q0 89 -53 144.5t-132 55.5q-117 0 -183 -83h-14v368h382v-31h-351v-289q64 66 170 66q93 0 155.5 -63.5t62.5 -167.5q0 -109 -64.5 -173t-170.5 -64z" />
    <glyph glyph-name="six" unicode="6" horiz-adv-x="588" 
d="M304 -7q-123 0 -183.5 78.5t-60.5 207.5v73q0 190 70.5 280t192.5 90q79 0 131 -39t64 -117h-34q-22 125 -163 125q-225 0 -225 -331v-48q23 66 82.5 101.5t127.5 35.5q111 0 172.5 -63t61.5 -163q0 -102 -65.5 -166t-170.5 -64zM304 23q91 0 145.5 55t54.5 144
q0 91 -51.5 144t-149.5 53q-83 0 -142 -51t-59 -137q0 -87 51 -147.5t151 -60.5z" />
    <glyph glyph-name="seven" unicode="7" horiz-adv-x="491" 
d="M428 685h-402v30h448v-7l-285 -708h-38z" />
    <glyph glyph-name="eight" unicode="8" horiz-adv-x="568" 
d="M285 -7q-100 0 -168 54t-68 150q0 74 47.5 123.5t124.5 65.5q-62 15 -101.5 56t-39.5 104q0 79 60.5 127.5t144.5 48.5t143.5 -48.5t59.5 -125.5q0 -64 -37.5 -105.5t-98.5 -56.5q77 -16 122 -64t45 -123q0 -98 -66 -152t-168 -54zM285 24q90 0 144 45.5t54 130.5
q0 79 -56 124.5t-140 45.5q-85 0 -143.5 -46.5t-58.5 -125.5q0 -84 56.5 -129t143.5 -45zM288 400q72 0 118 38.5t46 109.5q0 63 -47.5 103.5t-119.5 40.5q-74 0 -121 -40.5t-47 -105.5q0 -69 51 -107.5t120 -38.5z" />
    <glyph glyph-name="nine" unicode="9" horiz-adv-x="586" 
d="M276 -7q-83 0 -140.5 42t-72.5 121h35q14 -64 60 -98t118 -34q52 0 90 14.5t67.5 48.5t44 95.5t14.5 151.5v63q-23 -63 -83 -97t-130 -34q-110 0 -170.5 62.5t-60.5 163.5q0 104 64.5 167t170.5 63q123 0 184 -77t61 -203v-105q0 -187 -64 -265.5t-188 -78.5zM282 295
q84 0 144.5 50t60.5 133q0 89 -52 151.5t-152 62.5q-90 0 -144.5 -55.5t-54.5 -143.5q0 -90 51 -144t147 -54z" />
    <glyph glyph-name="colon" unicode=":" horiz-adv-x="202" 
d="M101 -5q-12 0 -20.5 8.5t-8.5 20.5t8.5 20.5t20.5 8.5t20.5 -8.5t8.5 -20.5t-8.5 -20.5t-20.5 -8.5zM101 337q-12 0 -20.5 8.5t-8.5 20.5t8.5 20.5t20.5 8.5t20.5 -8.5t8.5 -20.5t-8.5 -20.5t-20.5 -8.5z" />
    <glyph glyph-name="semicolon" unicode=";" horiz-adv-x="202" 
d="M25 -101l65 160l35 -15l-75 -157zM103 337q-12 0 -20 8.5t-8 20.5t8 20.5t20 8.5q13 0 21 -8.5t8 -20.5t-8 -20.5t-21 -8.5z" />
    <glyph glyph-name="less" unicode="&#x3c;" horiz-adv-x="491" 
d="M49 317v10l384 207v-34l-332 -178l332 -178v-34z" />
    <glyph glyph-name="equal" unicode="=" horiz-adv-x="484" 
d="M40 254h404v-30h-404v30zM40 413h404v-30h-404v30z" />
    <glyph glyph-name="greater" unicode="&#x3e;" horiz-adv-x="491" 
d="M58 144l333 178l-333 178v34l384 -207v-10l-384 -207v34z" />
    <glyph glyph-name="question" unicode="?" horiz-adv-x="469" 
d="M193 227q0 37 14.5 69.5t31 51.5t53.5 56q36 36 49.5 50.5t28.5 45.5t15 65q0 58 -36.5 92.5t-108.5 34.5t-117.5 -43.5t-50.5 -118.5h-34q6 88 61.5 140t141.5 52q87 0 133 -43.5t46 -112.5q0 -21 -4.5 -40.5t-8.5 -31t-18.5 -30.5t-19 -24.5t-27 -28l-26.5 -26.5
q-34 -34 -49.5 -52.5t-28.5 -47t-13 -61.5v-59h-32v62zM209 -5q-12 0 -20.5 8.5t-8.5 20.5t8.5 20.5t20.5 8.5t20.5 -8.5t8.5 -20.5t-8.5 -20.5t-20.5 -8.5z" />
    <glyph glyph-name="at" unicode="@" horiz-adv-x="905" 
d="M461 -147q-97 0 -177 34t-131 91.5t-78.5 130.5t-27.5 154q0 119 59.5 217.5t156.5 153t208 54.5q176 0 283.5 -104t107.5 -262q0 -125 -50.5 -187.5t-118.5 -62.5q-52 0 -81 28.5t-31 81.5q-19 -45 -61 -81t-97 -36q-71 0 -114.5 47t-43.5 127q0 98 58 165t135 67
q53 0 90 -31t46 -78l11 100h34l-27 -233q-9 -60 11.5 -94.5t70.5 -34.5q60 0 97.5 56.5t37.5 164.5q0 150 -95.5 244t-262.5 94q-161 0 -276 -114t-115 -281q0 -76 24.5 -144t71 -121.5t120 -85t165.5 -31.5q196 0 294 118h34q-39 -62 -126 -104.5t-202 -42.5zM427 93
q65 0 111.5 59t46.5 140q0 70 -34 110t-92 40q-64 0 -111.5 -57.5t-47.5 -145.5q0 -68 34.5 -107t92.5 -39z" />
    <glyph glyph-name="A" unicode="A" horiz-adv-x="641" 
d="M296 715h48l266 -715h-36l-85 228h-339l-84 -228h-34zM161 258h317l-159 428z" />
    <glyph glyph-name="B" unicode="B" horiz-adv-x="592" 
d="M94 715h195q96 0 152 -44.5t56 -134.5v-4q0 -126 -131 -157q167 -26 167 -176v-4q0 -95 -56.5 -145t-157.5 -50h-225v715zM318 30q89 0 134.5 42t45.5 123v4q0 159 -203 159h-166v-328h189zM291 387q83 0 126.5 38t43.5 108v4q0 74 -45 111t-128 37h-159v-298h162z" />
    <glyph glyph-name="C" unicode="C" horiz-adv-x="723" 
d="M382 -7q-150 0 -240.5 100t-90.5 260v8q0 157 96 259t235 102q112 0 190.5 -56.5t96.5 -159.5h-36q-19 90 -83 138t-168 48q-127 0 -210.5 -92.5t-83.5 -237.5v-8q0 -150 80 -240t215 -90q103 0 172.5 53t89.5 148h33q-20 -109 -100.5 -170.5t-195.5 -61.5z" />
    <glyph glyph-name="D" unicode="D" horiz-adv-x="680" 
d="M273 31q156 0 237.5 89.5t81.5 235.5v8q0 144 -81 232.5t-239 88.5h-142v-654h143zM94 715h183q168 0 260 -98t92 -253v-8q0 -156 -90.5 -256t-263.5 -100h-181v715z" />
    <glyph glyph-name="E" unicode="E" horiz-adv-x="566" 
d="M94 715h406v-30h-370v-301h301v-31h-301v-322h388v-31h-424v715z" />
    <glyph glyph-name="F" unicode="F" horiz-adv-x="537" 
d="M94 715h399v-30h-363v-304h287v-30h-287v-351h-36v715z" />
    <glyph glyph-name="G" unicode="G" horiz-adv-x="750" 
d="M393 -7q-158 0 -250 99.5t-92 260.5v8q0 156 97 258.5t241 102.5q108 0 185 -51t99 -152h-36q-21 87 -86.5 130t-160.5 43q-132 0 -217 -92.5t-85 -237.5v-8q0 -151 80.5 -240.5t224.5 -89.5q131 0 200 73t70 206v7h-227v31h262v-33q0 -151 -82 -233t-223 -82z" />
    <glyph glyph-name="H" unicode="H" horiz-adv-x="709" 
d="M94 715h36v-339h449v339h36v-715h-36v345h-449v-345h-36v715z" />
    <glyph glyph-name="I" unicode="I" horiz-adv-x="234" 
d="M99 715h36v-715h-36v715z" />
    <glyph glyph-name="J" unicode="J" horiz-adv-x="389" 
d="M137 -5q-59 0 -101 20v32q48 -22 99 -22q137 0 137 148v542h36v-543q0 -90 -45.5 -133.5t-125.5 -43.5z" />
    <glyph glyph-name="K" unicode="K" horiz-adv-x="588" 
d="M135 364l365 351h42l-363 -348l381 -367h-45zM94 715h36v-715h-36v715z" />
    <glyph glyph-name="L" unicode="L" horiz-adv-x="528" 
d="M94 715h36v-684h360v-31h-396v715z" />
    <glyph glyph-name="M" unicode="M" horiz-adv-x="849" 
d="M94 715h53l272 -649l277 649h53v-715h-36v672l-288 -672h-14l-283 672v-672h-34v715z" />
    <glyph glyph-name="N" unicode="N" horiz-adv-x="707" 
d="M94 715h51l433 -667v667h35v-715h-44l-440 678v-678h-35v715z" />
    <glyph glyph-name="O" unicode="O" horiz-adv-x="795" 
d="M400 24q133 0 220 95t87 237v8q0 139 -87.5 233.5t-221.5 94.5q-135 0 -222.5 -94.5t-87.5 -236.5v-8q0 -141 89 -235t223 -94zM400 -7q-149 0 -249 104.5t-100 255.5v8q0 152 100 256.5t247 104.5t246.5 -103.5t99.5 -254.5v-8q0 -152 -99 -257.5t-245 -105.5z" />
    <glyph glyph-name="P" unicode="P" horiz-adv-x="559" 
d="M94 715h180q111 0 175 -47t64 -148v-4q0 -104 -63 -152.5t-174 -48.5h-147v-315h-35v715zM277 345q200 0 200 171v4q0 165 -202 165h-146v-340h148z" />
    <glyph glyph-name="Q" unicode="Q" horiz-adv-x="795" 
d="M591 52q-83 -59 -191 -59q-149 0 -249 104.5t-100 255.5v8q0 152 100 256.5t247 104.5t246.5 -103.5t99.5 -254.5v-8q0 -87 -33.5 -160.5t-94.5 -124.5l87 -91l-22 -22zM400 24q96 0 169 51l-113 120l23 22l116 -123q112 95 112 262v8q0 139 -87.5 233.5t-221.5 94.5
q-135 0 -222.5 -94.5t-87.5 -236.5v-8q0 -141 89 -235t223 -94z" />
    <glyph glyph-name="R" unicode="R" horiz-adv-x="593" 
d="M94 715h183q239 0 239 -187v-4q0 -86 -51 -131.5t-139 -54.5l232 -338h-41l-230 335h-158v-335h-35v715zM278 365q202 0 202 159v4q0 157 -202 157h-149v-320h149z" />
    <glyph glyph-name="S" unicode="S" horiz-adv-x="586" 
d="M299 -7q-119 0 -183 56t-77 148h35q11 -77 65 -125t160 -48q92 0 145.5 46.5t53.5 118.5q0 81 -44.5 116t-158.5 52q-120 17 -173.5 60.5t-53.5 122.5q0 83 61 132.5t161 49.5q95 0 151 -44t69 -125h-34q-27 139 -186 139q-88 0 -137.5 -39t-49.5 -111q0 -65 44 -101
t153 -51q127 -19 180.5 -61t53.5 -139q0 -84 -64 -140.5t-171 -56.5z" />
    <glyph glyph-name="T" unicode="T" horiz-adv-x="558" 
d="M261 685h-230v30h497v-30h-231v-685h-36v685z" />
    <glyph glyph-name="U" unicode="U" horiz-adv-x="674" 
d="M336 -5q-121 0 -188.5 66.5t-67.5 191.5v462h36v-459q0 -115 56.5 -172.5t163.5 -57.5q115 0 168 59t53 184v446h36v-451q0 -129 -64 -199t-193 -70z" />
    <glyph glyph-name="V" unicode="V" horiz-adv-x="626" 
d="M29 715h35l255 -678l244 678h34l-257 -715h-43z" />
    <glyph glyph-name="W" unicode="W" horiz-adv-x="915" 
d="M32 715h36l176 -663l202 663h25l191 -665l188 665h33l-203 -715h-38l-184 648l-198 -648h-37z" />
    <glyph glyph-name="X" unicode="X" horiz-adv-x="638" 
d="M300 372l-230 343h40l213 -317l212 317h38l-231 -344l250 -371h-40l-233 345l-235 -345h-37z" />
    <glyph glyph-name="Y" unicode="Y" horiz-adv-x="565" 
d="M272 322l-250 393h41l228 -362l215 362h37l-235 -393v-322h-36v322z" />
    <glyph glyph-name="Z" unicode="Z" horiz-adv-x="582" 
d="M27 9l466 676h-430v30h482v-8l-464 -676h458v-31h-512v9z" />
    <glyph glyph-name="bracketleft" unicode="[" horiz-adv-x="331" 
d="M96 776h194v-28h-159v-868h159v-28h-194v924z" />
    <glyph glyph-name="backslash" unicode="\" horiz-adv-x="383" 
d="M41 776h34l291 -924h-34z" />
    <glyph glyph-name="bracketright" unicode="]" horiz-adv-x="331" 
d="M40 -120h160v868h-160v28h194v-924h-194v28z" />
    <glyph glyph-name="asciicircum" unicode="^" horiz-adv-x="461" 
d="M214 715h33l167 -284h-36l-148 251l-147 -251h-36z" />
    <glyph glyph-name="underscore" unicode="_" horiz-adv-x="387" 
d="M-1 -117h389v-29h-389v29z" />
    <glyph glyph-name="grave" unicode="`" horiz-adv-x="400" 
d="M104 747h41l72 -147h-29z" />
    <glyph glyph-name="a" unicode="a" horiz-adv-x="521" 
d="M225 -8q-83 0 -131 38t-48 109q0 157 235 157h130v51q0 81 -35 117.5t-111 36.5q-141 0 -162 -121h-34q9 74 64.5 112.5t132.5 38.5q179 0 179 -184v-347h-34v89q-58 -97 -186 -97zM227 21q75 0 129.5 40.5t54.5 98.5v108h-130q-94 0 -147.5 -28t-53.5 -101
q0 -57 37.5 -87.5t109.5 -30.5z" />
    <glyph glyph-name="b" unicode="b" horiz-adv-x="602" 
d="M328 -8q-80 0 -135 43.5t-78 104.5v-140h-34v773h34v-394q23 63 81.5 107.5t131.5 44.5q98 0 165 -73t67 -192v-8q0 -122 -66 -194t-166 -72zM326 22q88 0 143.5 63t55.5 172v8q0 110 -57.5 173t-142.5 63q-84 0 -147 -64t-63 -172v-8q0 -107 61 -171t150 -64z" />
    <glyph glyph-name="c" unicode="c" horiz-adv-x="547" 
d="M288 -8q-104 0 -175 74t-71 191v8q0 118 71.5 192t175.5 74q82 0 143 -45.5t70 -123.5h-34q-9 66 -59 102.5t-120 36.5q-90 0 -151 -64.5t-61 -171.5v-8q0 -106 60.5 -170.5t150.5 -64.5q73 0 124.5 41t63.5 114h32q-12 -84 -72.5 -134.5t-147.5 -50.5z" />
    <glyph glyph-name="d" unicode="d" horiz-adv-x="602" 
d="M277 -8q-102 0 -168.5 71t-66.5 193v8q0 119 70 193t173 74q143 0 202 -144v386h34v-773h-34v140q-20 -59 -76.5 -103.5t-133.5 -44.5zM279 22q88 0 148.5 64t60.5 171v8q0 111 -56.5 173.5t-144.5 62.5q-90 0 -150 -63.5t-60 -172.5v-8q0 -110 56.5 -172.5t145.5 -62.5z
" />
    <glyph glyph-name="e" unicode="e" horiz-adv-x="545" 
d="M286 -8q-113 0 -178.5 73.5t-65.5 191.5v8q0 116 67 191t170 75q99 0 161.5 -66.5t62.5 -185.5v-15h-426q1 -116 54.5 -179t154.5 -63q148 0 179 122h34q-18 -72 -74.5 -112t-138.5 -40zM469 293q-3 102 -53.5 155t-136.5 53q-84 0 -139.5 -57t-61.5 -151h391z" />
    <glyph glyph-name="f" unicode="f" horiz-adv-x="324" 
d="M107 494h-82v29h82v99q0 79 40 116.5t104 37.5q32 0 54 -8v-30q-27 9 -54 9q-49 0 -79 -29t-30 -93v-102h156v-29h-156v-494h-35v494z" />
    <glyph glyph-name="g" unicode="g" horiz-adv-x="602" 
d="M286 -187q-105 0 -163.5 44.5t-69.5 112.5h35q10 -57 59.5 -92t137.5 -35q92 0 147 46.5t55 146.5v125q-20 -58 -76 -101t-134 -43q-101 0 -168 68t-67 183v8q0 112 70 183.5t173 71.5q145 0 202 -139v131h34v-489q0 -112 -63.5 -166.5t-171.5 -54.5zM279 46
q88 0 148.5 61t60.5 163v7q0 104 -56.5 164t-144.5 60q-90 0 -150 -60.5t-60 -163.5v-8q0 -103 56.5 -163t145.5 -60z" />
    <glyph glyph-name="h" unicode="h" horiz-adv-x="573" 
d="M81 773h34v-364q19 51 72 86.5t123 35.5q88 0 137.5 -51.5t49.5 -156.5v-323h-34v324q0 177 -158 177q-75 0 -132.5 -49.5t-57.5 -134.5v-317h-34v773z" />
    <glyph glyph-name="i" unicode="i" horiz-adv-x="200" 
d="M83 523h34v-523h-34v523zM100 637q-11 0 -19 8t-8 19t8 18.5t19 7.5t18.5 -7.5t7.5 -18.5t-7.5 -19t-18.5 -8z" />
    <glyph glyph-name="j" unicode="j" horiz-adv-x="200" 
d="M6 -156q44 4 60.5 25.5t16.5 70.5v583h34v-581q0 -65 -25 -95.5t-86 -32.5v30zM100 637q-11 0 -19 8t-8 19t8 18.5t19 7.5t18.5 -7.5t7.5 -18.5t-7.5 -19t-18.5 -8z" />
    <glyph glyph-name="k" unicode="k" horiz-adv-x="468" 
d="M118 277l275 246h42l-275 -245l291 -278h-44zM81 773h34v-773h-34v773z" />
    <glyph glyph-name="l" unicode="l" horiz-adv-x="201" 
d="M83 773h35v-773h-35v773z" />
    <glyph glyph-name="m" unicode="m" horiz-adv-x="900" 
d="M81 523h34v-111q19 49 67.5 84t113.5 35q137 0 164 -129q24 59 75 94t116 35q173 0 173 -202v-329h-34v330q0 90 -36.5 130.5t-107.5 40.5q-70 0 -123 -49t-53 -134v-318h-34v330q0 90 -36.5 130.5t-107.5 40.5t-124 -49t-53 -134v-318h-34v523z" />
    <glyph glyph-name="n" unicode="n" horiz-adv-x="573" 
d="M81 523h34v-114q19 51 72 86.5t123 35.5q88 0 137.5 -51.5t49.5 -156.5v-323h-34v324q0 177 -158 177q-75 0 -132.5 -49.5t-57.5 -134.5v-317h-34v523z" />
    <glyph glyph-name="o" unicode="o" horiz-adv-x="583" 
d="M292 22q91 0 152.5 64.5t61.5 171.5v8q0 107 -61.5 171t-151.5 64t-153 -65t-63 -171v-8q0 -105 62 -170t153 -65zM291 -8q-104 0 -176.5 75t-72.5 190v8q0 115 73.5 190t177.5 75t176 -73.5t72 -190.5v-8q0 -116 -73 -191t-177 -75z" />
    <glyph glyph-name="p" unicode="p" horiz-adv-x="602" 
d="M81 523h34v-144q23 63 81.5 107.5t131.5 44.5q98 0 165 -73t67 -192v-8q0 -122 -66 -194t-166 -72q-80 0 -135 43.5t-78 104.5v-322h-34v705zM326 22q88 0 143.5 63t55.5 172v8q0 110 -57.5 173t-142.5 63q-84 0 -147 -64t-63 -172v-8q0 -107 61 -171t150 -64z" />
    <glyph glyph-name="q" unicode="q" horiz-adv-x="602" 
d="M487 140q-20 -59 -76.5 -103.5t-133.5 -44.5q-102 0 -168.5 71t-66.5 193v8q0 119 70 193t173 74q143 0 202 -144v136h34v-705h-34v322zM279 22q88 0 148.5 64t60.5 171v8q0 111 -56.5 173.5t-144.5 62.5q-90 0 -150 -63.5t-60 -172.5v-8q0 -110 56.5 -172.5t145.5 -62.5
z" />
    <glyph glyph-name="r" unicode="r" horiz-adv-x="331" 
d="M81 523h34v-120q48 121 181 125v-31q-81 -4 -131 -53t-50 -152v-292h-34v523z" />
    <glyph glyph-name="s" unicode="s" horiz-adv-x="456" 
d="M235 -9q-89 0 -141 44.5t-58 118.5h33q9 -61 50 -97.5t116 -36.5q69 0 107 32t38 84q0 55 -31 78t-115 40q-97 17 -138.5 47t-41.5 95q0 60 49.5 97t121.5 37q156 0 177 -136h-33q-21 107 -145 107q-62 0 -100 -28.5t-38 -76.5q0 -49 34.5 -73t121.5 -39
q94 -18 133 -47.5t39 -98.5q0 -63 -48.5 -105t-130.5 -42z" />
    <glyph glyph-name="t" unicode="t" horiz-adv-x="328" 
d="M221 -7q-57 0 -88 33t-31 97v371h-79v29h79v119h34v-119h146v-29h-146v-369q0 -102 87 -102q36 0 66 11v-30q-27 -11 -68 -11z" />
    <glyph glyph-name="u" unicode="u" horiz-adv-x="569" 
d="M262 -8q-186 0 -186 201v330h34v-329q0 -171 157 -171q75 0 131 48t56 133v319h34v-523h-34v112q-19 -51 -70.5 -85.5t-121.5 -34.5z" />
    <glyph glyph-name="v" unicode="v" horiz-adv-x="508" 
d="M26 523h37l193 -490l191 490h35l-204 -523h-46z" />
    <glyph glyph-name="w" unicode="w" horiz-adv-x="765" 
d="M30 523h36l151 -482l153 482h29l149 -482l153 482h34l-166 -523h-41l-144 466l-149 -466h-41z" />
    <glyph glyph-name="x" unicode="x" horiz-adv-x="500" 
d="M228 271l-186 252h41l166 -227l163 227h39l-182 -250l201 -273h-41l-181 248l-180 -248h-38z" />
    <glyph glyph-name="y" unicode="y" horiz-adv-x="495" 
d="M234 40l-208 483h36l190 -444l181 444h36l-292 -705h-35z" />
    <glyph glyph-name="z" unicode="z" horiz-adv-x="468" 
d="M26 7l359 487h-329v29h383v-7l-357 -486h350v-30h-406v7z" />
    <glyph glyph-name="braceleft" unicode="{" horiz-adv-x="351" 
d="M311 -145q-103 0 -147 44.5t-23 148.5l24 120q13 61 -16.5 97.5t-105.5 36.5v28q76 1 105 36.5t17 97.5l-24 121q-21 103 23 147.5t147 44.5v-28q-86 0 -120.5 -35t-17.5 -128l24 -123q26 -119 -91 -147q116 -28 91 -147l-24 -123q-17 -93 17.5 -128t120.5 -35v-28z" />
    <glyph glyph-name="bar" unicode="|" horiz-adv-x="233" 
d="M101 776h31v-924h-31v924z" />
    <glyph glyph-name="braceright" unicode="}" horiz-adv-x="351" 
d="M40 -117q86 0 121 35.5t17 127.5l-24 123q-23 121 91 147q-114 27 -91 147l24 123q18 92 -17 127.5t-121 35.5v28q103 0 146.5 -44.5t24.5 -147.5l-25 -121q-13 -61 16.5 -97.5t105.5 -36.5v-28q-76 0 -105.5 -36.5t-16.5 -97.5l25 -120q19 -104 -24.5 -148.5
t-146.5 -44.5v28z" />
    <glyph glyph-name="asciitilde" unicode="~" horiz-adv-x="433" 
d="M48 237q5 45 29.5 72t60.5 27q34 0 83.5 -33t73.5 -33t40.5 19.5t19.5 48.5h30q-5 -45 -29 -72t-60 -27q-34 0 -84 33t-73 33q-25 0 -41 -19.5t-20 -48.5h-30z" />
    <glyph glyph-name="uni00A0" unicode="&#xa0;" horiz-adv-x="280" 
 />
    <glyph glyph-name="exclamdown" unicode="&#xa1;" horiz-adv-x="263" 
d="M116 434h28l5 -551h-38zM131 546q-12 0 -20 8.5t-8 19.5q0 12 8 20.5t20 8.5q13 0 21 -8.5t8 -20.5t-8 -20t-21 -8z" />
    <glyph glyph-name="cent" unicode="&#xa2;" horiz-adv-x="546" 
d="M271 -7q-100 6 -164.5 77t-64.5 187v8q0 115 65.5 187t163.5 78v99h31v-99q78 -4 134.5 -48.5t65.5 -119.5h-34q-9 62 -54.5 98t-111.5 40v-478q67 4 114.5 45t59.5 110h32q-12 -80 -68.5 -130t-137.5 -54v-128h-31v128zM77 257q0 -105 54.5 -167t139.5 -68v478
q-85 -6 -139.5 -68t-54.5 -167v-8z" />
    <glyph glyph-name="sterling" unicode="&#xa3;" horiz-adv-x="585" 
d="M50 363h74q-27 85 -27 157q0 91 60 146.5t154 55.5q93 0 146 -48t62 -131h-35q-23 148 -173 148q-79 0 -128 -47.5t-49 -123.5q0 -71 27 -157h239v-29h-230q21 -82 21 -139q0 -47 -22 -93q39 -2 119.5 -40t120.5 -38q51 0 79.5 30t31.5 86h33q-5 -68 -43 -107.5
t-98 -39.5q-50 0 -132 39.5t-117 39.5q-37 0 -58.5 -20t-27.5 -52h-33q6 36 28 63.5t61 35.5q25 45 25 96q0 58 -24 139h-84v29z" />
    <glyph glyph-name="yen" unicode="&#xa5;" horiz-adv-x="531" 
d="M65 347h182l-219 368h39l207 -349l193 349h36l-204 -368h178v-29h-186v-107h186v-29h-186v-182h-36v182h-190v29h190v107h-190v29z" />
    <glyph glyph-name="brokenbar" unicode="&#xa6;" horiz-adv-x="235" 
d="M101 297h31v-445h-31v445zM101 776h31v-409h-31v409z" />
    <glyph glyph-name="section" unicode="&#xa7;" horiz-adv-x="532" 
d="M266 -137q-77 0 -127 39t-56 108h36q5 -55 44 -86t103 -31q65 0 98.5 32t33.5 87q0 59 -34.5 86.5t-127.5 52.5q-94 24 -140.5 59t-46.5 102q0 53 39 89t99 49q-40 23 -58.5 51.5t-18.5 76.5q0 64 47.5 105t116.5 41q72 0 114 -36.5t47 -102.5h-35q-5 55 -34.5 82
t-90.5 27q-57 0 -94 -30.5t-37 -84.5q0 -55 33 -82.5t122 -54.5q93 -27 139 -62.5t46 -99.5q0 -105 -130 -137q78 -41 78 -131q0 -67 -45 -108t-121 -41zM325 160q124 24 124 118q0 51 -36 77.5t-121 53.5l-76 25q-59 -10 -95.5 -41t-36.5 -79q0 -53 37.5 -79.5t122.5 -51.5
z" />
    <glyph glyph-name="dieresis" unicode="&#xa8;" horiz-adv-x="400" 
d="M123 638q-11 0 -18.5 7.5t-7.5 18.5t7.5 18.5t18.5 7.5t18.5 -7.5t7.5 -18.5t-7.5 -18.5t-18.5 -7.5zM277 638q-11 0 -18.5 7.5t-7.5 18.5t7.5 18.5t18.5 7.5t18.5 -7.5t7.5 -18.5t-7.5 -18.5t-18.5 -7.5z" />
    <glyph glyph-name="copyright" unicode="&#xa9;" horiz-adv-x="844" 
d="M425 148q-89 0 -143 58t-54 152v7q0 91 57 150.5t139 59.5q68 0 114 -34t57 -96h-33q-23 102 -138 102q-70 0 -116 -50.5t-46 -131.5v-6q0 -85 44 -133.5t119 -48.5q57 0 94.5 28.5t48.5 82.5h32q-12 -66 -59 -103t-116 -37zM421 -9q-154 0 -260 105.5t-106 260.5
q0 153 107 260t261 107q155 0 260.5 -106t105.5 -259q0 -156 -106.5 -262t-261.5 -106zM421 17q142 0 240.5 98t98.5 244q0 144 -97 241.5t-240 97.5q-142 0 -240.5 -98.5t-98.5 -242.5q0 -145 98.5 -242.5t238.5 -97.5z" />
    <glyph glyph-name="ordfeminine" unicode="&#xaa;" horiz-adv-x="418" 
d="M179 310q-62 0 -99.5 29t-37.5 83q0 121 183 121h95v37q0 60 -25.5 87t-82.5 27q-103 0 -119 -88h-33q8 57 50.5 86.5t103.5 29.5q139 0 139 -142v-265h-33v67q-42 -72 -141 -72zM183 337q57 0 97 30t40 73v77h-95q-71 0 -110.5 -20.5t-39.5 -73.5q0 -86 108 -86z" />
    <glyph glyph-name="guillemotleft" unicode="&#xab;" horiz-adv-x="415" 
d="M52 261l137 178h36l-136 -178l136 -178h-36zM197 261l137 178h36l-136 -178l136 -178h-36z" />
    <glyph glyph-name="uni00AD" unicode="&#xad;" horiz-adv-x="333" 
d="M63 295h207v-33h-207v33z" />
    <glyph glyph-name="registered" unicode="&#xae;" horiz-adv-x="514" 
d="M184 626h73q39 0 61.5 -17t22.5 -49v-1q0 -54 -60 -63l73 -107h-31l-72 104h-40v-104h-27v237zM258 515q55 0 55 43v1q0 44 -55 44h-47v-88h47zM257 282q-93 0 -157.5 63.5t-64.5 156.5t64.5 157.5t157.5 64.5q94 0 158 -64t64 -157t-64.5 -157t-157.5 -64zM257 304
q84 0 140.5 56.5t56.5 142.5q0 85 -56 142t-141 57q-84 0 -140.5 -58t-56.5 -142q0 -85 57 -141.5t140 -56.5z" />
    <glyph glyph-name="macron" unicode="&#xaf;" horiz-adv-x="400" 
d="M85 675h230v-28h-230v28z" />
    <glyph glyph-name="degree" unicode="&#xb0;" horiz-adv-x="395" 
d="M198 467q48 0 80.5 33.5t32.5 80.5q0 49 -32.5 83t-80.5 34q-50 0 -82.5 -34t-32.5 -83q0 -47 33 -80.5t82 -33.5zM198 441q-61 0 -103.5 41t-42.5 99q0 60 42.5 101.5t103.5 41.5q60 0 102.5 -41.5t42.5 -101.5q0 -58 -42.5 -99t-102.5 -41z" />
    <glyph glyph-name="plusminus" unicode="&#xb1;" horiz-adv-x="505" 
d="M237 332h-200v30h200v210h31v-210h200v-30h-200v-209h-31v209zM37 30h431v-30h-431v30z" />
    <glyph glyph-name="twosuperior" unicode="&#xb2;" horiz-adv-x="288" 
d="M20 379l130 128q38 37 53.5 62t15.5 53q0 34 -21 53t-56 19q-74 0 -85 -85h-28q4 52 34 80.5t80 28.5q48 0 77 -26t29 -69q0 -35 -17.5 -63.5t-58.5 -66.5l-102 -97h181v-25h-232v8z" />
    <glyph glyph-name="threesuperior" unicode="&#xb3;" horiz-adv-x="307" 
d="M154 367q-56 0 -90.5 29t-37.5 73h29q4 -33 29.5 -55t68.5 -22q42 0 64.5 20t22.5 55q0 33 -21.5 52.5t-59.5 19.5h-27v24h25q35 0 54 18.5t19 46.5q0 30 -21 48.5t-56 18.5q-39 0 -60.5 -20.5t-25.5 -52.5h-28q3 41 33.5 68.5t80.5 27.5q48 0 77 -25t29 -64
q0 -59 -60 -77q31 -6 51.5 -28.5t20.5 -56.5q0 -47 -31.5 -73.5t-85.5 -26.5z" />
    <glyph glyph-name="acute" unicode="&#xb4;" horiz-adv-x="400" 
d="M255 747h41l-84 -147h-28z" />
    <glyph glyph-name="mu" unicode="&#xb5;" horiz-adv-x="574" 
d="M82 523h34v-338q0 -83 44.5 -122.5t120.5 -39.5q74 0 126.5 48t52.5 133v319h34v-523h-34v112q-19 -52 -67 -85.5t-116 -33.5q-124 0 -161 93v-268h-34v705z" />
    <glyph glyph-name="paragraph" unicode="&#xb6;" horiz-adv-x="542" 
d="M269 357h-14q-96 0 -153.5 45t-57.5 130q0 90 58.5 136.5t152.5 46.5h192v-815h-31v789h-117v-789h-30v457z" />
    <glyph glyph-name="periodcentered" unicode="&#xb7;" horiz-adv-x="195" 
d="M98 293q-13 0 -21 8.5t-8 20.5t8 20.5t21 8.5q12 0 20 -8.5t8 -20.5t-8 -20.5t-20 -8.5z" />
    <glyph glyph-name="cedilla" unicode="&#xb8;" horiz-adv-x="400" 
d="M211 -211q-39 0 -63.5 20t-28.5 55h32q7 -47 59 -47q26 0 41 13.5t15 35.5q0 45 -52 45q-16 0 -39 -10l-20 18l46 81h32l-38 -67q40 13 72 -5.5t32 -62.5q0 -36 -24.5 -56t-63.5 -20z" />
    <glyph glyph-name="onesuperior" unicode="&#xb9;" horiz-adv-x="208" 
d="M111 680l-91 -65v29l99 71h23v-344h-31v309z" />
    <glyph glyph-name="ordmasculine" unicode="&#xba;" horiz-adv-x="464" 
d="M232 338q68 0 113 47.5t45 127.5v6q0 80 -45 127t-112 47t-113 -48t-46 -127v-6q0 -78 45.5 -126t112.5 -48zM231 310q-81 0 -136 56.5t-55 145.5v6q0 91 56 147t137 56q82 0 136.5 -55t54.5 -147v-6q0 -92 -55.5 -147.5t-137.5 -55.5z" />
    <glyph glyph-name="guillemotright" unicode="&#xbb;" horiz-adv-x="415" 
d="M181 261l-136 178h36l138 -178l-138 -178h-36zM326 261l-136 178h36l138 -178l-138 -178h-36z" />
    <glyph glyph-name="onequarter" unicode="&#xbc;" horiz-adv-x="650" 
d="M114 680l-91 -65v29l99 71h23v-344h-31v309zM566 715h31l-522 -715h-31zM543 77h-182v11l171 256h41v-243h47v-24h-47v-77h-30v77zM543 101v221l-145 -221h145z" />
    <glyph glyph-name="onehalf" unicode="&#xbd;" horiz-adv-x="658" 
d="M116 680l-91 -65v29l99 71h23v-344h-31v309zM546 715h31l-522 -715h-31zM386 8l130 128q38 37 53.5 62t15.5 53q0 34 -21 53t-56 19q-74 0 -85 -85h-28q4 52 34 80.5t80 28.5q48 0 77 -26t29 -69q0 -35 -17.5 -63.5t-58.5 -66.5l-102 -97h181v-25h-232v8z" />
    <glyph glyph-name="threequarters" unicode="&#xbe;" horiz-adv-x="671" 
d="M157 367q-56 0 -90.5 29t-37.5 73h29q4 -33 29.5 -55t68.5 -22q42 0 64.5 20t22.5 55q0 33 -21.5 52.5t-59.5 19.5h-27v24h25q35 0 54 18.5t19 46.5q0 30 -21 48.5t-56 18.5q-39 0 -60.5 -20.5t-25.5 -52.5h-28q3 41 33.5 68.5t80.5 27.5q48 0 77 -25t29 -64
q0 -59 -60 -77q31 -6 51.5 -28.5t20.5 -56.5q0 -47 -31.5 -73.5t-85.5 -26.5zM609 715h31l-522 -715h-31zM558 77h-182v11l171 256h41v-243h47v-24h-47v-77h-30v77zM558 101v221l-145 -221h145z" />
    <glyph glyph-name="questiondown" unicode="&#xbf;" horiz-adv-x="469" 
d="M276 372q0 -37 -14.5 -70t-31 -52t-53.5 -56q-36 -36 -49.5 -50.5t-28.5 -45.5t-15 -65q0 -58 36.5 -92.5t108.5 -34.5t117.5 43.5t50.5 118.5h34q-6 -88 -61.5 -140t-141.5 -52q-87 0 -133 43.5t-46 113.5q0 21 4.5 40t8.5 30.5t18.5 30.5t19 24.5t27 27.5t26.5 27
q34 34 49.5 52.5t28.5 47t13 61.5v60h32v-62zM260 603q12 0 20.5 -8.5t8.5 -20.5q0 -11 -8.5 -19.5t-20.5 -8.5t-20.5 8.5t-8.5 19.5q0 12 8.5 20.5t20.5 8.5z" />
    <glyph glyph-name="Agrave" unicode="&#xc0;" horiz-adv-x="641" 
d="M296 715h48l266 -715h-36l-85 228h-339l-84 -228h-34zM161 258h317l-159 428zM224 891h42l68 -120h-29z" />
    <glyph glyph-name="Aacute" unicode="&#xc1;" horiz-adv-x="641" 
d="M296 715h48l266 -715h-36l-85 228h-339l-84 -228h-34zM161 258h317l-159 428zM362 891h41l-81 -120h-29z" />
    <glyph glyph-name="Acircumflex" unicode="&#xc2;" horiz-adv-x="641" 
d="M296 715h48l266 -715h-36l-85 228h-339l-84 -228h-34zM161 258h317l-159 428zM298 891h34l110 -120h-30l-97 90l-99 -90h-30z" />
    <glyph glyph-name="Atilde" unicode="&#xc3;" horiz-adv-x="641" 
d="M296 715h48l266 -715h-36l-85 228h-339l-84 -228h-34zM161 258h317l-159 428zM381 773q-27 0 -70.5 30t-61.5 30q-43 0 -51 -59h-27q5 44 26 66.5t52 22.5q26 0 70 -30t62 -30q42 0 50 59h27q-5 -44 -26 -66.5t-51 -22.5z" />
    <glyph glyph-name="Adieresis" unicode="&#xc4;" horiz-adv-x="641" 
d="M296 715h48l266 -715h-36l-85 228h-339l-84 -228h-34zM161 258h317l-159 428zM231 788q-11 0 -18.5 7.5t-7.5 18.5t7.5 18.5t18.5 7.5t18.5 -7.5t7.5 -18.5t-7.5 -18.5t-18.5 -7.5zM397 788q-11 0 -18.5 7.5t-7.5 18.5t7.5 18.5t18.5 7.5t18.5 -7.5t7.5 -18.5t-7.5 -18.5
t-18.5 -7.5z" />
    <glyph glyph-name="Aring" unicode="&#xc5;" horiz-adv-x="641" 
d="M296 715h48l266 -715h-36l-85 228h-339l-84 -228h-34zM161 258h317l-159 428zM314 774q29 0 48 19.5t19 47.5q0 29 -19 48.5t-48 19.5q-27 0 -46.5 -19.5t-19.5 -48.5q0 -28 19.5 -47.5t46.5 -19.5zM314 752q-37 0 -64.5 26.5t-27.5 62.5q0 38 27 64.5t65 26.5
q39 0 66 -26.5t27 -64.5q0 -36 -27 -62.5t-66 -26.5z" />
    <glyph glyph-name="AE" unicode="&#xc6;" horiz-adv-x="943" 
d="M387 715h491v-30h-371v-301h301v-31h-301v-322h389v-31h-425v228h-291l-114 -228h-38zM195 258h276v427h-63z" />
    <glyph glyph-name="Ccedilla" unicode="&#xc7;" horiz-adv-x="723" 
d="M366 -211q-39 0 -63.5 20t-28.5 55h32q7 -47 59 -47q26 0 41 13.5t15 35.5q0 45 -52 45q-16 0 -39 -10l-20 18l42 75q-137 10 -219 108.5t-82 250.5v8q0 157 96 259t235 102q112 0 190.5 -56.5t96.5 -159.5h-36q-19 90 -83 138t-168 48q-127 0 -210.5 -92.5t-83.5 -237.5
v-8q0 -150 80 -240t215 -90q103 0 172.5 53t89.5 148h33q-20 -108 -100 -170t-194 -62l-34 -60q40 13 72 -5.5t32 -62.5q0 -36 -24.5 -56t-63.5 -20z" />
    <glyph glyph-name="Egrave" unicode="&#xc8;" horiz-adv-x="566" 
d="M94 715h406v-30h-370v-301h301v-31h-301v-322h388v-31h-424v715zM205 891h42l68 -120h-29z" />
    <glyph glyph-name="Eacute" unicode="&#xc9;" horiz-adv-x="566" 
d="M94 715h406v-30h-370v-301h301v-31h-301v-322h388v-31h-424v715zM343 891h41l-81 -120h-29z" />
    <glyph glyph-name="Ecircumflex" unicode="&#xca;" horiz-adv-x="566" 
d="M94 715h406v-30h-370v-301h301v-31h-301v-322h388v-31h-424v715zM279 891h34l110 -120h-30l-97 90l-99 -90h-30z" />
    <glyph glyph-name="Edieresis" unicode="&#xcb;" horiz-adv-x="566" 
d="M94 715h406v-30h-370v-301h301v-31h-301v-322h388v-31h-424v715zM212 788q-11 0 -18.5 7.5t-7.5 18.5t7.5 18.5t18.5 7.5t18.5 -7.5t7.5 -18.5t-7.5 -18.5t-18.5 -7.5zM378 788q-11 0 -18.5 7.5t-7.5 18.5t7.5 18.5t18.5 7.5t18.5 -7.5t7.5 -18.5t-7.5 -18.5t-18.5 -7.5z
" />
    <glyph glyph-name="Igrave" unicode="&#xcc;" horiz-adv-x="234" 
d="M99 715h36v-715h-36v715zM27 891h42l68 -120h-29z" />
    <glyph glyph-name="Iacute" unicode="&#xcd;" horiz-adv-x="234" 
d="M99 715h36v-715h-36v715zM165 891h41l-81 -120h-29z" />
    <glyph glyph-name="Icircumflex" unicode="&#xce;" horiz-adv-x="234" 
d="M99 715h36v-715h-36v715zM101 891h34l110 -120h-30l-97 90l-99 -90h-30z" />
    <glyph glyph-name="Idieresis" unicode="&#xcf;" horiz-adv-x="234" 
d="M99 715h36v-715h-36v715zM34 788q-11 0 -18.5 7.5t-7.5 18.5t7.5 18.5t18.5 7.5t18.5 -7.5t7.5 -18.5t-7.5 -18.5t-18.5 -7.5zM200 788q-11 0 -18.5 7.5t-7.5 18.5t7.5 18.5t18.5 7.5t18.5 -7.5t7.5 -18.5t-7.5 -18.5t-18.5 -7.5z" />
    <glyph glyph-name="Eth" unicode="&#xd0;" horiz-adv-x="685" 
d="M24 375h75v340h183q168 0 260 -98t92 -253v-8q0 -156 -90.5 -256t-263.5 -100h-181v345h-75v30zM278 31q156 0 237.5 89.5t81.5 235.5v8q0 144 -81 232.5t-239 88.5h-142v-310h209v-30h-209v-314h143z" />
    <glyph glyph-name="Ntilde" unicode="&#xd1;" horiz-adv-x="707" 
d="M94 715h51l433 -667v667h35v-715h-44l-440 678v-678h-35v715zM431 773q-27 0 -70.5 30t-61.5 30q-43 0 -51 -59h-27q5 44 26 66.5t52 22.5q26 0 70 -30t62 -30q42 0 50 59h27q-5 -44 -26 -66.5t-51 -22.5z" />
    <glyph glyph-name="Ograve" unicode="&#xd2;" horiz-adv-x="795" 
d="M400 24q133 0 220 95t87 237v8q0 139 -87.5 233.5t-221.5 94.5q-135 0 -222.5 -94.5t-87.5 -236.5v-8q0 -141 89 -235t223 -94zM400 -7q-149 0 -249 104.5t-100 255.5v8q0 152 100 256.5t247 104.5t246.5 -103.5t99.5 -254.5v-8q0 -152 -99 -257.5t-245 -105.5zM307 891
h42l68 -120h-29z" />
    <glyph glyph-name="Oacute" unicode="&#xd3;" horiz-adv-x="795" 
d="M400 24q133 0 220 95t87 237v8q0 139 -87.5 233.5t-221.5 94.5q-135 0 -222.5 -94.5t-87.5 -236.5v-8q0 -141 89 -235t223 -94zM400 -7q-149 0 -249 104.5t-100 255.5v8q0 152 100 256.5t247 104.5t246.5 -103.5t99.5 -254.5v-8q0 -152 -99 -257.5t-245 -105.5zM445 891
h41l-81 -120h-29z" />
    <glyph glyph-name="Ocircumflex" unicode="&#xd4;" horiz-adv-x="795" 
d="M400 24q133 0 220 95t87 237v8q0 139 -87.5 233.5t-221.5 94.5q-135 0 -222.5 -94.5t-87.5 -236.5v-8q0 -141 89 -235t223 -94zM400 -7q-149 0 -249 104.5t-100 255.5v8q0 152 100 256.5t247 104.5t246.5 -103.5t99.5 -254.5v-8q0 -152 -99 -257.5t-245 -105.5zM381 891
h34l110 -120h-30l-97 90l-99 -90h-30z" />
    <glyph glyph-name="Otilde" unicode="&#xd5;" horiz-adv-x="795" 
d="M400 24q133 0 220 95t87 237v8q0 139 -87.5 233.5t-221.5 94.5q-135 0 -222.5 -94.5t-87.5 -236.5v-8q0 -141 89 -235t223 -94zM400 -7q-149 0 -249 104.5t-100 255.5v8q0 152 100 256.5t247 104.5t246.5 -103.5t99.5 -254.5v-8q0 -152 -99 -257.5t-245 -105.5zM464 773
q-27 0 -70.5 30t-61.5 30q-43 0 -51 -59h-27q5 44 26 66.5t52 22.5q26 0 70 -30t62 -30q42 0 50 59h27q-5 -44 -26 -66.5t-51 -22.5z" />
    <glyph glyph-name="Odieresis" unicode="&#xd6;" horiz-adv-x="795" 
d="M400 24q133 0 220 95t87 237v8q0 139 -87.5 233.5t-221.5 94.5q-135 0 -222.5 -94.5t-87.5 -236.5v-8q0 -141 89 -235t223 -94zM400 -7q-149 0 -249 104.5t-100 255.5v8q0 152 100 256.5t247 104.5t246.5 -103.5t99.5 -254.5v-8q0 -152 -99 -257.5t-245 -105.5zM314 788
q-11 0 -18.5 7.5t-7.5 18.5t7.5 18.5t18.5 7.5t18.5 -7.5t7.5 -18.5t-7.5 -18.5t-18.5 -7.5zM480 788q-11 0 -18.5 7.5t-7.5 18.5t7.5 18.5t18.5 7.5t18.5 -7.5t7.5 -18.5t-7.5 -18.5t-18.5 -7.5z" />
    <glyph glyph-name="multiply" unicode="&#xd7;" horiz-adv-x="492" 
d="M53 171l166 164l-166 166l21 21l165 -165l165 165l21 -21l-165 -166l165 -164l-21 -21l-165 165l-165 -165z" />
    <glyph glyph-name="Oslash" unicode="&#xd8;" horiz-adv-x="795" 
d="M45 2l96 106q-90 101 -90 245v8q0 152 100 256.5t247 104.5q127 0 223 -82l88 98l22 -22l-87 -97q100 -102 100 -255v-8q0 -152 -99 -257.5t-245 -105.5q-142 0 -238 93l-95 -106zM400 24q133 0 220 95t87 237v8q0 139 -85 232l-438 -486q88 -86 216 -86zM88 353
q0 -129 75 -220l437 484q-85 75 -202 75q-135 0 -222.5 -94.5t-87.5 -236.5v-8z" />
    <glyph glyph-name="Ugrave" unicode="&#xd9;" horiz-adv-x="674" 
d="M336 -5q-121 0 -188.5 66.5t-67.5 191.5v462h36v-459q0 -115 56.5 -172.5t163.5 -57.5q115 0 168 59t53 184v446h36v-451q0 -129 -64 -199t-193 -70zM247 891h42l68 -120h-29z" />
    <glyph glyph-name="Uacute" unicode="&#xda;" horiz-adv-x="674" 
d="M336 -5q-121 0 -188.5 66.5t-67.5 191.5v462h36v-459q0 -115 56.5 -172.5t163.5 -57.5q115 0 168 59t53 184v446h36v-451q0 -129 -64 -199t-193 -70zM384 891h41l-81 -120h-29z" />
    <glyph glyph-name="Ucircumflex" unicode="&#xdb;" horiz-adv-x="674" 
d="M336 -5q-121 0 -188.5 66.5t-67.5 191.5v462h36v-459q0 -115 56.5 -172.5t163.5 -57.5q115 0 168 59t53 184v446h36v-451q0 -129 -64 -199t-193 -70zM320 891h34l110 -120h-30l-97 90l-99 -90h-30z" />
    <glyph glyph-name="Udieresis" unicode="&#xdc;" horiz-adv-x="674" 
d="M336 -5q-121 0 -188.5 66.5t-67.5 191.5v462h36v-459q0 -115 56.5 -172.5t163.5 -57.5q115 0 168 59t53 184v446h36v-451q0 -129 -64 -199t-193 -70zM253 788q-11 0 -18.5 7.5t-7.5 18.5t7.5 18.5t18.5 7.5t18.5 -7.5t7.5 -18.5t-7.5 -18.5t-18.5 -7.5zM419 788
q-11 0 -18.5 7.5t-7.5 18.5t7.5 18.5t18.5 7.5t18.5 -7.5t7.5 -18.5t-7.5 -18.5t-18.5 -7.5z" />
    <glyph glyph-name="Yacute" unicode="&#xdd;" horiz-adv-x="565" 
d="M272 322l-250 393h41l228 -362l215 362h37l-235 -393v-322h-36v322zM335 891h41l-81 -120h-29z" />
    <glyph glyph-name="Thorn" unicode="&#xde;" horiz-adv-x="559" 
d="M94 715h35v-150h145q239 0 239 -191v-4q0 -193 -239 -193h-145v-177h-35v715zM275 207q98 0 150 38t52 125v4q0 88 -52.5 124t-149.5 36h-146v-327h146z" />
    <glyph glyph-name="germandbls" unicode="&#xdf;" horiz-adv-x="557" 
d="M311 -5q-60 0 -96 16v30q43 -17 95 -17q74 0 123 43.5t49 138.5v7q0 93 -66.5 156t-162.5 61v30q79 0 122.5 43.5t43.5 105.5v4q0 62 -38 98t-108 36q-74 0 -116 -46t-42 -125v-576h-34v575q0 92 54 146.5t139 54.5q83 0 131 -45.5t48 -117.5v-4q0 -58 -36 -102.5
t-98 -59.5q81 -15 139.5 -78.5t58.5 -154.5v-7q0 -110 -60 -161t-146 -51z" />
    <glyph glyph-name="agrave" unicode="&#xe0;" horiz-adv-x="521" 
d="M225 -8q-83 0 -131 38t-48 109q0 157 235 157h130v51q0 81 -35 117.5t-111 36.5q-141 0 -162 -121h-34q9 74 64.5 112.5t132.5 38.5q179 0 179 -184v-347h-34v89q-58 -97 -186 -97zM227 21q75 0 129.5 40.5t54.5 98.5v108h-130q-94 0 -147.5 -28t-53.5 -101
q0 -57 37.5 -87.5t109.5 -30.5zM173 747h41l72 -147h-29z" />
    <glyph glyph-name="aacute" unicode="&#xe1;" horiz-adv-x="521" 
d="M225 -8q-83 0 -131 38t-48 109q0 157 235 157h130v51q0 81 -35 117.5t-111 36.5q-141 0 -162 -121h-34q9 74 64.5 112.5t132.5 38.5q179 0 179 -184v-347h-34v89q-58 -97 -186 -97zM227 21q75 0 129.5 40.5t54.5 98.5v108h-130q-94 0 -147.5 -28t-53.5 -101
q0 -57 37.5 -87.5t109.5 -30.5zM315 747h41l-84 -147h-28z" />
    <glyph glyph-name="acircumflex" unicode="&#xe2;" horiz-adv-x="521" 
d="M225 -8q-83 0 -131 38t-48 109q0 157 235 157h130v51q0 81 -35 117.5t-111 36.5q-141 0 -162 -121h-34q9 74 64.5 112.5t132.5 38.5q179 0 179 -184v-347h-34v89q-58 -97 -186 -97zM227 21q75 0 129.5 40.5t54.5 98.5v108h-130q-94 0 -147.5 -28t-53.5 -101
q0 -57 37.5 -87.5t109.5 -30.5zM247 729h34l109 -129h-30l-96 100l-98 -100h-30z" />
    <glyph glyph-name="atilde" unicode="&#xe3;" horiz-adv-x="521" 
d="M225 -8q-83 0 -131 38t-48 109q0 157 235 157h130v51q0 81 -35 117.5t-111 36.5q-141 0 -162 -121h-34q9 74 64.5 112.5t132.5 38.5q179 0 179 -184v-347h-34v89q-58 -97 -186 -97zM227 21q75 0 129.5 40.5t54.5 98.5v108h-130q-94 0 -147.5 -28t-53.5 -101
q0 -57 37.5 -87.5t109.5 -30.5zM333 615q-28 0 -71.5 29t-61.5 29t-32 -15t-18 -43h-27q5 44 26 66t52 22q25 0 69.5 -29.5t63.5 -29.5q18 0 31.5 15.5t17.5 43.5h27q-5 -43 -26 -65.5t-51 -22.5z" />
    <glyph glyph-name="adieresis" unicode="&#xe4;" horiz-adv-x="521" 
d="M225 -8q-83 0 -131 38t-48 109q0 157 235 157h130v51q0 81 -35 117.5t-111 36.5q-141 0 -162 -121h-34q9 74 64.5 112.5t132.5 38.5q179 0 179 -184v-347h-34v89q-58 -97 -186 -97zM227 21q75 0 129.5 40.5t54.5 98.5v108h-130q-94 0 -147.5 -28t-53.5 -101
q0 -57 37.5 -87.5t109.5 -30.5zM189 638q-11 0 -18.5 7.5t-7.5 18.5t7.5 18.5t18.5 7.5t18.5 -7.5t7.5 -18.5t-7.5 -18.5t-18.5 -7.5zM343 638q-11 0 -18.5 7.5t-7.5 18.5t7.5 18.5t18.5 7.5t18.5 -7.5t7.5 -18.5t-7.5 -18.5t-18.5 -7.5z" />
    <glyph glyph-name="aring" unicode="&#xe5;" horiz-adv-x="521" 
d="M225 -8q-83 0 -131 38t-48 109q0 157 235 157h130v51q0 81 -35 117.5t-111 36.5q-141 0 -162 -121h-34q9 74 64.5 112.5t132.5 38.5q179 0 179 -184v-347h-34v89q-58 -97 -186 -97zM227 21q75 0 129.5 40.5t54.5 98.5v108h-130q-94 0 -147.5 -28t-53.5 -101
q0 -57 37.5 -87.5t109.5 -30.5zM266 625q29 0 48 19.5t19 47.5q0 29 -19 48.5t-48 19.5q-27 0 -46.5 -19.5t-19.5 -48.5q0 -28 19.5 -47.5t46.5 -19.5zM266 603q-37 0 -64.5 26.5t-27.5 62.5q0 38 27 64.5t65 26.5q39 0 66 -26.5t27 -64.5q0 -36 -27 -62.5t-66 -26.5z" />
    <glyph glyph-name="ae" unicode="&#xe6;" horiz-adv-x="909" 
d="M652 -8q-81 0 -136.5 39t-80.5 110q-17 -70 -75 -109.5t-134 -39.5q-83 0 -131.5 38t-48.5 108q0 154 232 154h136v54q0 80 -36 117.5t-112 37.5q-66 0 -109 -30t-54 -91h-34q9 73 65 112t133 39q152 0 174 -137q27 65 80.5 101t123.5 36q99 0 160.5 -66t61.5 -186v-15
h-419q1 -116 53 -179t151 -63q143 0 177 122h34q-18 -72 -74 -112t-137 -40zM228 21q77 0 131.5 44t54.5 115v84h-135q-95 0 -147 -27t-52 -99q0 -117 148 -117zM832 292q-2 102 -52 155.5t-135 53.5q-83 0 -137 -57t-60 -152h384z" />
    <glyph glyph-name="ccedilla" unicode="&#xe7;" horiz-adv-x="547" 
d="M267 -211q-39 0 -63.5 20t-28.5 55h32q7 -47 59 -47q26 0 41 13.5t15 35.5q0 45 -52 45q-16 0 -39 -10l-20 18l43 76q-93 12 -152.5 83.5t-59.5 178.5v8q0 118 71.5 192t175.5 74q82 0 143 -45.5t70 -123.5h-34q-9 66 -59 102.5t-120 36.5q-90 0 -151 -64.5t-61 -171.5
v-8q0 -106 60.5 -170.5t150.5 -64.5q73 0 124.5 41t63.5 114h32q-12 -84 -72.5 -134.5t-147.5 -50.5h-4l-33 -59q40 13 72 -5.5t32 -62.5q0 -36 -24.5 -56t-63.5 -20z" />
    <glyph glyph-name="egrave" unicode="&#xe8;" horiz-adv-x="545" 
d="M286 -8q-113 0 -178.5 73.5t-65.5 191.5v8q0 116 67 191t170 75q99 0 161.5 -66.5t62.5 -185.5v-15h-426q1 -116 54.5 -179t154.5 -63q148 0 179 122h34q-18 -72 -74.5 -112t-138.5 -40zM469 293q-3 102 -53.5 155t-136.5 53q-84 0 -139.5 -57t-61.5 -151h391zM184 747
h41l72 -147h-29z" />
    <glyph glyph-name="eacute" unicode="&#xe9;" horiz-adv-x="545" 
d="M286 -8q-113 0 -178.5 73.5t-65.5 191.5v8q0 116 67 191t170 75q99 0 161.5 -66.5t62.5 -185.5v-15h-426q1 -116 54.5 -179t154.5 -63q148 0 179 122h34q-18 -72 -74.5 -112t-138.5 -40zM469 293q-3 102 -53.5 155t-136.5 53q-84 0 -139.5 -57t-61.5 -151h391zM326 747
h41l-84 -147h-28z" />
    <glyph glyph-name="ecircumflex" unicode="&#xea;" horiz-adv-x="545" 
d="M286 -8q-113 0 -178.5 73.5t-65.5 191.5v8q0 116 67 191t170 75q99 0 161.5 -66.5t62.5 -185.5v-15h-426q1 -116 54.5 -179t154.5 -63q148 0 179 122h34q-18 -72 -74.5 -112t-138.5 -40zM469 293q-3 102 -53.5 155t-136.5 53q-84 0 -139.5 -57t-61.5 -151h391zM262 729
h34l109 -129h-30l-96 100l-98 -100h-30z" />
    <glyph glyph-name="edieresis" unicode="&#xeb;" horiz-adv-x="545" 
d="M286 -8q-113 0 -178.5 73.5t-65.5 191.5v8q0 116 67 191t170 75q99 0 161.5 -66.5t62.5 -185.5v-15h-426q1 -116 54.5 -179t154.5 -63q148 0 179 122h34q-18 -72 -74.5 -112t-138.5 -40zM469 293q-3 102 -53.5 155t-136.5 53q-84 0 -139.5 -57t-61.5 -151h391zM201 638
q-11 0 -18.5 7.5t-7.5 18.5t7.5 18.5t18.5 7.5t18.5 -7.5t7.5 -18.5t-7.5 -18.5t-18.5 -7.5zM355 638q-11 0 -18.5 7.5t-7.5 18.5t7.5 18.5t18.5 7.5t18.5 -7.5t7.5 -18.5t-7.5 -18.5t-18.5 -7.5z" />
    <glyph glyph-name="igrave" unicode="&#xec;" horiz-adv-x="200" 
d="M83 523h34v-523h-34v523zM2 747h41l72 -147h-29z" />
    <glyph glyph-name="iacute" unicode="&#xed;" horiz-adv-x="200" 
d="M83 523h34v-523h-34v523zM154 747h41l-84 -147h-28z" />
    <glyph glyph-name="icircumflex" unicode="&#xee;" horiz-adv-x="200" 
d="M83 523h34v-523h-34v523zM84 729h34l109 -129h-30l-96 100l-98 -100h-30z" />
    <glyph glyph-name="idieresis" unicode="&#xef;" horiz-adv-x="200" 
d="M36 638q-11 0 -18.5 7.5t-7.5 18.5t7.5 18.5t18.5 7.5t18.5 -7.5t7.5 -18.5t-7.5 -18.5t-18.5 -7.5zM165 638q-11 0 -18.5 7.5t-7.5 18.5t7.5 18.5t18.5 7.5t18.5 -7.5t7.5 -18.5t-7.5 -18.5t-18.5 -7.5zM83 523h34v-523h-34v523z" />
    <glyph glyph-name="eth" unicode="&#xf0;" horiz-adv-x="588" 
d="M130 612l134 78q-50 37 -123 83h49q53 -29 103 -67l108 63l15 -24l-100 -57q225 -187 225 -413v-17q0 -116 -73 -191t-177 -75t-176.5 75t-72.5 190v8q0 115 71.5 190.5t167.5 75.5q131 0 200 -104q-57 132 -193 244l-144 -82zM291 22q91 0 153 65t62 172v17
q0 100 -62.5 162.5t-156.5 62.5q-87 0 -148.5 -65t-61.5 -171v-8q0 -105 62 -170t152 -65z" />
    <glyph glyph-name="ntilde" unicode="&#xf1;" horiz-adv-x="573" 
d="M81 523h34v-114q19 51 72 86.5t123 35.5q88 0 137.5 -51.5t49.5 -156.5v-323h-34v324q0 177 -158 177q-75 0 -132.5 -49.5t-57.5 -134.5v-317h-34v523zM352 615q-28 0 -71.5 29t-61.5 29t-32 -15t-18 -43h-27q5 44 26 66t52 22q25 0 69.5 -29.5t63.5 -29.5
q18 0 31.5 15.5t17.5 43.5h27q-5 -43 -26 -65.5t-51 -22.5z" />
    <glyph glyph-name="ograve" unicode="&#xf2;" horiz-adv-x="583" 
d="M292 22q91 0 152.5 64.5t61.5 171.5v8q0 107 -61.5 171t-151.5 64t-153 -65t-63 -171v-8q0 -105 62 -170t153 -65zM291 -8q-104 0 -176.5 75t-72.5 190v8q0 115 73.5 190t177.5 75t176 -73.5t72 -190.5v-8q0 -116 -73 -191t-177 -75zM198 747h41l72 -147h-29z" />
    <glyph glyph-name="oacute" unicode="&#xf3;" horiz-adv-x="583" 
d="M292 22q91 0 152.5 64.5t61.5 171.5v8q0 107 -61.5 171t-151.5 64t-153 -65t-63 -171v-8q0 -105 62 -170t153 -65zM291 -8q-104 0 -176.5 75t-72.5 190v8q0 115 73.5 190t177.5 75t176 -73.5t72 -190.5v-8q0 -116 -73 -191t-177 -75zM340 747h41l-84 -147h-28z" />
    <glyph glyph-name="ocircumflex" unicode="&#xf4;" horiz-adv-x="583" 
d="M292 22q91 0 152.5 64.5t61.5 171.5v8q0 107 -61.5 171t-151.5 64t-153 -65t-63 -171v-8q0 -105 62 -170t153 -65zM291 -8q-104 0 -176.5 75t-72.5 190v8q0 115 73.5 190t177.5 75t176 -73.5t72 -190.5v-8q0 -116 -73 -191t-177 -75zM275 729h34l109 -129h-30l-96 100
l-98 -100h-30z" />
    <glyph glyph-name="otilde" unicode="&#xf5;" horiz-adv-x="583" 
d="M292 22q91 0 152.5 64.5t61.5 171.5v8q0 107 -61.5 171t-151.5 64t-153 -65t-63 -171v-8q0 -105 62 -170t153 -65zM291 -8q-104 0 -176.5 75t-72.5 190v8q0 115 73.5 190t177.5 75t176 -73.5t72 -190.5v-8q0 -116 -73 -191t-177 -75zM358 615q-28 0 -71.5 29t-61.5 29
t-32 -15t-18 -43h-27q5 44 26 66t52 22q25 0 69.5 -29.5t63.5 -29.5q18 0 31.5 15.5t17.5 43.5h27q-5 -43 -26 -65.5t-51 -22.5z" />
    <glyph glyph-name="odieresis" unicode="&#xf6;" horiz-adv-x="583" 
d="M292 22q91 0 152.5 64.5t61.5 171.5v8q0 107 -61.5 171t-151.5 64t-153 -65t-63 -171v-8q0 -105 62 -170t153 -65zM291 -8q-104 0 -176.5 75t-72.5 190v8q0 115 73.5 190t177.5 75t176 -73.5t72 -190.5v-8q0 -116 -73 -191t-177 -75zM214 638q-11 0 -18.5 7.5t-7.5 18.5
t7.5 18.5t18.5 7.5t18.5 -7.5t7.5 -18.5t-7.5 -18.5t-18.5 -7.5zM368 638q-11 0 -18.5 7.5t-7.5 18.5t7.5 18.5t18.5 7.5t18.5 -7.5t7.5 -18.5t-7.5 -18.5t-18.5 -7.5z" />
    <glyph glyph-name="divide" unicode="&#xf7;" horiz-adv-x="505" 
d="M252 143q-12 0 -20 8.5t-8 20.5t8 20.5t20 8.5q13 0 21 -8.5t8 -20.5t-8 -20.5t-21 -8.5zM37 357h431v-30h-431v30zM252 484q-12 0 -20 8.5t-8 19.5q0 12 8 20.5t20 8.5q13 0 21 -8.5t8 -20.5t-8.5 -20t-20.5 -8z" />
    <glyph glyph-name="oslash" unicode="&#xf8;" horiz-adv-x="583" 
d="M36 0l69 77q-63 76 -63 180v8q0 115 73.5 190t177.5 75q96 0 162 -60l63 70l22 -19l-64 -72q65 -73 65 -183v-8q0 -116 -73 -191t-177 -75q-97 0 -166 64l-67 -75zM292 22q91 0 152.5 64.5t61.5 171.5v8q0 96 -52 159l-308 -345q61 -58 146 -58zM77 257q0 -91 50 -156
l307 345q-60 55 -141 55q-90 0 -153 -65t-63 -171v-8z" />
    <glyph glyph-name="ugrave" unicode="&#xf9;" horiz-adv-x="569" 
d="M262 -8q-186 0 -186 201v330h34v-329q0 -171 157 -171q75 0 131 48t56 133v319h34v-523h-34v112q-19 -51 -70.5 -85.5t-121.5 -34.5zM191 747h41l72 -147h-29z" />
    <glyph glyph-name="uacute" unicode="&#xfa;" horiz-adv-x="569" 
d="M262 -8q-186 0 -186 201v330h34v-329q0 -171 157 -171q75 0 131 48t56 133v319h34v-523h-34v112q-19 -51 -70.5 -85.5t-121.5 -34.5zM333 747h41l-84 -147h-28z" />
    <glyph glyph-name="ucircumflex" unicode="&#xfb;" horiz-adv-x="569" 
d="M262 -8q-186 0 -186 201v330h34v-329q0 -171 157 -171q75 0 131 48t56 133v319h34v-523h-34v112q-19 -51 -70.5 -85.5t-121.5 -34.5zM269 729h34l109 -129h-30l-96 100l-98 -100h-30z" />
    <glyph glyph-name="udieresis" unicode="&#xfc;" horiz-adv-x="569" 
d="M262 -8q-186 0 -186 201v330h34v-329q0 -171 157 -171q75 0 131 48t56 133v319h34v-523h-34v112q-19 -51 -70.5 -85.5t-121.5 -34.5zM208 638q-11 0 -18.5 7.5t-7.5 18.5t7.5 18.5t18.5 7.5t18.5 -7.5t7.5 -18.5t-7.5 -18.5t-18.5 -7.5zM362 638q-11 0 -18.5 7.5
t-7.5 18.5t7.5 18.5t18.5 7.5t18.5 -7.5t7.5 -18.5t-7.5 -18.5t-18.5 -7.5z" />
    <glyph glyph-name="yacute" unicode="&#xfd;" horiz-adv-x="495" 
d="M234 40l-208 483h36l190 -444l181 444h36l-292 -705h-35zM296 747h41l-84 -147h-28z" />
    <glyph glyph-name="thorn" unicode="&#xfe;" horiz-adv-x="602" 
d="M81 773h34v-394q26 64 83.5 108t130.5 44q99 0 165 -72.5t66 -192.5v-8q0 -122 -66 -194t-166 -72q-80 0 -135 43.5t-78 104.5v-322h-34v955zM326 22q88 0 143.5 63t55.5 172v8q0 110 -57 173t-141 63q-86 0 -149 -63.5t-63 -172.5v-8q0 -107 61 -171t150 -64z" />
    <glyph glyph-name="ydieresis" unicode="&#xff;" horiz-adv-x="495" 
d="M234 40l-208 483h36l190 -444l181 444h36l-292 -705h-35zM174 638q-11 0 -18.5 7.5t-7.5 18.5t7.5 18.5t18.5 7.5t18.5 -7.5t7.5 -18.5t-7.5 -18.5t-18.5 -7.5zM328 638q-11 0 -18.5 7.5t-7.5 18.5t7.5 18.5t18.5 7.5t18.5 -7.5t7.5 -18.5t-7.5 -18.5t-18.5 -7.5z" />
    <glyph glyph-name="Amacron" unicode="&#x100;" horiz-adv-x="641" 
d="M296 715h48l266 -715h-36l-85 228h-339l-84 -228h-34zM161 258h317l-159 428zM196 823h236v-29h-236v29z" />
    <glyph glyph-name="amacron" unicode="&#x101;" horiz-adv-x="521" 
d="M225 -8q-83 0 -131 38t-48 109q0 157 235 157h130v51q0 81 -35 117.5t-111 36.5q-141 0 -162 -121h-34q9 74 64.5 112.5t132.5 38.5q179 0 179 -184v-347h-34v89q-58 -97 -186 -97zM227 21q75 0 129.5 40.5t54.5 98.5v108h-130q-94 0 -147.5 -28t-53.5 -101
q0 -57 37.5 -87.5t109.5 -30.5zM151 675h230v-28h-230v28z" />
    <glyph glyph-name="Abreve" unicode="&#x102;" horiz-adv-x="641" 
d="M296 715h48l266 -715h-36l-85 228h-339l-84 -228h-34zM161 258h317l-159 428zM313 773q-50 0 -84.5 33t-38.5 84h30q4 -39 29.5 -63.5t63.5 -24.5q37 0 63.5 25t31.5 63h29q-4 -51 -39.5 -84t-84.5 -33z" />
    <glyph glyph-name="abreve" unicode="&#x103;" horiz-adv-x="521" 
d="M225 -8q-83 0 -131 38t-48 109q0 157 235 157h130v51q0 81 -35 117.5t-111 36.5q-141 0 -162 -121h-34q9 74 64.5 112.5t132.5 38.5q179 0 179 -184v-347h-34v89q-58 -97 -186 -97zM227 21q75 0 129.5 40.5t54.5 98.5v108h-130q-94 0 -147.5 -28t-53.5 -101
q0 -57 37.5 -87.5t109.5 -30.5zM265 614q-50 0 -81.5 31.5t-35.5 82.5h30q4 -39 26.5 -62t60.5 -23q36 0 60 23t29 62h29q-3 -51 -36.5 -82.5t-81.5 -31.5z" />
    <glyph glyph-name="Aogonek" unicode="&#x104;" horiz-adv-x="641" 
d="M579 -182q-41 0 -64 20t-23 52q0 63 82 113h-2l-84 225h-338l-84 -228h-34l264 715h48l265 -714q-83 -53 -83 -107q0 -48 56 -48q26 0 49 9v-27q-21 -10 -52 -10zM161 258h316l-158 428z" />
    <glyph glyph-name="aogonek" unicode="&#x105;" horiz-adv-x="521" 
d="M417 -182q-41 0 -64 20t-23 52q0 63 82 114h-1v85q-58 -97 -186 -97q-83 0 -131 38t-48 109q0 157 235 157h130v51q0 81 -35 117.5t-111 36.5q-141 0 -162 -121h-34q9 74 64.5 112.5t132.5 38.5q179 0 179 -184v-346q-82 -52 -82 -107q0 -22 14.5 -35.5t42.5 -13.5
q25 0 49 9v-26q-21 -10 -52 -10zM227 21q75 0 129.5 40.5t54.5 98.5v109h-130q-94 0 -147.5 -28.5t-53.5 -101.5q0 -57 37.5 -87.5t109.5 -30.5z" />
    <glyph glyph-name="Cacute" unicode="&#x106;" horiz-adv-x="723" 
d="M382 -7q-150 0 -240.5 100t-90.5 260v8q0 157 96 259t235 102q112 0 190.5 -56.5t96.5 -159.5h-36q-19 90 -83 138t-168 48q-127 0 -210.5 -92.5t-83.5 -237.5v-8q0 -150 80 -240t215 -90q103 0 172.5 53t89.5 148h33q-20 -109 -100.5 -170.5t-195.5 -61.5zM431 891h41
l-81 -120h-29z" />
    <glyph glyph-name="cacute" unicode="&#x107;" horiz-adv-x="547" 
d="M288 -8q-104 0 -175 74t-71 191v8q0 118 71.5 192t175.5 74q82 0 143 -45.5t70 -123.5h-34q-9 66 -59 102.5t-120 36.5q-90 0 -151 -64.5t-61 -171.5v-8q0 -106 60.5 -170.5t150.5 -64.5q73 0 124.5 41t63.5 114h32q-12 -84 -72.5 -134.5t-147.5 -50.5zM333 747h41
l-84 -147h-28z" />
    <glyph glyph-name="Ccircumflex" unicode="&#x108;" horiz-adv-x="723" 
d="M382 -7q-150 0 -240.5 100t-90.5 260v8q0 157 96 259t235 102q112 0 190.5 -56.5t96.5 -159.5h-36q-19 90 -83 138t-168 48q-127 0 -210.5 -92.5t-83.5 -237.5v-8q0 -150 80 -240t215 -90q103 0 172.5 53t89.5 148h33q-20 -109 -100.5 -170.5t-195.5 -61.5zM367 891h34
l110 -120h-30l-97 90l-99 -90h-30z" />
    <glyph glyph-name="ccircumflex" unicode="&#x109;" horiz-adv-x="547" 
d="M288 -8q-104 0 -175 74t-71 191v8q0 118 71.5 192t175.5 74q82 0 143 -45.5t70 -123.5h-34q-9 66 -59 102.5t-120 36.5q-90 0 -151 -64.5t-61 -171.5v-8q0 -106 60.5 -170.5t150.5 -64.5q73 0 124.5 41t63.5 114h32q-12 -84 -72.5 -134.5t-147.5 -50.5zM268 729h34
l109 -129h-30l-96 100l-98 -100h-30z" />
    <glyph glyph-name="Cdotaccent" unicode="&#x10a;" horiz-adv-x="723" 
d="M382 -7q-150 0 -240.5 100t-90.5 260v8q0 157 96 259t235 102q112 0 190.5 -56.5t96.5 -159.5h-36q-19 90 -83 138t-168 48q-127 0 -210.5 -92.5t-83.5 -237.5v-8q0 -150 80 -240t215 -90q103 0 172.5 53t89.5 148h33q-20 -109 -100.5 -170.5t-195.5 -61.5zM382 787
q-11 0 -18.5 8t-7.5 19t7.5 18.5t18.5 7.5t19 -7.5t8 -18.5t-8 -19t-19 -8z" />
    <glyph glyph-name="cdotaccent" unicode="&#x10b;" horiz-adv-x="547" 
d="M288 -8q-104 0 -175 74t-71 191v8q0 118 71.5 192t175.5 74q82 0 143 -45.5t70 -123.5h-34q-9 66 -59 102.5t-120 36.5q-90 0 -151 -64.5t-61 -171.5v-8q0 -106 60.5 -170.5t150.5 -64.5q73 0 124.5 41t63.5 114h32q-12 -84 -72.5 -134.5t-147.5 -50.5zM284 637
q-11 0 -18.5 8t-7.5 19t7.5 18.5t18.5 7.5t19 -7.5t8 -18.5t-8 -19t-19 -8z" />
    <glyph glyph-name="Ccaron" unicode="&#x10c;" horiz-adv-x="723" 
d="M382 -7q-150 0 -240.5 100t-90.5 260v8q0 157 96 259t235 102q112 0 190.5 -56.5t96.5 -159.5h-36q-19 90 -83 138t-168 48q-127 0 -210.5 -92.5t-83.5 -237.5v-8q0 -150 80 -240t215 -90q103 0 172.5 53t89.5 148h33q-20 -109 -100.5 -170.5t-195.5 -61.5zM254 891h30
l99 -91l100 91h29l-113 -120h-34z" />
    <glyph glyph-name="ccaron" unicode="&#x10d;" horiz-adv-x="547" 
d="M288 -8q-104 0 -175 74t-71 191v8q0 118 71.5 192t175.5 74q82 0 143 -45.5t70 -123.5h-34q-9 66 -59 102.5t-120 36.5q-90 0 -151 -64.5t-61 -171.5v-8q0 -106 60.5 -170.5t150.5 -64.5q73 0 124.5 41t63.5 114h32q-12 -84 -72.5 -134.5t-147.5 -50.5zM157 742h30
l97 -100l97 100h30l-111 -129h-34z" />
    <glyph glyph-name="Dcaron" unicode="&#x10e;" horiz-adv-x="680" 
d="M273 31q156 0 237.5 89.5t81.5 235.5v8q0 144 -81 232.5t-239 88.5h-142v-654h143zM94 715h183q168 0 260 -98t92 -253v-8q0 -156 -90.5 -256t-263.5 -100h-181v715zM184 891h30l99 -91l100 91h29l-113 -120h-34z" />
    <glyph glyph-name="dcaron" unicode="&#x10f;" horiz-adv-x="602" 
d="M277 -8q-102 0 -168.5 71t-66.5 193v8q0 119 70 193t173 74q143 0 202 -144v386h34v-773h-34v140q-20 -59 -76.5 -103.5t-133.5 -44.5zM279 22q88 0 148.5 64t60.5 171v8q0 111 -56.5 173.5t-144.5 62.5q-90 0 -150 -63.5t-60 -172.5v-8q0 -110 56.5 -172.5t145.5 -62.5z
M594 773h37l-23 -154h-27z" />
    <glyph glyph-name="Dcroat" unicode="&#x110;" horiz-adv-x="685" 
d="M24 375h75v340h183q168 0 260 -98t92 -253v-8q0 -156 -90.5 -256t-263.5 -100h-181v345h-75v30zM278 31q156 0 237.5 89.5t81.5 235.5v8q0 144 -81 232.5t-239 88.5h-142v-310h209v-30h-209v-314h143z" />
    <glyph glyph-name="dcroat" unicode="&#x111;" horiz-adv-x="602" 
d="M292 656h195v117h34v-117h80v-27h-80v-629h-34v140q-20 -59 -76.5 -103.5t-133.5 -44.5q-102 0 -168.5 71t-66.5 193v8q0 119 70 193t173 74q143 0 202 -144v242h-195v27zM279 22q88 0 148.5 64t60.5 171v8q0 111 -56.5 173.5t-144.5 62.5q-90 0 -150 -63.5t-60 -172.5
v-8q0 -110 56.5 -172.5t145.5 -62.5z" />
    <glyph glyph-name="Emacron" unicode="&#x112;" horiz-adv-x="566" 
d="M94 715h406v-30h-370v-301h301v-31h-301v-322h388v-31h-424v715zM177 823h236v-29h-236v29z" />
    <glyph glyph-name="emacron" unicode="&#x113;" horiz-adv-x="545" 
d="M286 -8q-113 0 -178.5 73.5t-65.5 191.5v8q0 116 67 191t170 75q99 0 161.5 -66.5t62.5 -185.5v-15h-426q1 -116 54.5 -179t154.5 -63q148 0 179 122h34q-18 -72 -74.5 -112t-138.5 -40zM469 293q-3 102 -53.5 155t-136.5 53q-84 0 -139.5 -57t-61.5 -151h391zM163 675
h230v-28h-230v28z" />
    <glyph glyph-name="Ebreve" unicode="&#x114;" horiz-adv-x="566" 
d="M94 715h406v-30h-370v-301h301v-31h-301v-322h388v-31h-424v715zM296 773q-50 0 -84.5 33t-38.5 84h30q4 -39 29.5 -63.5t63.5 -24.5q37 0 63.5 25t31.5 63h29q-4 -51 -39.5 -84t-84.5 -33z" />
    <glyph glyph-name="ebreve" unicode="&#x115;" horiz-adv-x="545" 
d="M286 -8q-113 0 -178.5 73.5t-65.5 191.5v8q0 116 67 191t170 75q99 0 161.5 -66.5t62.5 -185.5v-15h-426q1 -116 54.5 -179t154.5 -63q148 0 179 122h34q-18 -72 -74.5 -112t-138.5 -40zM469 293q-3 102 -53.5 155t-136.5 53q-84 0 -139.5 -57t-61.5 -151h391zM275 614
q-50 0 -81.5 31.5t-35.5 82.5h30q4 -39 26.5 -62t60.5 -23q36 0 60 23t29 62h29q-3 -51 -36.5 -82.5t-81.5 -31.5z" />
    <glyph glyph-name="Edotaccent" unicode="&#x116;" horiz-adv-x="566" 
d="M94 715h406v-30h-370v-301h301v-31h-301v-322h388v-31h-424v715zM295 787q-11 0 -18.5 8t-7.5 19t7.5 18.5t18.5 7.5t19 -7.5t8 -18.5t-8 -19t-19 -8z" />
    <glyph glyph-name="edotaccent" unicode="&#x117;" horiz-adv-x="545" 
d="M286 -8q-113 0 -178.5 73.5t-65.5 191.5v8q0 116 67 191t170 75q99 0 161.5 -66.5t62.5 -185.5v-15h-426q1 -116 54.5 -179t154.5 -63q148 0 179 122h34q-18 -72 -74.5 -112t-138.5 -40zM469 293q-3 102 -53.5 155t-136.5 53q-84 0 -139.5 -57t-61.5 -151h391zM278 637
q-11 0 -18.5 8t-7.5 19t7.5 18.5t18.5 7.5t19 -7.5t8 -18.5t-8 -19t-19 -8z" />
    <glyph glyph-name="Eogonek" unicode="&#x118;" horiz-adv-x="566" 
d="M426 -182q-41 0 -64 20t-23 52q0 62 77 110h-322v715h406v-30h-370v-301h301v-31h-301v-322h388v-31h-64q-41 -28 -61 -52.5t-20 -53.5q0 -48 56 -48q25 0 49 9v-27q-21 -10 -52 -10z" />
    <glyph glyph-name="eogonek" unicode="&#x119;" horiz-adv-x="545" 
d="M366 -182q-41 0 -64 20t-23 52q0 63 82 114q-36 -12 -75 -12q-113 0 -178.5 73.5t-65.5 191.5v8q0 116 67 191t170 75q99 0 161.5 -66.5t62.5 -185.5v-15h-426q1 -116 54.5 -179t154.5 -63q148 0 179 122h34q-18 -67 -73 -113q-8 -7 -29.5 -23t-32.5 -26t-25 -25
t-20.5 -30.5t-6.5 -32.5q0 -22 14.5 -35.5t42.5 -13.5q25 0 49 9v-26q-21 -10 -52 -10zM469 293q-3 102 -53.5 155t-136.5 53q-84 0 -139.5 -57t-61.5 -151h391z" />
    <glyph glyph-name="Ecaron" unicode="&#x11a;" horiz-adv-x="566" 
d="M94 715h406v-30h-370v-301h301v-31h-301v-322h388v-31h-424v715zM167 891h30l99 -91l100 91h29l-113 -120h-34z" />
    <glyph glyph-name="ecaron" unicode="&#x11b;" horiz-adv-x="545" 
d="M286 -8q-113 0 -178.5 73.5t-65.5 191.5v8q0 116 67 191t170 75q99 0 161.5 -66.5t62.5 -185.5v-15h-426q1 -116 54.5 -179t154.5 -63q148 0 179 122h34q-18 -72 -74.5 -112t-138.5 -40zM469 293q-3 102 -53.5 155t-136.5 53q-84 0 -139.5 -57t-61.5 -151h391zM151 742
h30l97 -100l97 100h30l-111 -129h-34z" />
    <glyph glyph-name="Gcircumflex" unicode="&#x11c;" horiz-adv-x="750" 
d="M393 -7q-158 0 -250 99.5t-92 260.5v8q0 156 97 258.5t241 102.5q108 0 185 -51t99 -152h-36q-21 87 -86.5 130t-160.5 43q-132 0 -217 -92.5t-85 -237.5v-8q0 -151 80.5 -240.5t224.5 -89.5q131 0 200 73t70 206v7h-227v31h262v-33q0 -151 -82 -233t-223 -82zM371 891
h34l110 -120h-30l-97 90l-99 -90h-30z" />
    <glyph glyph-name="gcircumflex" unicode="&#x11d;" horiz-adv-x="602" 
d="M286 -187q-105 0 -163.5 44.5t-69.5 112.5h35q10 -57 59.5 -92t137.5 -35q92 0 147 46.5t55 146.5v125q-20 -58 -76 -101t-134 -43q-101 0 -168 68t-67 183v8q0 112 70 183.5t173 71.5q145 0 202 -139v131h34v-489q0 -112 -63.5 -166.5t-171.5 -54.5zM279 46
q88 0 148.5 61t60.5 163v7q0 104 -56.5 164t-144.5 60q-90 0 -150 -60.5t-60 -163.5v-8q0 -103 56.5 -163t145.5 -60zM271 729h34l109 -129h-30l-96 100l-98 -100h-30z" />
    <glyph glyph-name="Gbreve" unicode="&#x11e;" horiz-adv-x="750" 
d="M393 -7q-158 0 -250 99.5t-92 260.5v8q0 156 97 258.5t241 102.5q108 0 185 -51t99 -152h-36q-21 87 -86.5 130t-160.5 43q-132 0 -217 -92.5t-85 -237.5v-8q0 -151 80.5 -240.5t224.5 -89.5q131 0 200 73t70 206v7h-227v31h262v-33q0 -151 -82 -233t-223 -82zM386 773
q-50 0 -84.5 33t-38.5 84h30q4 -39 29.5 -63.5t63.5 -24.5q37 0 63.5 25t31.5 63h29q-4 -51 -39.5 -84t-84.5 -33z" />
    <glyph glyph-name="gbreve" unicode="&#x11f;" horiz-adv-x="602" 
d="M286 -187q-105 0 -163.5 44.5t-69.5 112.5h35q10 -57 59.5 -92t137.5 -35q92 0 147 46.5t55 146.5v125q-20 -58 -76 -101t-134 -43q-101 0 -168 68t-67 183v8q0 112 70 183.5t173 71.5q145 0 202 -139v131h34v-489q0 -112 -63.5 -166.5t-171.5 -54.5zM279 46
q88 0 148.5 61t60.5 163v7q0 104 -56.5 164t-144.5 60q-90 0 -150 -60.5t-60 -163.5v-8q0 -103 56.5 -163t145.5 -60zM286 614q-50 0 -81.5 31.5t-35.5 82.5h30q4 -39 26.5 -62t60.5 -23q36 0 60 23t29 62h29q-3 -51 -36.5 -82.5t-81.5 -31.5z" />
    <glyph glyph-name="Gdotaccent" unicode="&#x120;" horiz-adv-x="750" 
d="M393 -7q-158 0 -250 99.5t-92 260.5v8q0 156 97 258.5t241 102.5q108 0 185 -51t99 -152h-36q-21 87 -86.5 130t-160.5 43q-132 0 -217 -92.5t-85 -237.5v-8q0 -151 80.5 -240.5t224.5 -89.5q131 0 200 73t70 206v7h-227v31h262v-33q0 -151 -82 -233t-223 -82zM387 787
q-11 0 -18.5 8t-7.5 19t7.5 18.5t18.5 7.5t19 -7.5t8 -18.5t-8 -19t-19 -8z" />
    <glyph glyph-name="gdotaccent" unicode="&#x121;" horiz-adv-x="602" 
d="M286 -187q-105 0 -163.5 44.5t-69.5 112.5h35q10 -57 59.5 -92t137.5 -35q92 0 147 46.5t55 146.5v125q-20 -58 -76 -101t-134 -43q-101 0 -168 68t-67 183v8q0 112 70 183.5t173 71.5q145 0 202 -139v131h34v-489q0 -112 -63.5 -166.5t-171.5 -54.5zM279 46
q88 0 148.5 61t60.5 163v7q0 104 -56.5 164t-144.5 60q-90 0 -150 -60.5t-60 -163.5v-8q0 -103 56.5 -163t145.5 -60zM287 637q-11 0 -18.5 8t-7.5 19t7.5 18.5t18.5 7.5t19 -7.5t8 -18.5t-8 -19t-19 -8z" />
    <glyph glyph-name="uni0122" unicode="&#x122;" horiz-adv-x="750" 
d="M393 -7q-158 0 -250 99.5t-92 260.5v8q0 156 97 258.5t241 102.5q108 0 185 -51t99 -152h-36q-21 87 -86.5 130t-160.5 43q-132 0 -217 -92.5t-85 -237.5v-8q0 -151 80.5 -240.5t224.5 -89.5q131 0 200 73t70 206v7h-227v31h262v-33q0 -151 -82 -233t-223 -82zM323 -184
l58 140l34 -9l-68 -142z" />
    <glyph glyph-name="uni0123" unicode="&#x123;" horiz-adv-x="602" 
d="M286 -187q-105 0 -163.5 44.5t-69.5 112.5h35q10 -57 59.5 -92t137.5 -35q92 0 147 46.5t55 146.5v125q-20 -58 -76 -101t-134 -43q-101 0 -168 68t-67 183v8q0 112 70 183.5t173 71.5q145 0 202 -139v131h34v-489q0 -112 -63.5 -166.5t-171.5 -54.5zM279 46
q88 0 148.5 61t60.5 163v7q0 104 -56.5 164t-144.5 60q-90 0 -150 -60.5t-60 -163.5v-8q0 -103 56.5 -163t145.5 -60zM263 619l68 142l24 -11l-58 -140z" />
    <glyph glyph-name="Hcircumflex" unicode="&#x124;" horiz-adv-x="709" 
d="M94 715h36v-339h449v339h36v-715h-36v345h-449v-345h-36v715zM338 891h34l110 -120h-30l-97 90l-99 -90h-30z" />
    <glyph glyph-name="hcircumflex" unicode="&#x125;" horiz-adv-x="573" 
d="M81 773h34v-364q19 51 72 86.5t123 35.5q88 0 137.5 -51.5t49.5 -156.5v-323h-34v324q0 177 -158 177q-75 0 -132.5 -49.5t-57.5 -134.5v-317h-34v773zM276 933h34l110 -120h-30l-97 90l-99 -90h-30z" />
    <glyph glyph-name="Hbar" unicode="&#x126;" horiz-adv-x="709" 
d="M8 550h86v165h36v-165h449v165h36v-165h86v-28h-86v-522h-36v345h-449v-345h-36v522h-86v28zM579 376v146h-449v-146h449z" />
    <glyph glyph-name="hbar" unicode="&#x127;" horiz-adv-x="573" 
d="M2 656h79v117h34v-117h196v-27h-196v-220q19 51 72 86.5t123 35.5q88 0 137.5 -51.5t49.5 -156.5v-323h-34v324q0 177 -158 177q-75 0 -132.5 -49.5t-57.5 -134.5v-317h-34v629h-79v27z" />
    <glyph glyph-name="Itilde" unicode="&#x128;" horiz-adv-x="234" 
d="M99 715h36v-715h-36v715zM184 773q-27 0 -70.5 30t-61.5 30q-43 0 -51 -59h-27q5 44 26 66.5t52 22.5q26 0 70 -30t62 -30q42 0 50 59h27q-5 -44 -26 -66.5t-51 -22.5z" />
    <glyph glyph-name="itilde" unicode="&#x129;" horiz-adv-x="200" 
d="M83 523h34v-523h-34v523zM168 615q-28 0 -71.5 29t-61.5 29t-32 -15t-18 -43h-27q5 44 26 66t52 22q25 0 69.5 -29.5t63.5 -29.5q18 0 31.5 15.5t17.5 43.5h27q-5 -43 -26 -65.5t-51 -22.5z" />
    <glyph glyph-name="Imacron" unicode="&#x12a;" horiz-adv-x="234" 
d="M99 715h36v-715h-36v715zM-1 823h236v-29h-236v29z" />
    <glyph glyph-name="imacron" unicode="&#x12b;" horiz-adv-x="200" 
d="M20 675h161v-28h-161v28zM83 523h34v-523h-34v523z" />
    <glyph glyph-name="Ibreve" unicode="&#x12c;" horiz-adv-x="234" 
d="M99 715h36v-715h-36v715zM116 773q-50 0 -84.5 33t-38.5 84h30q4 -39 29.5 -63.5t63.5 -24.5q37 0 63.5 25t31.5 63h29q-4 -51 -39.5 -84t-84.5 -33z" />
    <glyph glyph-name="ibreve" unicode="&#x12d;" horiz-adv-x="200" 
d="M83 523h34v-523h-34v523zM100 614q-50 0 -81.5 31.5t-35.5 82.5h30q4 -39 26.5 -62t60.5 -23q36 0 60 23t29 62h29q-3 -51 -36.5 -82.5t-81.5 -31.5z" />
    <glyph glyph-name="Iogonek" unicode="&#x12e;" horiz-adv-x="234" 
d="M120 -182q-41 0 -64 20t-23 52q0 57 68 113h-2v712h36v-714q-68 -53 -68 -107q0 -48 56 -48q25 0 49 9v-27q-21 -10 -52 -10z" />
    <glyph glyph-name="iogonek" unicode="&#x12f;" horiz-adv-x="200" 
d="M109 -182q-41 0 -64 20t-23 52q0 55 63 112h-2v521h34v-522q-62 -58 -62 -107q0 -22 14.5 -35.5t42.5 -13.5q25 0 49 9v-26q-21 -10 -52 -10zM100 637q-11 0 -19 8t-8 19t8 18.5t19 7.5t18.5 -7.5t7.5 -18.5t-7.5 -19t-18.5 -8z" />
    <glyph glyph-name="Idotaccent" unicode="&#x130;" horiz-adv-x="234" 
d="M99 715h36v-715h-36v715zM117 787q-11 0 -18.5 8t-7.5 19t7.5 18.5t18.5 7.5t19 -7.5t8 -18.5t-8 -19t-19 -8z" />
    <glyph glyph-name="dotlessi" unicode="&#x131;" horiz-adv-x="200" 
d="M83 523h34v-523h-34v523z" />
    <glyph glyph-name="IJ" unicode="&#x132;" horiz-adv-x="590" 
d="M99 715h36v-715h-36v715zM338 -5q-59 0 -101 20v32q48 -22 99 -22q137 0 137 148v542h36v-543q0 -90 -45.5 -133.5t-125.5 -43.5z" />
    <glyph glyph-name="ij" unicode="&#x133;" horiz-adv-x="200" 
d="M83 523h34v-523h-34v523zM100 637q-11 0 -19 8t-8 19t8 18.5t19 7.5t18.5 -7.5t7.5 -18.5t-7.5 -19t-18.5 -8zM206 -156q44 4 60.5 25.5t16.5 70.5v583h34v-581q0 -65 -25 -95.5t-86 -32.5v30zM300 637q-11 0 -19 8t-8 19t8 18.5t19 7.5t18.5 -7.5t7.5 -18.5t-7.5 -19
t-18.5 -8z" />
    <glyph glyph-name="Jcircumflex" unicode="&#x134;" horiz-adv-x="389" 
d="M137 -5q-59 0 -101 20v32q48 -22 99 -22q137 0 137 148v542h36v-543q0 -90 -45.5 -133.5t-125.5 -43.5zM274 891h34l110 -120h-30l-97 90l-99 -90h-30z" />
    <glyph glyph-name="jcircumflex" unicode="&#x135;" horiz-adv-x="200" 
d="M6 -156q44 4 60.5 25.5t16.5 70.5v583h34v-581q0 -65 -25 -95.5t-86 -32.5v30zM85 729h34l109 -129h-30l-96 100l-98 -100h-30z" />
    <glyph glyph-name="uni0136" unicode="&#x136;" horiz-adv-x="588" 
d="M135 364l365 351h42l-363 -348l381 -367h-45zM94 715h36v-715h-36v715zM241 -184l58 140l34 -9l-68 -142z" />
    <glyph glyph-name="uni0137" unicode="&#x137;" horiz-adv-x="468" 
d="M118 277l275 246h42l-275 -245l291 -278h-44zM81 773h34v-773h-34v773zM181 -184l58 140l34 -9l-68 -142z" />
    <glyph glyph-name="Lacute" unicode="&#x139;" horiz-adv-x="528" 
d="M94 715h36v-684h360v-31h-396v715zM162 891h41l-81 -120h-29z" />
    <glyph glyph-name="lacute" unicode="&#x13a;" horiz-adv-x="201" 
d="M83 773h35v-773h-35v773zM149 933h41l-81 -120h-29z" />
    <glyph glyph-name="uni013B" unicode="&#x13b;" horiz-adv-x="528" 
d="M94 715h36v-684h360v-31h-396v715zM218 -184l58 140l34 -9l-68 -142z" />
    <glyph glyph-name="uni013C" unicode="&#x13c;" horiz-adv-x="201" 
d="M83 773h35v-773h-35v773zM33 -184l58 140l34 -9l-68 -142z" />
    <glyph glyph-name="Lcaron" unicode="&#x13d;" horiz-adv-x="528" 
d="M336 715h38l-36 -157h-28zM94 715h36v-684h360v-31h-396v715z" />
    <glyph glyph-name="lcaron" unicode="&#x13e;" horiz-adv-x="201" 
d="M83 773h35v-773h-35v773zM190 773h37l-23 -154h-27z" />
    <glyph glyph-name="Ldot" unicode="&#x13f;" horiz-adv-x="528" 
d="M94 715h36v-684h360v-31h-396v715zM432 342q-13 0 -21 8.5t-8 20.5t8 20.5t21 8.5q12 0 20 -8.5t8 -20.5t-8 -20.5t-20 -8.5z" />
    <glyph glyph-name="ldot" unicode="&#x140;" horiz-adv-x="249" 
d="M83 773h35v-773h-35v773zM224 348q-13 0 -21 8.5t-8 20.5t8 20.5t21 8.5q12 0 20 -8.5t8 -20.5t-8 -20.5t-20 -8.5z" />
    <glyph glyph-name="Lslash" unicode="&#x141;" horiz-adv-x="539" 
d="M29 294l77 28v393h36v-379l237 88v-29l-237 -88v-276h360v-31h-396v293l-77 -28v29z" />
    <glyph glyph-name="lslash" unicode="&#x142;" horiz-adv-x="216" 
d="M13 377l78 52v344h34v-321l82 55v-32l-82 -55v-420h-34v397l-78 -52v32z" />
    <glyph glyph-name="Nacute" unicode="&#x143;" horiz-adv-x="707" 
d="M94 715h51l433 -667v667h35v-715h-44l-440 678v-678h-35v715zM412 891h41l-81 -120h-29z" />
    <glyph glyph-name="nacute" unicode="&#x144;" horiz-adv-x="573" 
d="M81 523h34v-114q19 51 72 86.5t123 35.5q88 0 137.5 -51.5t49.5 -156.5v-323h-34v324q0 177 -158 177q-75 0 -132.5 -49.5t-57.5 -134.5v-317h-34v523zM334 747h41l-84 -147h-28z" />
    <glyph glyph-name="uni0145" unicode="&#x145;" horiz-adv-x="707" 
d="M94 715h51l433 -667v667h35v-715h-44l-440 678v-678h-35v715zM279 -184l58 140l34 -9l-68 -142z" />
    <glyph glyph-name="uni0146" unicode="&#x146;" horiz-adv-x="573" 
d="M81 523h34v-114q19 51 72 86.5t123 35.5q88 0 137.5 -51.5t49.5 -156.5v-323h-34v324q0 177 -158 177q-75 0 -132.5 -49.5t-57.5 -134.5v-317h-34v523zM221 -184l58 140l34 -9l-68 -142z" />
    <glyph glyph-name="Ncaron" unicode="&#x147;" horiz-adv-x="707" 
d="M94 715h51l433 -667v667h35v-715h-44l-440 678v-678h-35v715zM235 891h30l99 -91l100 91h29l-113 -120h-34z" />
    <glyph glyph-name="ncaron" unicode="&#x148;" horiz-adv-x="573" 
d="M81 523h34v-114q19 51 72 86.5t123 35.5q88 0 137.5 -51.5t49.5 -156.5v-323h-34v324q0 177 -158 177q-75 0 -132.5 -49.5t-57.5 -134.5v-317h-34v523zM158 742h30l97 -100l97 100h30l-111 -129h-34z" />
    <glyph glyph-name="napostrophe" unicode="&#x149;" horiz-adv-x="585" 
d="M92 523h34v-114q19 51 72 86.5t123 35.5q88 0 137.5 -51.5t49.5 -156.5v-323h-34v324q0 177 -158 177q-75 0 -132.5 -49.5t-57.5 -134.5v-317h-34v523zM-30 564l66 156l34 -14l-76 -153z" />
    <glyph glyph-name="Eng" unicode="&#x14a;" horiz-adv-x="707" 
d="M441 -189q-56 0 -100 21v31q46 -21 99 -21q66 0 101 35t37 115l-449 686v-678h-35v715h51l433 -662v662h35v-718q0 -95 -46 -140.5t-126 -45.5z" />
    <glyph glyph-name="eng" unicode="&#x14b;" horiz-adv-x="573" 
d="M371 -156q50 4 71 29.5t21 84.5v366q0 177 -158 177q-75 0 -132.5 -49.5t-57.5 -134.5v-317h-34v523h34v-114q19 51 72 86.5t123 35.5q88 0 137.5 -51.5t49.5 -156.5v-363q0 -75 -29.5 -108.5t-96.5 -37.5v30z" />
    <glyph glyph-name="Omacron" unicode="&#x14c;" horiz-adv-x="795" 
d="M400 24q133 0 220 95t87 237v8q0 139 -87.5 233.5t-221.5 94.5q-135 0 -222.5 -94.5t-87.5 -236.5v-8q0 -141 89 -235t223 -94zM400 -7q-149 0 -249 104.5t-100 255.5v8q0 152 100 256.5t247 104.5t246.5 -103.5t99.5 -254.5v-8q0 -152 -99 -257.5t-245 -105.5zM279 823
h236v-29h-236v29z" />
    <glyph glyph-name="omacron" unicode="&#x14d;" horiz-adv-x="583" 
d="M292 22q91 0 152.5 64.5t61.5 171.5v8q0 107 -61.5 171t-151.5 64t-153 -65t-63 -171v-8q0 -105 62 -170t153 -65zM291 -8q-104 0 -176.5 75t-72.5 190v8q0 115 73.5 190t177.5 75t176 -73.5t72 -190.5v-8q0 -116 -73 -191t-177 -75zM176 675h230v-28h-230v28z" />
    <glyph glyph-name="Obreve" unicode="&#x14e;" horiz-adv-x="795" 
d="M400 24q133 0 220 95t87 237v8q0 139 -87.5 233.5t-221.5 94.5q-135 0 -222.5 -94.5t-87.5 -236.5v-8q0 -141 89 -235t223 -94zM400 -7q-149 0 -249 104.5t-100 255.5v8q0 152 100 256.5t247 104.5t246.5 -103.5t99.5 -254.5v-8q0 -152 -99 -257.5t-245 -105.5zM396 773
q-50 0 -84.5 33t-38.5 84h30q4 -39 29.5 -63.5t63.5 -24.5q37 0 63.5 25t31.5 63h29q-4 -51 -39.5 -84t-84.5 -33z" />
    <glyph glyph-name="obreve" unicode="&#x14f;" horiz-adv-x="583" 
d="M292 22q91 0 152.5 64.5t61.5 171.5v8q0 107 -61.5 171t-151.5 64t-153 -65t-63 -171v-8q0 -105 62 -170t153 -65zM291 -8q-104 0 -176.5 75t-72.5 190v8q0 115 73.5 190t177.5 75t176 -73.5t72 -190.5v-8q0 -116 -73 -191t-177 -75zM290 614q-50 0 -81.5 31.5
t-35.5 82.5h30q4 -39 26.5 -62t60.5 -23q36 0 60 23t29 62h29q-3 -51 -36.5 -82.5t-81.5 -31.5z" />
    <glyph glyph-name="Ohungarumlaut" unicode="&#x150;" horiz-adv-x="795" 
d="M400 24q133 0 220 95t87 237v8q0 139 -87.5 233.5t-221.5 94.5q-135 0 -222.5 -94.5t-87.5 -236.5v-8q0 -141 89 -235t223 -94zM400 -7q-149 0 -249 104.5t-100 255.5v8q0 152 100 256.5t247 104.5t246.5 -103.5t99.5 -254.5v-8q0 -152 -99 -257.5t-245 -105.5zM372 891
h39l-61 -120h-28zM490 891h39l-61 -120h-28z" />
    <glyph glyph-name="ohungarumlaut" unicode="&#x151;" horiz-adv-x="583" 
d="M292 22q91 0 152.5 64.5t61.5 171.5v8q0 107 -61.5 171t-151.5 64t-153 -65t-63 -171v-8q0 -105 62 -170t153 -65zM291 -8q-104 0 -176.5 75t-72.5 190v8q0 115 73.5 190t177.5 75t176 -73.5t72 -190.5v-8q0 -116 -73 -191t-177 -75zM276 747h38l-65 -147h-28zM394 747
h38l-65 -147h-28z" />
    <glyph glyph-name="OE" unicode="&#x152;" horiz-adv-x="957" 
d="M51 359q0 156 91 256t264 100h486v-30h-356v-301h286v-31h-286v-322h374v-31h-506q-169 0 -261 97t-92 253v9zM408 685q-156 0 -238 -89.5t-82 -236.5v-8q0 -144 81.5 -232.5t239.5 -88.5h91v655h-92z" />
    <glyph glyph-name="oe" unicode="&#x153;" horiz-adv-x="1009" 
d="M291 -8q-104 0 -176.5 75t-72.5 190v8q0 115 73.5 190t177.5 75q82 0 143.5 -46t86.5 -126q23 81 81.5 127t138.5 46q99 0 161.5 -66.5t62.5 -185.5v-15h-426q1 -116 54.5 -179t154.5 -63q145 0 179 122h34q-18 -72 -74.5 -112t-138.5 -40q-89 0 -147.5 46t-80.5 127
q-24 -80 -86.5 -126.5t-144.5 -46.5zM292 22q91 0 152.5 64.5t61.5 171.5v8q0 107 -61.5 171t-151.5 64t-153 -65t-63 -171v-8q0 -105 62 -170t153 -65zM932 293q-2 101 -53 154.5t-136 53.5q-84 0 -139.5 -57t-61.5 -151h390z" />
    <glyph glyph-name="Racute" unicode="&#x154;" horiz-adv-x="593" 
d="M94 715h183q239 0 239 -187v-4q0 -86 -51 -131.5t-139 -54.5l232 -338h-41l-230 335h-158v-335h-35v715zM278 365q202 0 202 159v4q0 157 -202 157h-149v-320h149zM332 891h41l-81 -120h-29z" />
    <glyph glyph-name="racute" unicode="&#x155;" horiz-adv-x="331" 
d="M81 523h34v-120q48 121 181 125v-31q-81 -4 -131 -53t-50 -152v-292h-34v523zM233 747h41l-84 -147h-28z" />
    <glyph glyph-name="uni0156" unicode="&#x156;" horiz-adv-x="593" 
d="M94 715h183q239 0 239 -187v-4q0 -86 -51 -131.5t-139 -54.5l232 -338h-41l-230 335h-158v-335h-35v715zM278 365q202 0 202 159v4q0 157 -202 157h-149v-320h149zM235 -184l58 140l34 -9l-68 -142z" />
    <glyph glyph-name="uni0157" unicode="&#x157;" horiz-adv-x="331" 
d="M81 523h34v-120q48 121 181 125v-31q-81 -4 -131 -53t-50 -152v-292h-34v523zM31 -184l58 140l34 -9l-68 -142z" />
    <glyph glyph-name="Rcaron" unicode="&#x158;" horiz-adv-x="593" 
d="M94 715h183q239 0 239 -187v-4q0 -86 -51 -131.5t-139 -54.5l232 -338h-41l-230 335h-158v-335h-35v715zM278 365q202 0 202 159v4q0 157 -202 157h-149v-320h149zM155 891h30l99 -91l100 91h29l-113 -120h-34z" />
    <glyph glyph-name="rcaron" unicode="&#x159;" horiz-adv-x="331" 
d="M81 523h34v-120q48 121 181 125v-31q-81 -4 -131 -53t-50 -152v-292h-34v523zM57 742h30l97 -100l97 100h30l-111 -129h-34z" />
    <glyph glyph-name="Sacute" unicode="&#x15a;" horiz-adv-x="586" 
d="M299 -7q-119 0 -183 56t-77 148h35q11 -77 65 -125t160 -48q92 0 145.5 46.5t53.5 118.5q0 81 -44.5 116t-158.5 52q-120 17 -173.5 60.5t-53.5 122.5q0 83 61 132.5t161 49.5q95 0 151 -44t69 -125h-34q-27 139 -186 139q-88 0 -137.5 -39t-49.5 -111q0 -65 44 -101
t153 -51q127 -19 180.5 -61t53.5 -139q0 -84 -64 -140.5t-171 -56.5zM337 891h41l-81 -120h-29z" />
    <glyph glyph-name="sacute" unicode="&#x15b;" horiz-adv-x="456" 
d="M235 -9q-89 0 -141 44.5t-58 118.5h33q9 -61 50 -97.5t116 -36.5q69 0 107 32t38 84q0 55 -31 78t-115 40q-97 17 -138.5 47t-41.5 95q0 60 49.5 97t121.5 37q156 0 177 -136h-33q-21 107 -145 107q-62 0 -100 -28.5t-38 -76.5q0 -49 34.5 -73t121.5 -39
q94 -18 133 -47.5t39 -98.5q0 -63 -48.5 -105t-130.5 -42zM278 747h41l-84 -147h-28z" />
    <glyph glyph-name="Scircumflex" unicode="&#x15c;" horiz-adv-x="586" 
d="M299 -7q-119 0 -183 56t-77 148h35q11 -77 65 -125t160 -48q92 0 145.5 46.5t53.5 118.5q0 81 -44.5 116t-158.5 52q-120 17 -173.5 60.5t-53.5 122.5q0 83 61 132.5t161 49.5q95 0 151 -44t69 -125h-34q-27 139 -186 139q-88 0 -137.5 -39t-49.5 -111q0 -65 44 -101
t153 -51q127 -19 180.5 -61t53.5 -139q0 -84 -64 -140.5t-171 -56.5zM274 891h34l110 -120h-30l-97 90l-99 -90h-30z" />
    <glyph glyph-name="scircumflex" unicode="&#x15d;" horiz-adv-x="456" 
d="M235 -9q-89 0 -141 44.5t-58 118.5h33q9 -61 50 -97.5t116 -36.5q69 0 107 32t38 84q0 55 -31 78t-115 40q-97 17 -138.5 47t-41.5 95q0 60 49.5 97t121.5 37q156 0 177 -136h-33q-21 107 -145 107q-62 0 -100 -28.5t-38 -76.5q0 -49 34.5 -73t121.5 -39
q94 -18 133 -47.5t39 -98.5q0 -63 -48.5 -105t-130.5 -42zM213 729h34l109 -129h-30l-96 100l-98 -100h-30z" />
    <glyph glyph-name="uni015E" unicode="&#x15e;" horiz-adv-x="586" 
d="M269 -211q-39 0 -63.5 20t-28.5 55h32q7 -47 59 -47q26 0 41 13.5t15 35.5q0 45 -52 45q-16 0 -39 -10l-20 18l43 76q-99 9 -153 64t-64 138h35q11 -77 65 -125t160 -48q92 0 145.5 46.5t53.5 118.5q0 81 -44.5 116t-158.5 52q-120 17 -173.5 60.5t-53.5 122.5
q0 83 61 132.5t161 49.5q95 0 151 -44t69 -125h-34q-27 139 -186 139q-88 0 -137.5 -39t-49.5 -111q0 -65 44 -101t153 -51q127 -19 180.5 -61t53.5 -139q0 -84 -64 -140.5t-171 -56.5h-12l-34 -60q40 13 72 -5.5t32 -62.5q0 -36 -24.5 -56t-63.5 -20z" />
    <glyph glyph-name="uni015F" unicode="&#x15f;" horiz-adv-x="456" 
d="M212 -211q-39 0 -63.5 20t-28.5 55h32q7 -47 59 -47q26 0 41 13.5t15 35.5q0 45 -52 45q-16 0 -39 -10l-20 18l42 74q-73 9 -115 51.5t-47 109.5h33q9 -61 50 -97.5t116 -36.5q69 0 107 32t38 84q0 55 -31 78t-115 40q-97 17 -138.5 47t-41.5 95q0 60 49.5 97t121.5 37
q156 0 177 -136h-33q-21 107 -145 107q-62 0 -100 -28.5t-38 -76.5q0 -49 34.5 -73t121.5 -39q94 -18 133 -47.5t39 -98.5q0 -63 -48.5 -105t-130.5 -42h-6l-33 -58q40 13 72 -5.5t32 -62.5q0 -36 -24.5 -56t-63.5 -20z" />
    <glyph glyph-name="Scaron" unicode="&#x160;" horiz-adv-x="586" 
d="M299 -7q-119 0 -183 56t-77 148h35q11 -77 65 -125t160 -48q92 0 145.5 46.5t53.5 118.5q0 81 -44.5 116t-158.5 52q-120 17 -173.5 60.5t-53.5 122.5q0 83 61 132.5t161 49.5q95 0 151 -44t69 -125h-34q-27 139 -186 139q-88 0 -137.5 -39t-49.5 -111q0 -65 44 -101
t153 -51q127 -19 180.5 -61t53.5 -139q0 -84 -64 -140.5t-171 -56.5zM158 891h30l99 -91l100 91h29l-113 -120h-34z" />
    <glyph glyph-name="scaron" unicode="&#x161;" horiz-adv-x="456" 
d="M235 -9q-89 0 -141 44.5t-58 118.5h33q9 -61 50 -97.5t116 -36.5q69 0 107 32t38 84q0 55 -31 78t-115 40q-97 17 -138.5 47t-41.5 95q0 60 49.5 97t121.5 37q156 0 177 -136h-33q-21 107 -145 107q-62 0 -100 -28.5t-38 -76.5q0 -49 34.5 -73t121.5 -39
q94 -18 133 -47.5t39 -98.5q0 -63 -48.5 -105t-130.5 -42zM102 742h30l97 -100l97 100h30l-111 -129h-34z" />
    <glyph glyph-name="Tcommaaccent" unicode="&#x162;" horiz-adv-x="558" 
d="M261 685h-230v30h497v-30h-231v-685h-36v685zM214 -184l58 140l34 -9l-68 -142z" />
    <glyph glyph-name="tcommaaccent" unicode="&#x163;" horiz-adv-x="328" 
d="M221 -7q-57 0 -88 33t-31 97v371h-79v29h79v119h34v-119h146v-29h-146v-369q0 -102 87 -102q36 0 66 11v-30q-27 -11 -68 -11zM114 -184l58 140l34 -9l-68 -142z" />
    <glyph glyph-name="Tcaron" unicode="&#x164;" horiz-adv-x="558" 
d="M261 685h-230v30h497v-30h-231v-685h-36v685zM149 891h30l99 -91l100 91h29l-113 -120h-34z" />
    <glyph glyph-name="tcaron" unicode="&#x165;" horiz-adv-x="328" 
d="M221 -7q-57 0 -88 33t-31 97v371h-79v29h79v119h34v-119h146v-29h-146v-369q0 -102 87 -102q36 0 66 11v-30q-27 -11 -68 -11zM249 773h37l-23 -154h-27z" />
    <glyph glyph-name="Tbar" unicode="&#x166;" horiz-adv-x="558" 
d="M105 410h156v275h-230v30h497v-30h-231v-275h157v-28h-157v-382h-36v382h-156v28z" />
    <glyph glyph-name="tbar" unicode="&#x167;" horiz-adv-x="328" 
d="M23 342h79v152h-79v29h79v119h34v-119h146v-29h-146v-152h146v-27h-146v-190q0 -102 87 -102q36 0 66 11v-30q-27 -11 -68 -11q-57 0 -88 33t-31 97v192h-79v27z" />
    <glyph glyph-name="Utilde" unicode="&#x168;" horiz-adv-x="674" 
d="M336 -5q-121 0 -188.5 66.5t-67.5 191.5v462h36v-459q0 -115 56.5 -172.5t163.5 -57.5q115 0 168 59t53 184v446h36v-451q0 -129 -64 -199t-193 -70zM403 773q-27 0 -70.5 30t-61.5 30q-43 0 -51 -59h-27q5 44 26 66.5t52 22.5q26 0 70 -30t62 -30q42 0 50 59h27
q-5 -44 -26 -66.5t-51 -22.5z" />
    <glyph glyph-name="utilde" unicode="&#x169;" horiz-adv-x="569" 
d="M262 -8q-186 0 -186 201v330h34v-329q0 -171 157 -171q75 0 131 48t56 133v319h34v-523h-34v112q-19 -51 -70.5 -85.5t-121.5 -34.5zM352 615q-28 0 -71.5 29t-61.5 29t-32 -15t-18 -43h-27q5 44 26 66t52 22q25 0 69.5 -29.5t63.5 -29.5q18 0 31.5 15.5t17.5 43.5h27
q-5 -43 -26 -65.5t-51 -22.5z" />
    <glyph glyph-name="Umacron" unicode="&#x16a;" horiz-adv-x="674" 
d="M336 -5q-121 0 -188.5 66.5t-67.5 191.5v462h36v-459q0 -115 56.5 -172.5t163.5 -57.5q115 0 168 59t53 184v446h36v-451q0 -129 -64 -199t-193 -70zM218 823h236v-29h-236v29z" />
    <glyph glyph-name="umacron" unicode="&#x16b;" horiz-adv-x="569" 
d="M262 -8q-186 0 -186 201v330h34v-329q0 -171 157 -171q75 0 131 48t56 133v319h34v-523h-34v112q-19 -51 -70.5 -85.5t-121.5 -34.5zM170 675h230v-28h-230v28z" />
    <glyph glyph-name="Ubreve" unicode="&#x16c;" horiz-adv-x="674" 
d="M336 -5q-121 0 -188.5 66.5t-67.5 191.5v462h36v-459q0 -115 56.5 -172.5t163.5 -57.5q115 0 168 59t53 184v446h36v-451q0 -129 -64 -199t-193 -70zM336 773q-50 0 -84.5 33t-38.5 84h30q4 -39 29.5 -63.5t63.5 -24.5q37 0 63.5 25t31.5 63h29q-4 -51 -39.5 -84
t-84.5 -33z" />
    <glyph glyph-name="ubreve" unicode="&#x16d;" horiz-adv-x="569" 
d="M262 -8q-186 0 -186 201v330h34v-329q0 -171 157 -171q75 0 131 48t56 133v319h34v-523h-34v112q-19 -51 -70.5 -85.5t-121.5 -34.5zM284 614q-50 0 -81.5 31.5t-35.5 82.5h30q4 -39 26.5 -62t60.5 -23q36 0 60 23t29 62h29q-3 -51 -36.5 -82.5t-81.5 -31.5z" />
    <glyph glyph-name="Uring" unicode="&#x16e;" horiz-adv-x="674" 
d="M336 -5q-121 0 -188.5 66.5t-67.5 191.5v462h36v-459q0 -115 56.5 -172.5t163.5 -57.5q115 0 168 59t53 184v446h36v-451q0 -129 -64 -199t-193 -70zM336 747q29 0 48 19.5t19 47.5q0 29 -19 48.5t-48 19.5q-27 0 -46.5 -19.5t-19.5 -48.5q0 -28 19.5 -47.5t46.5 -19.5z
M336 725q-37 0 -64.5 26.5t-27.5 62.5q0 38 27 64.5t65 26.5q39 0 66 -26.5t27 -64.5q0 -36 -27 -62.5t-66 -26.5z" />
    <glyph glyph-name="uring" unicode="&#x16f;" horiz-adv-x="569" 
d="M262 -8q-186 0 -186 201v330h34v-329q0 -171 157 -171q75 0 131 48t56 133v319h34v-523h-34v112q-19 -51 -70.5 -85.5t-121.5 -34.5zM284 618q29 0 48 19.5t19 47.5q0 29 -19 48.5t-48 19.5q-27 0 -46.5 -19.5t-19.5 -48.5q0 -28 19.5 -47.5t46.5 -19.5zM284 596
q-37 0 -64.5 26.5t-27.5 62.5q0 38 27 64.5t65 26.5q39 0 66 -26.5t27 -64.5q0 -36 -27 -62.5t-66 -26.5z" />
    <glyph glyph-name="Uhungarumlaut" unicode="&#x170;" horiz-adv-x="674" 
d="M336 -5q-121 0 -188.5 66.5t-67.5 191.5v462h36v-459q0 -115 56.5 -172.5t163.5 -57.5q115 0 168 59t53 184v446h36v-451q0 -129 -64 -199t-193 -70zM311 891h39l-61 -120h-28zM429 891h39l-61 -120h-28z" />
    <glyph glyph-name="uhungarumlaut" unicode="&#x171;" horiz-adv-x="569" 
d="M262 -8q-186 0 -186 201v330h34v-329q0 -171 157 -171q75 0 131 48t56 133v319h34v-523h-34v112q-19 -51 -70.5 -85.5t-121.5 -34.5zM269 747h38l-65 -147h-28zM387 747h38l-65 -147h-28z" />
    <glyph glyph-name="Uogonek" unicode="&#x172;" horiz-adv-x="674" 
d="M380 -182q-41 0 -64 20t-23 52q0 31 21 59t55 47q-9 -1 -33 -1q-121 0 -188.5 66.5t-67.5 191.5v462h36v-459q0 -115 56.5 -172.5t163.5 -57.5q115 0 168 59t53 184v446h36v-451q0 -195 -136 -248q-62 -25 -96 -53t-34 -69q0 -48 56 -48q25 0 49 9v-27q-21 -10 -52 -10z
" />
    <glyph glyph-name="uogonek" unicode="&#x173;" horiz-adv-x="569" 
d="M461 -182q-41 0 -64 20t-23 52q0 63 82 114h-2v108q-19 -51 -70.5 -85.5t-121.5 -34.5q-186 0 -186 201v330h34v-329q0 -171 157 -171q75 0 131 48t56 133v319h34v-522q-81 -55 -81 -107q0 -22 14.5 -35.5t42.5 -13.5q25 0 49 9v-26q-21 -10 -52 -10z" />
    <glyph glyph-name="Wcircumflex" unicode="&#x174;" horiz-adv-x="915" 
d="M32 715h36l176 -663l202 663h25l191 -665l188 665h33l-203 -715h-38l-184 648l-198 -648h-37zM441 891h34l110 -120h-30l-97 90l-99 -90h-30z" />
    <glyph glyph-name="wcircumflex" unicode="&#x175;" horiz-adv-x="765" 
d="M30 523h36l151 -482l153 482h29l149 -482l153 482h34l-166 -523h-41l-144 466l-149 -466h-41zM367 729h34l109 -129h-30l-96 100l-98 -100h-30z" />
    <glyph glyph-name="Ycircumflex" unicode="&#x176;" horiz-adv-x="565" 
d="M272 322l-250 393h41l228 -362l215 362h37l-235 -393v-322h-36v322zM271 891h34l110 -120h-30l-97 90l-99 -90h-30z" />
    <glyph glyph-name="ycircumflex" unicode="&#x177;" horiz-adv-x="495" 
d="M234 40l-208 483h36l190 -444l181 444h36l-292 -705h-35zM233 729h34l109 -129h-30l-96 100l-98 -100h-30z" />
    <glyph glyph-name="Ydieresis" unicode="&#x178;" horiz-adv-x="565" 
d="M272 322l-250 393h41l228 -362l215 362h37l-235 -393v-322h-36v322zM204 788q-11 0 -18.5 7.5t-7.5 18.5t7.5 18.5t18.5 7.5t18.5 -7.5t7.5 -18.5t-7.5 -18.5t-18.5 -7.5zM370 788q-11 0 -18.5 7.5t-7.5 18.5t7.5 18.5t18.5 7.5t18.5 -7.5t7.5 -18.5t-7.5 -18.5
t-18.5 -7.5z" />
    <glyph glyph-name="Zacute" unicode="&#x179;" horiz-adv-x="582" 
d="M27 9l466 676h-430v30h482v-8l-464 -676h458v-31h-512v9zM346 891h41l-81 -120h-29z" />
    <glyph glyph-name="zacute" unicode="&#x17a;" horiz-adv-x="468" 
d="M26 7l359 487h-329v29h383v-7l-357 -486h350v-30h-406v7zM293 747h41l-84 -147h-28z" />
    <glyph glyph-name="Zdotaccent" unicode="&#x17b;" horiz-adv-x="582" 
d="M27 9l466 676h-430v30h482v-8l-464 -676h458v-31h-512v9zM298 787q-11 0 -18.5 8t-7.5 19t7.5 18.5t18.5 7.5t19 -7.5t8 -18.5t-8 -19t-19 -8z" />
    <glyph glyph-name="zdotaccent" unicode="&#x17c;" horiz-adv-x="468" 
d="M26 7l359 487h-329v29h383v-7l-357 -486h350v-30h-406v7zM244 637q-11 0 -18.5 8t-7.5 19t7.5 18.5t18.5 7.5t19 -7.5t8 -18.5t-8 -19t-19 -8z" />
    <glyph glyph-name="Zcaron" unicode="&#x17d;" horiz-adv-x="582" 
d="M27 9l466 676h-430v30h482v-8l-464 -676h458v-31h-512v9zM169 891h30l99 -91l100 91h29l-113 -120h-34z" />
    <glyph glyph-name="zcaron" unicode="&#x17e;" horiz-adv-x="468" 
d="M26 7l359 487h-329v29h383v-7l-357 -486h350v-30h-406v7zM117 742h30l97 -100l97 100h30l-111 -129h-34z" />
    <glyph glyph-name="uni0192" unicode="&#x192;" horiz-adv-x="376" 
d="M30 397h92l26 170q26 157 157 157q38 0 68 -11v-30q-36 12 -68 12q-50 0 -81 -30t-42 -99l-26 -169h153v-29h-158l-83 -550h-34l83 550h-87v29z" />
    <glyph glyph-name="Aringacute" unicode="&#x1fa;" horiz-adv-x="641" 
d="M296 715h48l266 -715h-36l-85 228h-339l-84 -228h-34zM161 258h317l-159 428zM316 772q29 0 48 19.5t19 47.5q0 29 -19 48.5t-48 19.5q-27 0 -46.5 -19.5t-19.5 -48.5q0 -28 19.5 -47.5t46.5 -19.5zM316 750q-37 0 -64.5 26.5t-27.5 62.5q0 38 27 64.5t65 26.5
q39 0 66 -26.5t27 -64.5q0 -36 -27 -62.5t-66 -26.5zM365 1079h41l-81 -120h-29z" />
    <glyph glyph-name="aringacute" unicode="&#x1fb;" horiz-adv-x="521" 
d="M225 -8q-83 0 -131 38t-48 109q0 157 235 157h130v51q0 81 -35 117.5t-111 36.5q-141 0 -162 -121h-34q9 74 64.5 112.5t132.5 38.5q179 0 179 -184v-347h-34v89q-58 -97 -186 -97zM227 21q75 0 129.5 40.5t54.5 98.5v108h-130q-94 0 -147.5 -28t-53.5 -101
q0 -57 37.5 -87.5t109.5 -30.5zM267 620q29 0 48 19.5t19 47.5q0 29 -19 48.5t-48 19.5q-27 0 -46.5 -19.5t-19.5 -48.5q0 -28 19.5 -47.5t46.5 -19.5zM267 598q-37 0 -64.5 26.5t-27.5 62.5q0 38 27 64.5t65 26.5q39 0 66 -26.5t27 -64.5q0 -36 -27 -62.5t-66 -26.5z
M317 950h41l-81 -120h-29z" />
    <glyph glyph-name="AEacute" unicode="&#x1fc;" horiz-adv-x="943" 
d="M387 715h491v-30h-371v-301h301v-31h-301v-322h389v-31h-425v228h-291l-114 -228h-38zM195 258h276v427h-63zM655 891h41l-81 -120h-29z" />
    <glyph glyph-name="aeacute" unicode="&#x1fd;" horiz-adv-x="909" 
d="M652 -8q-81 0 -136.5 39t-80.5 110q-17 -70 -75 -109.5t-134 -39.5q-83 0 -131.5 38t-48.5 108q0 154 232 154h136v54q0 80 -36 117.5t-112 37.5q-66 0 -109 -30t-54 -91h-34q9 73 65 112t133 39q152 0 174 -137q27 65 80.5 101t123.5 36q99 0 160.5 -66t61.5 -186v-15
h-419q1 -116 53 -179t151 -63q143 0 177 122h34q-18 -72 -74 -112t-137 -40zM228 21q77 0 131.5 44t54.5 115v84h-135q-95 0 -147 -27t-52 -99q0 -117 148 -117zM832 292q-2 102 -52 155.5t-135 53.5q-83 0 -137 -57t-60 -152h384zM508 747h41l-84 -147h-28z" />
    <glyph glyph-name="Oslashacute" unicode="&#x1fe;" horiz-adv-x="795" 
d="M45 2l96 106q-90 101 -90 245v8q0 152 100 256.5t247 104.5q127 0 223 -82l88 98l22 -22l-87 -97q100 -102 100 -255v-8q0 -152 -99 -257.5t-245 -105.5q-142 0 -238 93l-95 -106zM400 24q133 0 220 95t87 237v8q0 139 -85 232l-438 -486q88 -86 216 -86zM88 353
q0 -129 75 -220l437 484q-85 75 -202 75q-135 0 -222.5 -94.5t-87.5 -236.5v-8zM445 891h41l-81 -120h-29z" />
    <glyph glyph-name="oslashacute" unicode="&#x1ff;" horiz-adv-x="583" 
d="M36 0l69 77q-63 76 -63 180v8q0 115 73.5 190t177.5 75q96 0 162 -60l63 70l22 -19l-64 -72q65 -73 65 -183v-8q0 -116 -73 -191t-177 -75q-97 0 -166 64l-67 -75zM292 22q91 0 152.5 64.5t61.5 171.5v8q0 96 -52 159l-308 -345q61 -58 146 -58zM77 257q0 -91 50 -156
l307 345q-60 55 -141 55q-90 0 -153 -65t-63 -171v-8zM340 747h41l-84 -147h-28z" />
    <glyph glyph-name="uni0218" unicode="&#x218;" horiz-adv-x="586" 
d="M299 -7q-119 0 -183 56t-77 148h35q11 -77 65 -125t160 -48q92 0 145.5 46.5t53.5 118.5q0 81 -44.5 116t-158.5 52q-120 17 -173.5 60.5t-53.5 122.5q0 83 61 132.5t161 49.5q95 0 151 -44t69 -125h-34q-27 139 -186 139q-88 0 -137.5 -39t-49.5 -111q0 -65 44 -101
t153 -51q127 -19 180.5 -61t53.5 -139q0 -84 -64 -140.5t-171 -56.5zM222 -184l58 140l34 -9l-68 -142z" />
    <glyph glyph-name="uni0219" unicode="&#x219;" horiz-adv-x="456" 
d="M235 -9q-89 0 -141 44.5t-58 118.5h33q9 -61 50 -97.5t116 -36.5q69 0 107 32t38 84q0 55 -31 78t-115 40q-97 17 -138.5 47t-41.5 95q0 60 49.5 97t121.5 37q156 0 177 -136h-33q-21 107 -145 107q-62 0 -100 -28.5t-38 -76.5q0 -49 34.5 -73t121.5 -39
q94 -18 133 -47.5t39 -98.5q0 -63 -48.5 -105t-130.5 -42zM165 -184l58 140l34 -9l-68 -142z" />
    <glyph glyph-name="uni021A" unicode="&#x21a;" horiz-adv-x="558" 
d="M261 685h-230v30h497v-30h-231v-685h-36v685zM214 -184l58 140l34 -9l-68 -142z" />
    <glyph glyph-name="uni021B" unicode="&#x21b;" horiz-adv-x="328" 
d="M221 -7q-57 0 -88 33t-31 97v371h-79v29h79v119h34v-119h146v-29h-146v-369q0 -102 87 -102q36 0 66 11v-30q-27 -11 -68 -11zM114 -184l58 140l34 -9l-68 -142z" />
    <glyph glyph-name="uni0237" unicode="&#x237;" horiz-adv-x="200" 
d="M6 -156q44 4 60.5 25.5t16.5 70.5v583h34v-581q0 -65 -25 -95.5t-86 -32.5v30z" />
    <glyph glyph-name="uni02BC" unicode="&#x2bc;" horiz-adv-x="188" 
d="M45 564l66 156l34 -14l-76 -153z" />
    <glyph glyph-name="circumflex" unicode="&#x2c6;" horiz-adv-x="400" 
d="M184 729h34l109 -129h-30l-96 100l-98 -100h-30z" />
    <glyph glyph-name="caron" unicode="&#x2c7;" horiz-adv-x="400" 
d="M73 742h30l97 -100l97 100h30l-111 -129h-34z" />
    <glyph glyph-name="breve" unicode="&#x2d8;" horiz-adv-x="400" 
d="M200 614q-50 0 -81.5 31.5t-35.5 82.5h30q4 -39 26.5 -62t60.5 -23q36 0 60 23t29 62h29q-3 -51 -36.5 -82.5t-81.5 -31.5z" />
    <glyph glyph-name="dotaccent" unicode="&#x2d9;" horiz-adv-x="400" 
d="M200 637q-11 0 -18.5 8t-7.5 19t7.5 18.5t18.5 7.5t19 -7.5t8 -18.5t-8 -19t-19 -8z" />
    <glyph glyph-name="ring" unicode="&#x2da;" horiz-adv-x="400" 
d="M200 625q29 0 48 19.5t19 47.5q0 29 -19 48.5t-48 19.5q-27 0 -46.5 -19.5t-19.5 -48.5q0 -28 19.5 -47.5t46.5 -19.5zM200 603q-37 0 -64.5 26.5t-27.5 62.5q0 38 27 64.5t65 26.5q39 0 66 -26.5t27 -64.5q0 -36 -27 -62.5t-66 -26.5z" />
    <glyph glyph-name="ogonek" unicode="&#x2db;" horiz-adv-x="400" 
d="M213 -182q-41 0 -63.5 20t-22.5 52q0 61 80 110h34q-41 -28 -61 -53t-20 -53q0 -22 14.5 -35.5t42.5 -13.5q25 0 49 9v-26q-21 -10 -53 -10z" />
    <glyph glyph-name="tilde" unicode="&#x2dc;" horiz-adv-x="400" 
d="M270 615q-28 0 -71.5 29t-61.5 29t-32 -15t-18 -43h-27q5 44 26 66t52 22q25 0 69.5 -29.5t63.5 -29.5q18 0 31.5 15.5t17.5 43.5h27q-5 -43 -26 -65.5t-51 -22.5z" />
    <glyph glyph-name="hungarumlaut" unicode="&#x2dd;" horiz-adv-x="400" 
d="M177 747h38l-65 -147h-28zM295 747h38l-65 -147h-28z" />
    <glyph glyph-name="uni037E" unicode="&#x37e;" horiz-adv-x="202" 
d="M25 -101l65 160l35 -15l-75 -157zM103 337q-12 0 -20 8.5t-8 20.5t8 20.5t20 8.5q13 0 21 -8.5t8 -20.5t-8 -20.5t-21 -8.5z" />
    <glyph glyph-name="tonos" unicode="&#x384;" horiz-adv-x="400" 
d="M255 747h41l-84 -147h-28z" />
    <glyph glyph-name="dieresistonos" unicode="&#x385;" horiz-adv-x="400" 
d="M221 785h39l-55 -147h-28zM296 638q-11 0 -18.5 7.5t-7.5 18.5t7.5 18.5t18.5 7.5t18.5 -7.5t7.5 -18.5t-7.5 -18.5t-18.5 -7.5zM104 638q-11 0 -18.5 7.5t-7.5 18.5t7.5 18.5t18.5 7.5t18.5 -7.5t7.5 -18.5t-7.5 -18.5t-18.5 -7.5z" />
    <glyph glyph-name="Alphatonos" unicode="&#x386;" horiz-adv-x="641" 
d="M296 715h48l266 -715h-36l-85 228h-339l-84 -228h-34zM161 258h317l-159 428zM105 715h41l-84 -147h-28z" />
    <glyph glyph-name="anoteleia" unicode="&#x387;" horiz-adv-x="195" 
d="M98 293q-13 0 -21 8.5t-8 20.5t8 20.5t21 8.5q12 0 20 -8.5t8 -20.5t-8 -20.5t-20 -8.5z" />
    <glyph glyph-name="Epsilontonos" unicode="&#x388;" horiz-adv-x="566" 
d="M94 715h406v-30h-370v-301h301v-31h-301v-322h388v-31h-424v715zM-25 715h41l-84 -147h-28z" />
    <glyph glyph-name="Etatonos" unicode="&#x389;" horiz-adv-x="709" 
d="M94 715h36v-339h449v339h36v-715h-36v345h-449v-345h-36v715zM-25 715h41l-84 -147h-28z" />
    <glyph glyph-name="Iotatonos" unicode="&#x38a;" horiz-adv-x="234" 
d="M99 715h36v-715h-36v715zM-25 715h41l-84 -147h-28z" />
    <glyph glyph-name="Omicrontonos" unicode="&#x38c;" horiz-adv-x="795" 
d="M400 24q133 0 220 95t87 237v8q0 139 -87.5 233.5t-221.5 94.5q-135 0 -222.5 -94.5t-87.5 -236.5v-8q0 -141 89 -235t223 -94zM400 -7q-149 0 -249 104.5t-100 255.5v8q0 152 100 256.5t247 104.5t246.5 -103.5t99.5 -254.5v-8q0 -152 -99 -257.5t-245 -105.5zM38 715
h41l-84 -147h-28z" />
    <glyph glyph-name="Upsilontonos" unicode="&#x38e;" horiz-adv-x="565" 
d="M272 322l-250 393h41l228 -362l215 362h37l-235 -393v-322h-36v322zM-57 715h41l-84 -147h-28z" />
    <glyph glyph-name="Omegatonos" unicode="&#x38f;" horiz-adv-x="797" 
d="M88 357q0 -229 223 -337v-20h-258v30h191q-82 43 -137.5 125.5t-55.5 201.5v8q0 142 97.5 249.5t250.5 107.5t250 -106.5t97 -248.5v-8q0 -121 -55 -203t-138 -126h191v-30h-258v20q223 100 223 339v8q0 130 -84.5 227.5t-225.5 97.5q-95 0 -167.5 -48t-108 -121.5
t-35.5 -157.5v-8zM38 715h41l-84 -147h-28z" />
    <glyph glyph-name="iotadieresistonos" unicode="&#x390;" horiz-adv-x="200" 
d="M83 523h34v-523h-34v523zM130 785h39l-55 -147h-28zM205 638q-11 0 -18.5 7.5t-7.5 18.5t7.5 18.5t18.5 7.5t18.5 -7.5t7.5 -18.5t-7.5 -18.5t-18.5 -7.5zM13 638q-11 0 -18.5 7.5t-7.5 18.5t7.5 18.5t18.5 7.5t18.5 -7.5t7.5 -18.5t-7.5 -18.5t-18.5 -7.5z" />
    <glyph glyph-name="Alpha" unicode="&#x391;" horiz-adv-x="641" 
d="M296 715h48l266 -715h-36l-85 228h-339l-84 -228h-34zM161 258h317l-159 428z" />
    <glyph glyph-name="Beta" unicode="&#x392;" horiz-adv-x="592" 
d="M94 715h195q96 0 152 -44.5t56 -134.5v-4q0 -126 -131 -157q167 -26 167 -176v-4q0 -95 -56.5 -145t-157.5 -50h-225v715zM318 30q89 0 134.5 42t45.5 123v4q0 159 -203 159h-166v-328h189zM291 387q83 0 126.5 38t43.5 108v4q0 74 -45 111t-128 37h-159v-298h162z" />
    <glyph glyph-name="Gamma" unicode="&#x393;" horiz-adv-x="522" 
d="M94 715h398v-30h-362v-685h-36v715z" />
    <glyph glyph-name="uni0394" unicode="&#x394;" horiz-adv-x="643" 
d="M35 9l260 706h51l262 -706v-9h-573v9zM76 31h488l-244 658z" />
    <glyph glyph-name="Epsilon" unicode="&#x395;" horiz-adv-x="566" 
d="M94 715h406v-30h-370v-301h301v-31h-301v-322h388v-31h-424v715z" />
    <glyph glyph-name="Zeta" unicode="&#x396;" horiz-adv-x="582" 
d="M27 9l466 676h-430v30h482v-8l-464 -676h458v-31h-512v9z" />
    <glyph glyph-name="Eta" unicode="&#x397;" horiz-adv-x="709" 
d="M94 715h36v-339h449v339h36v-715h-36v345h-449v-345h-36v715z" />
    <glyph glyph-name="Theta" unicode="&#x398;" horiz-adv-x="795" 
d="M400 -7q-149 0 -249 104.5t-100 255.5v8q0 152 100 256.5t247 104.5t246.5 -103.5t99.5 -254.5v-8q0 -152 -99 -257.5t-245 -105.5zM400 24q133 0 220 95t87 237v8q0 139 -87.5 233.5t-221.5 94.5q-135 0 -222.5 -94.5t-87.5 -236.5v-8q0 -141 89 -235t223 -94zM246 379
h304v-31h-304v31z" />
    <glyph glyph-name="Iota" unicode="&#x399;" horiz-adv-x="234" 
d="M99 715h36v-715h-36v715z" />
    <glyph glyph-name="Kappa" unicode="&#x39a;" horiz-adv-x="588" 
d="M135 364l365 351h42l-363 -348l381 -367h-45zM94 715h36v-715h-36v715z" />
    <glyph glyph-name="Lambda" unicode="&#x39b;" horiz-adv-x="629" 
d="M604 0h-36l-250 678l-249 -678h-34l262 715h43z" />
    <glyph glyph-name="Mu" unicode="&#x39c;" horiz-adv-x="849" 
d="M94 715h53l272 -649l277 649h53v-715h-36v672l-288 -672h-14l-283 672v-672h-34v715z" />
    <glyph glyph-name="Nu" unicode="&#x39d;" horiz-adv-x="707" 
d="M94 715h51l433 -667v667h35v-715h-44l-440 678v-678h-35v715z" />
    <glyph glyph-name="Xi" unicode="&#x39e;" horiz-adv-x="583" 
d="M526 715v-31h-469v31h469zM467 379v-31h-351v31h351zM49 32h485v-32h-485v32z" />
    <glyph glyph-name="Omicron" unicode="&#x39f;" horiz-adv-x="795" 
d="M400 24q133 0 220 95t87 237v8q0 139 -87.5 233.5t-221.5 94.5q-135 0 -222.5 -94.5t-87.5 -236.5v-8q0 -141 89 -235t223 -94zM400 -7q-149 0 -249 104.5t-100 255.5v8q0 152 100 256.5t247 104.5t246.5 -103.5t99.5 -254.5v-8q0 -152 -99 -257.5t-245 -105.5z" />
    <glyph glyph-name="Pi" unicode="&#x3a0;" horiz-adv-x="700" 
d="M94 715h512v-715h-36v684h-440v-684h-36v715z" />
    <glyph glyph-name="Rho" unicode="&#x3a1;" horiz-adv-x="559" 
d="M94 715h180q111 0 175 -47t64 -148v-4q0 -104 -63 -152.5t-174 -48.5h-147v-315h-35v715zM277 345q200 0 200 171v4q0 165 -202 165h-146v-340h148z" />
    <glyph glyph-name="Sigma" unicode="&#x3a3;" horiz-adv-x="572" 
d="M62 684v31h445v-30h-404l246 -321l-245 -332h421v-32h-466v24l249 338z" />
    <glyph glyph-name="Tau" unicode="&#x3a4;" horiz-adv-x="558" 
d="M261 685h-230v30h497v-30h-231v-685h-36v685z" />
    <glyph glyph-name="Upsilon" unicode="&#x3a5;" horiz-adv-x="565" 
d="M272 322l-250 393h41l228 -362l215 362h37l-235 -393v-322h-36v322z" />
    <glyph glyph-name="Phi" unicode="&#x3a6;" horiz-adv-x="832" 
d="M399 52q-156 4 -252 91.5t-96 211.5v6q0 127 96 214t252 91v63h35v-63q155 -4 251 -90.5t96 -211.5v-7q0 -126 -96.5 -214.5t-250.5 -90.5v-66h-35v66zM88 356q0 -114 85.5 -191.5t225.5 -83.5v556q-142 -4 -226.5 -81.5t-84.5 -193.5v-6zM744 364q0 113 -84.5 191
t-225.5 82v-556q141 4 225.5 81.5t84.5 194.5v7z" />
    <glyph glyph-name="Chi" unicode="&#x3a7;" horiz-adv-x="638" 
d="M300 372l-230 343h40l213 -317l212 317h38l-231 -344l250 -371h-40l-233 345l-235 -345h-37z" />
    <glyph glyph-name="Psi" unicode="&#x3a8;" horiz-adv-x="747" 
d="M356 197q-137 4 -211.5 74.5t-74.5 192.5v251h36v-248q0 -112 64.5 -174.5t185.5 -66.5v489h35v-489q252 6 252 255v234h35v-241q0 -126 -71.5 -199.5t-215.5 -77.5v-197h-35v197z" />
    <glyph glyph-name="uni03A9" unicode="&#x3a9;" horiz-adv-x="797" 
d="M88 357q0 -229 223 -337v-20h-258v30h191q-82 43 -137.5 125.5t-55.5 201.5v8q0 142 97.5 249.5t250.5 107.5t250 -106.5t97 -248.5v-8q0 -121 -55 -203t-138 -126h191v-30h-258v20q223 100 223 339v8q0 130 -84.5 227.5t-225.5 97.5q-95 0 -167.5 -48t-108 -121.5
t-35.5 -157.5v-8z" />
    <glyph glyph-name="Iotadieresis" unicode="&#x3aa;" horiz-adv-x="234" 
d="M99 715h36v-715h-36v715zM34 788q-11 0 -18.5 7.5t-7.5 18.5t7.5 18.5t18.5 7.5t18.5 -7.5t7.5 -18.5t-7.5 -18.5t-18.5 -7.5zM200 788q-11 0 -18.5 7.5t-7.5 18.5t7.5 18.5t18.5 7.5t18.5 -7.5t7.5 -18.5t-7.5 -18.5t-18.5 -7.5z" />
    <glyph glyph-name="Upsilondieresis" unicode="&#x3ab;" horiz-adv-x="565" 
d="M272 322l-250 393h41l228 -362l215 362h37l-235 -393v-322h-36v322zM207 788q-11 0 -18.5 7.5t-7.5 18.5t7.5 18.5t18.5 7.5t18.5 -7.5t7.5 -18.5t-7.5 -18.5t-18.5 -7.5zM373 788q-11 0 -18.5 7.5t-7.5 18.5t7.5 18.5t18.5 7.5t18.5 -7.5t7.5 -18.5t-7.5 -18.5
t-18.5 -7.5z" />
    <glyph glyph-name="alphatonos" unicode="&#x3ac;" horiz-adv-x="593" 
d="M275 22q84 0 144 64t60 171v8q0 110 -56 173t-140 63q-87 0 -146.5 -64t-59.5 -172v-8q0 -109 56.5 -172t141.5 -63zM273 -8q-97 0 -164 71t-67 193v8q0 118 70 192.5t169 74.5q75 0 123.5 -40t73.5 -102v134h34v-523h-34v141q-20 -58 -75.5 -103.5t-129.5 -45.5z
M355 747h41l-84 -147h-28z" />
    <glyph glyph-name="epsilontonos" unicode="&#x3ad;" horiz-adv-x="532" 
d="M160 271q-45 7 -73.5 38t-28.5 74q0 66 51.5 107t157.5 41q196 0 219 -138h-34q-12 52 -52 80t-132 28q-176 0 -176 -119q0 -40 32.5 -69t87.5 -29h124v-28h-127q-62 0 -96 -33t-34 -81q0 -59 47.5 -89.5t136.5 -30.5q177 0 199 124h32q-13 -77 -72 -115.5t-158 -38.5
q-105 0 -162 38.5t-57 110.5q0 51 31.5 86t83.5 44zM333 747h41l-84 -147h-28z" />
    <glyph glyph-name="etatonos" unicode="&#x3ae;" horiz-adv-x="573" 
d="M81 523h34v-114q19 51 72 86.5t123 35.5q88 0 137.5 -51.5t49.5 -156.5v-505h-34v506q0 177 -158 177q-75 0 -132.5 -49.5t-57.5 -134.5v-317h-34v523zM331 747h41l-84 -147h-28z" />
    <glyph glyph-name="iotatonos" unicode="&#x3af;" horiz-adv-x="200" 
d="M83 523h34v-523h-34v523zM158 747h41l-84 -147h-28z" />
    <glyph glyph-name="upsilondieresistonos" unicode="&#x3b0;" horiz-adv-x="557" 
d="M278 -8q-87 0 -146.5 55.5t-59.5 158.5v317h35v-317q0 -89 48 -136t124 -47q77 0 124 45.5t47 137.5v317h35v-319q0 -103 -59.5 -157.5t-147.5 -54.5zM304 785h39l-55 -147h-28zM379 638q-11 0 -18.5 7.5t-7.5 18.5t7.5 18.5t18.5 7.5t18.5 -7.5t7.5 -18.5t-7.5 -18.5
t-18.5 -7.5zM187 638q-11 0 -18.5 7.5t-7.5 18.5t7.5 18.5t18.5 7.5t18.5 -7.5t7.5 -18.5t-7.5 -18.5t-18.5 -7.5z" />
    <glyph glyph-name="alpha" unicode="&#x3b1;" horiz-adv-x="593" 
d="M275 22q84 0 144 64t60 171v8q0 110 -56 173t-140 63q-87 0 -146.5 -64t-59.5 -172v-8q0 -109 56.5 -172t141.5 -63zM273 -8q-97 0 -164 71t-67 193v8q0 118 70 192.5t169 74.5q75 0 123.5 -40t73.5 -102v134h34v-523h-34v141q-20 -58 -75.5 -103.5t-129.5 -45.5z" />
    <glyph glyph-name="beta" unicode="&#x3b2;" horiz-adv-x="578" 
d="M275 427q89 -4 141 47t52 116v4q0 70 -45.5 111.5t-125.5 41.5q-90 0 -136 -52t-46 -142v-336q0 -83 60 -139t137 -56q80 0 135 50t55 141v8q0 85 -59.5 131.5t-167.5 44.5v30zM351 414q80 -11 133 -59.5t53 -132.5v-8q0 -103 -66 -162.5t-158 -59.5q-65 0 -118 35.5
t-80 93.5v-303h-34v735q0 102 57 162.5t160 60.5q93 0 148.5 -50.5t55.5 -131.5v-4q0 -63 -44.5 -114.5t-106.5 -61.5z" />
    <glyph glyph-name="gamma" unicode="&#x3b3;" horiz-adv-x="534" 
d="M474 523h35l-224 -515v-190h-34v190l-226 515h37l207 -474z" />
    <glyph glyph-name="delta" unicode="&#x3b4;" horiz-adv-x="581" 
d="M101 773h393v-29h-337l292 -294q90 -90 90 -195v-7q0 -107 -72 -181.5t-178 -74.5q-104 0 -175.5 73.5t-71.5 180.5v6q0 97 69.5 172t171.5 75q54 0 93 -20l-275 277v17zM504 255q0 89 -61.5 152.5t-152.5 63.5t-152 -65t-61 -153v-8q0 -94 61 -158.5t152 -64.5
q92 0 153 64.5t61 161.5v7z" />
    <glyph glyph-name="epsilon" unicode="&#x3b5;" horiz-adv-x="532" 
d="M160 271q-45 7 -73.5 38t-28.5 74q0 66 51.5 107t157.5 41q196 0 219 -138h-34q-12 52 -52 80t-132 28q-176 0 -176 -119q0 -40 32.5 -69t87.5 -29h124v-28h-127q-62 0 -96 -33t-34 -81q0 -59 47.5 -89.5t136.5 -30.5q177 0 199 124h32q-13 -77 -72 -115.5t-158 -38.5
q-105 0 -162 38.5t-57 110.5q0 51 31.5 86t83.5 44z" />
    <glyph glyph-name="zeta" unicode="&#x3b6;" horiz-adv-x="475" 
d="M270 0q-101 0 -164.5 56t-63.5 153q0 59 24 123t56.5 115t86.5 111t93 97l96 88h-324v30h389v-9q-191 -167 -288.5 -298t-97.5 -256q0 -87 53 -133.5t140 -46.5h82q112 0 112 -79q0 -36 -20 -105h-33q19 55 19 99q0 29 -18.5 42t-60.5 13h-81z" />
    <glyph glyph-name="eta" unicode="&#x3b7;" horiz-adv-x="573" 
d="M81 523h34v-114q19 51 72 86.5t123 35.5q88 0 137.5 -51.5t49.5 -156.5v-505h-34v506q0 177 -158 177q-75 0 -132.5 -49.5t-57.5 -134.5v-317h-34v523z" />
    <glyph glyph-name="theta" unicode="&#x3b8;" horiz-adv-x="596" 
d="M534 362q0 -180 -60.5 -275t-175.5 -95q-114 0 -175.5 94.5t-61.5 273.5v50q0 178 61.5 272t173.5 94t175 -94.5t63 -269.5v-50zM296 747q-97 0 -147.5 -85.5t-51.5 -247.5v-5h402v7q-1 162 -54.5 246.5t-148.5 84.5zM298 22q201 0 201 339v18h-402v-20q0 -166 51 -251.5
t150 -85.5z" />
    <glyph glyph-name="iota" unicode="&#x3b9;" horiz-adv-x="200" 
d="M83 523h34v-523h-34v523z" />
    <glyph glyph-name="kappa" unicode="&#x3ba;" horiz-adv-x="473" 
d="M405 523h42l-287 -256l295 -267h-43l-294 266zM115 0h-34v523h34v-523z" />
    <glyph glyph-name="lambda" unicode="&#x3bb;" horiz-adv-x="521" 
d="M170 692q-12 30 -25 42.5t-38 12.5q-29 0 -55 -12v30q27 11 59 11q60 0 89 -73l230 -622q20 -55 62 -55q17 0 33 6v-30q-16 -6 -36 -6q-64 0 -89 72l-150 411l-189 -479h-35l207 522z" />
    <glyph glyph-name="uni03BC" unicode="&#x3bc;" horiz-adv-x="574" 
d="M82 523h34v-338q0 -83 44.5 -122.5t120.5 -39.5q74 0 126.5 48t52.5 133v319h34v-523h-34v112q-19 -52 -67 -85.5t-116 -33.5q-124 0 -161 93v-268h-34v705z" />
    <glyph glyph-name="nu" unicode="&#x3bd;" horiz-adv-x="508" 
d="M26 523h37l193 -490l191 490h35l-204 -523h-46z" />
    <glyph glyph-name="xi" unicode="&#x3be;" horiz-adv-x="496" 
d="M362 30q112 0 112 -79q0 -49 -20 -105h-32q18 52 18 99q0 29 -18.5 42t-60.5 13h-70q-112 0 -180.5 55.5t-68.5 153.5q0 85 51 142t124 72q-57 17 -89.5 58.5t-32.5 97.5q0 58 40 105.5t105 59.5h-185v29h408v-29h-120q-90 0 -151.5 -44.5t-61.5 -119.5q0 -59 42 -101.5
t118 -42.5h128v-30h-131q-94 0 -152 -56t-58 -141q0 -86 58.5 -132.5t155.5 -46.5h71z" />
    <glyph glyph-name="omicron" unicode="&#x3bf;" horiz-adv-x="583" 
d="M292 22q91 0 152.5 64.5t61.5 171.5v8q0 107 -61.5 171t-151.5 64t-153 -65t-63 -171v-8q0 -105 62 -170t153 -65zM291 -8q-104 0 -176.5 75t-72.5 190v8q0 115 73.5 190t177.5 75t176 -73.5t72 -190.5v-8q0 -116 -73 -191t-177 -75z" />
    <glyph glyph-name="pi" unicode="&#x3c0;" horiz-adv-x="582" 
d="M446 494h-310v-494h-34v494h-79v29h536v-29h-79v-494h-34v494z" />
    <glyph glyph-name="rho" unicode="&#x3c1;" horiz-adv-x="582" 
d="M305 22q89 0 144.5 63.5t55.5 171.5v8q0 109 -57 172.5t-146 63.5q-90 0 -148.5 -64.5t-58.5 -171.5v-8q0 -107 60.5 -171t149.5 -64zM306 -7q-78 0 -133 43t-78 104v-322h-34v448q0 116 69 190t172 74t170.5 -73t67.5 -192v-8q0 -121 -66 -192.5t-168 -71.5z" />
    <glyph glyph-name="uni03C2" unicode="&#x3c2;" horiz-adv-x="547" 
d="M77 257q0 -102 57 -164.5t161 -62.5h50q112 0 112 -79q0 -49 -20 -105h-33q19 55 19 99q0 29 -18.5 42t-60.5 13h-50q-113 0 -182.5 69t-69.5 188v8q0 118 71.5 192t175.5 74q82 0 143 -45.5t70 -123.5h-34q-9 66 -59 102.5t-120 36.5q-90 0 -151 -64.5t-61 -171.5v-8z
" />
    <glyph glyph-name="sigma" unicode="&#x3c3;" horiz-adv-x="601" 
d="M291 -8q-104 0 -176.5 75t-72.5 190v8q0 115 72.5 186.5t178.5 71.5h278v-29h-180q68 -24 109 -84t41 -144v-8q0 -116 -73 -191t-177 -75zM292 22q91 0 152.5 64.5t61.5 171.5v8q0 106 -60.5 167t-152.5 61t-154 -62t-62 -167v-8q0 -105 62 -170t153 -65z" />
    <glyph glyph-name="tau" unicode="&#x3c4;" horiz-adv-x="448" 
d="M315 -7q-57 0 -86 35t-29 101v365h-177v29h400v-29h-189v-366q0 -105 82 -105q53 0 83 11v-30q-27 -11 -84 -11z" />
    <glyph glyph-name="upsilon" unicode="&#x3c5;" horiz-adv-x="557" 
d="M278 -8q-87 0 -146.5 55.5t-59.5 158.5v317h35v-317q0 -89 48 -136t124 -47q77 0 124 45.5t47 137.5v317h35v-319q0 -103 -59.5 -157.5t-147.5 -54.5z" />
    <glyph glyph-name="phi" unicode="&#x3c6;" horiz-adv-x="728" 
d="M686 263q0 -122 -86.5 -194.5t-219.5 -74.5v-176h-34v176q-140 6 -222 78t-82 184v8q0 108 55.5 177t140.5 86v-29q-72 -19 -116.5 -79t-44.5 -155v-8q0 -102 71 -164t198 -68v505q7 1 25 1q154 0 234.5 -70.5t80.5 -188.5v-8zM651 271q0 107 -69 168.5t-202 61.5v-477
q125 4 198 66t73 173v8z" />
    <glyph glyph-name="chi" unicode="&#x3c7;" horiz-adv-x="525" 
d="M248 178l-155 289q-18 33 -42 33q-16 0 -31 -7v29q15 7 35 7q22 0 36.5 -9.5t29.5 -37.5l147 -272l178 313h37l-198 -346l152 -281q12 -20 18 -29t16 -16t23 -7q16 0 32 6v-29q-19 -7 -36 -7q-27 0 -45 16t-38 53l-142 263l-187 -328h-37z" />
    <glyph glyph-name="psi" unicode="&#x3c8;" horiz-adv-x="720" 
d="M104 246q0 -94 59 -153.5t180 -65.5v496h34v-496q118 6 178.5 65.5t60.5 152.5v278h34v-277q0 -104 -70 -172t-203 -76v-180h-34v180q-136 8 -204.5 76t-68.5 174v275h34v-277z" />
    <glyph glyph-name="omega" unicode="&#x3c9;" horiz-adv-x="734" 
d="M384 162q0 -64 37.5 -102t91.5 -38q71 0 107.5 57t36.5 156v7q0 236 -174 259v29q209 -21 209 -288v-8q0 -107 -46 -174.5t-130 -67.5q-59 0 -97.5 31t-51.5 82q-13 -50 -51 -81.5t-97 -31.5q-85 0 -131 67t-46 176v8q0 56 11.5 103.5t35 87.5t65.5 65t98 31v-29
q-175 -24 -175 -258v-8q0 -98 37.5 -155.5t107.5 -57.5q54 0 91 38t37 102v189h34v-189z" />
    <glyph glyph-name="iotadieresis" unicode="&#x3ca;" horiz-adv-x="200" 
d="M83 523h34v-523h-34v523zM24 638q-11 0 -18.5 7.5t-7.5 18.5t7.5 18.5t18.5 7.5t18.5 -7.5t7.5 -18.5t-7.5 -18.5t-18.5 -7.5zM178 638q-11 0 -18.5 7.5t-7.5 18.5t7.5 18.5t18.5 7.5t18.5 -7.5t7.5 -18.5t-7.5 -18.5t-18.5 -7.5z" />
    <glyph glyph-name="upsilondieresis" unicode="&#x3cb;" horiz-adv-x="557" 
d="M278 -8q-87 0 -146.5 55.5t-59.5 158.5v317h35v-317q0 -89 48 -136t124 -47q77 0 124 45.5t47 137.5v317h35v-319q0 -103 -59.5 -157.5t-147.5 -54.5zM201 638q-11 0 -18.5 7.5t-7.5 18.5t7.5 18.5t18.5 7.5t18.5 -7.5t7.5 -18.5t-7.5 -18.5t-18.5 -7.5zM355 638
q-11 0 -18.5 7.5t-7.5 18.5t7.5 18.5t18.5 7.5t18.5 -7.5t7.5 -18.5t-7.5 -18.5t-18.5 -7.5z" />
    <glyph glyph-name="omicrontonos" unicode="&#x3cc;" horiz-adv-x="583" 
d="M292 22q91 0 152.5 64.5t61.5 171.5v8q0 107 -61.5 171t-151.5 64t-153 -65t-63 -171v-8q0 -105 62 -170t153 -65zM291 -8q-104 0 -176.5 75t-72.5 190v8q0 115 73.5 190t177.5 75t176 -73.5t72 -190.5v-8q0 -116 -73 -191t-177 -75zM349 747h41l-84 -147h-28z" />
    <glyph glyph-name="upsilontonos" unicode="&#x3cd;" horiz-adv-x="557" 
d="M278 -8q-87 0 -146.5 55.5t-59.5 158.5v317h35v-317q0 -89 48 -136t124 -47q77 0 124 45.5t47 137.5v317h35v-319q0 -103 -59.5 -157.5t-147.5 -54.5zM331 747h41l-84 -147h-28z" />
    <glyph glyph-name="omegatonos" unicode="&#x3ce;" horiz-adv-x="734" 
d="M384 162q0 -64 37.5 -102t91.5 -38q71 0 107.5 57t36.5 156v7q0 236 -174 259v29q209 -21 209 -288v-8q0 -107 -46 -174.5t-130 -67.5q-59 0 -97.5 31t-51.5 82q-13 -50 -51 -81.5t-97 -31.5q-85 0 -131 67t-46 176v8q0 56 11.5 103.5t35 87.5t65.5 65t98 31v-29
q-175 -24 -175 -258v-8q0 -98 37.5 -155.5t107.5 -57.5q54 0 91 38t37 102v189h34v-189zM424 747h41l-84 -147h-28z" />
    <glyph glyph-name="uni0401" unicode="&#x401;" horiz-adv-x="566" 
d="M94 715h406v-30h-370v-301h301v-31h-301v-322h388v-31h-424v715zM212 788q-11 0 -18.5 7.5t-7.5 18.5t7.5 18.5t18.5 7.5t18.5 -7.5t7.5 -18.5t-7.5 -18.5t-18.5 -7.5zM378 788q-11 0 -18.5 7.5t-7.5 18.5t7.5 18.5t18.5 7.5t18.5 -7.5t7.5 -18.5t-7.5 -18.5t-18.5 -7.5z
" />
    <glyph glyph-name="uni0402" unicode="&#x402;" horiz-adv-x="761" 
d="M297 343l6 7l13 14.5t18.5 17.5t27 18.5t34.5 16.5t44.5 12.5t53.5 4.5q105 0 159 -60.5t54 -166.5q0 -100 -46 -156t-127 -56q-53 0 -95 20v32q46 -22 92 -22q68 0 105 48t37 134q0 92 -45 144.5t-136 52.5q-23 0 -43.5 -3t-37 -9t-30.5 -13t-25.5 -15.5t-20 -16.5
t-16 -16.5t-11 -14l-7.5 -11.5l-4 -6v-299h-36v685h-230v30h514v-30h-248v-342z" />
    <glyph glyph-name="uni0403" unicode="&#x403;" horiz-adv-x="521" 
d="M94 715h389v-31h-353v-684h-36v715zM343 891h41l-81 -120h-29z" />
    <glyph glyph-name="uni0404" unicode="&#x404;" horiz-adv-x="723" 
d="M678 225q-20 -109 -100.5 -170.5t-195.5 -61.5q-150 0 -240.5 100t-90.5 260v8q0 157 96 259t235 102q112 0 190.5 -56.5t96.5 -159.5h-36q-19 90 -83 138t-168 48q-123 0 -206 -87.5t-87 -225.5h406v-31h-407q2 -148 81.5 -236t213.5 -88q103 0 172.5 53t89.5 148h33z
" />
    <glyph glyph-name="uni0405" unicode="&#x405;" horiz-adv-x="586" 
d="M299 -7q-119 0 -183 56t-77 148h35q11 -77 65 -125t160 -48q92 0 145.5 46.5t53.5 118.5q0 81 -44.5 116t-158.5 52q-120 17 -173.5 60.5t-53.5 122.5q0 83 61 132.5t161 49.5q95 0 151 -44t69 -125h-34q-27 139 -186 139q-88 0 -137.5 -39t-49.5 -111q0 -65 44 -101
t153 -51q127 -19 180.5 -61t53.5 -139q0 -84 -64 -140.5t-171 -56.5z" />
    <glyph glyph-name="uni0406" unicode="&#x406;" horiz-adv-x="234" 
d="M99 715h36v-715h-36v715z" />
    <glyph glyph-name="uni0407" unicode="&#x407;" horiz-adv-x="234" 
d="M99 715h36v-715h-36v715zM34 788q-11 0 -18.5 7.5t-7.5 18.5t7.5 18.5t18.5 7.5t18.5 -7.5t7.5 -18.5t-7.5 -18.5t-18.5 -7.5zM200 788q-11 0 -18.5 7.5t-7.5 18.5t7.5 18.5t18.5 7.5t18.5 -7.5t7.5 -18.5t-7.5 -18.5t-18.5 -7.5z" />
    <glyph glyph-name="uni0408" unicode="&#x408;" horiz-adv-x="389" 
d="M137 -5q-59 0 -101 20v32q48 -22 99 -22q137 0 137 148v542h36v-543q0 -90 -45.5 -133.5t-125.5 -43.5z" />
    <glyph glyph-name="uni0409" unicode="&#x409;" horiz-adv-x="1001" 
d="M537 684h-321q0 -234 -15 -434q-10 -138 -38 -197.5t-97 -59.5q-19 0 -32 5q-6 1 -11 5v35q8 -4 13 -5q11 -4 29 -4q49 0 71 52.5t31 174.5q7 109 14 307q2 104 2 152h390v-307h148q110 0 174.5 -49.5t64.5 -144.5v-4q0 -98 -60 -154t-158 -56h-205v684zM743 30
q87 0 134 48t47 132v4q0 80 -52 122t-149 42h-150v-348h170z" />
    <glyph glyph-name="uni040A" unicode="&#x40a;" horiz-adv-x="1025" 
d="M767 30q87 0 134 46t47 130v4q0 79 -52.5 123.5t-148.5 44.5h-150v-348h170zM562 345h-432v-345h-36v715h36v-339h432v339h35v-307h149q109 0 173.5 -51t64.5 -147v-4q0 -97 -59.5 -151.5t-158.5 -54.5h-204v345z" />
    <glyph glyph-name="uni040B" unicode="&#x40b;" horiz-adv-x="778" 
d="M297 343q17 26 43 45q62 46 149 46q112 0 160.5 -60.5t48.5 -190.5v-183h-36v185q0 114 -39.5 166.5t-135.5 52.5q-87 0 -147 -52q-28 -24 -43 -51v-301h-36v685h-230v30h514v-30h-248v-342z" />
    <glyph glyph-name="uni040C" unicode="&#x40c;" horiz-adv-x="588" 
d="M341 891h41l-81 -120h-29zM135 364l365 351h42l-363 -348l381 -367h-45zM94 715h36v-715h-36v715z" />
    <glyph glyph-name="uni040D" unicode="&#x40d;" horiz-adv-x="719" 
d="M94 0v715h36v-664l460 664h35v-715h-36v664l-460 -664h-35zM277 891h42l68 -120h-29z" />
    <glyph glyph-name="uni040E" unicode="&#x40e;" horiz-adv-x="569" 
d="M298 773q-48 0 -84 33.5t-38 83.5h31q3 -39 28 -65.5t63 -26.5t64 26.5t30 65.5h31q-4 -51 -40 -84t-85 -33zM139 -7q-22 0 -37 5q-5 1 -13 5l1 34q8 -4 13 -5q11 -4 35 -4q44 0 75 29t59 90l-242 568h38l222 -525l223 525h34l-234 -550q-37 -87 -74 -129.5t-100 -42.5z
" />
    <glyph glyph-name="uni040F" unicode="&#x40f;" horiz-adv-x="699" 
d="M94 0v715h36v-684h439v684h36v-715h-238l-2 -130h-30l-2 130h-239z" />
    <glyph glyph-name="uni0410" unicode="&#x410;" horiz-adv-x="641" 
d="M296 715h48l266 -715h-36l-85 228h-339l-84 -228h-34zM161 258h317l-159 428z" />
    <glyph glyph-name="uni0411" unicode="&#x411;" horiz-adv-x="592" 
d="M533 204q0 -96 -57 -150t-157 -54h-225v715h392v-30h-357v-280h169q110 0 172.5 -51t62.5 -146v-4zM318 30q88 0 134 46t46 128v4q0 79 -52 123t-150 44h-167v-345h189z" />
    <glyph glyph-name="uni0412" unicode="&#x412;" horiz-adv-x="592" 
d="M94 715h195q96 0 152 -44.5t56 -134.5v-4q0 -126 -131 -157q167 -26 167 -176v-4q0 -95 -56.5 -145t-157.5 -50h-225v715zM318 30q89 0 134.5 42t45.5 123v4q0 159 -203 159h-166v-328h189zM291 387q83 0 126.5 38t43.5 108v4q0 74 -45 111t-128 37h-159v-298h162z" />
    <glyph glyph-name="uni0413" unicode="&#x413;" horiz-adv-x="521" 
d="M94 715h389v-31h-353v-684h-36v715z" />
    <glyph glyph-name="uni0414" unicode="&#x414;" horiz-adv-x="693" 
d="M178 280q-20 -210 -69 -249h432v654h-339q0 -16 -2.5 -75.5t-8.5 -156t-13 -173.5zM40 -130h-30v161h51q36 15 54.5 77.5t29.5 177.5q13 150 20 292q3 46 5 137h406v-684h95v-161h-30l-3 130h-594z" />
    <glyph glyph-name="uni0415" unicode="&#x415;" horiz-adv-x="566" 
d="M94 715h406v-30h-370v-301h301v-31h-301v-322h388v-31h-424v715z" />
    <glyph glyph-name="uni0416" unicode="&#x416;" horiz-adv-x="863" 
d="M414 715h35v-715h-35v715zM794 0l-338 364l323 351h42l-326 -348l343 -367h-44zM26 0l342 365l-327 350h43l323 -352l-338 -363h-43z" />
    <glyph glyph-name="uni0417" unicode="&#x417;" horiz-adv-x="582" 
d="M285 -7q-108 0 -169 56.5t-74 147.5h36q11 -77 61.5 -125t145.5 -48q97 0 149.5 46t52.5 129q0 159 -200 159h-94v29h94q81 0 125.5 41t44.5 111q0 74 -44 113.5t-126 39.5q-154 0 -181 -139h-34q13 81 68 125t149 44q92 0 147.5 -48t55.5 -135q0 -67 -36 -109.5
t-98 -55.5q165 -23 165 -175q0 -95 -64.5 -150.5t-173.5 -55.5z" />
    <glyph glyph-name="uni0418" unicode="&#x418;" horiz-adv-x="719" 
d="M94 0v715h36v-664l460 664h35v-715h-36v664l-460 -664h-35z" />
    <glyph glyph-name="uni0419" unicode="&#x419;" horiz-adv-x="719" 
d="M368 773q-48 0 -84 33.5t-38 83.5h31q3 -39 28 -65.5t63 -26.5t64 26.5t30 65.5h31q-4 -51 -40 -84t-85 -33zM94 0v715h36v-664l460 664h35v-715h-36v664l-460 -664h-35z" />
    <glyph glyph-name="uni041A" unicode="&#x41a;" horiz-adv-x="588" 
d="M135 364l365 351h42l-363 -348l381 -367h-45zM94 715h36v-715h-36v715z" />
    <glyph glyph-name="uni041B" unicode="&#x41b;" horiz-adv-x="677" 
d="M201 250q-10 -138 -38 -197.5t-97 -59.5q-19 0 -32 5q-6 1 -11 5v35q8 -4 13 -5q11 -4 29 -4q49 0 71 52.5t31 174.5q7 109 14 307q2 104 2 152h400v-715h-36v684h-331q0 -234 -15 -434z" />
    <glyph glyph-name="uni041C" unicode="&#x41c;" horiz-adv-x="849" 
d="M94 715h53l272 -649l277 649h53v-715h-36v672l-288 -672h-14l-283 672v-672h-34v715z" />
    <glyph glyph-name="uni041D" unicode="&#x41d;" horiz-adv-x="709" 
d="M94 715h36v-339h449v339h36v-715h-36v345h-449v-345h-36v715z" />
    <glyph glyph-name="uni041E" unicode="&#x41e;" horiz-adv-x="795" 
d="M400 24q133 0 220 95t87 237v8q0 139 -87.5 233.5t-221.5 94.5q-135 0 -222.5 -94.5t-87.5 -236.5v-8q0 -141 89 -235t223 -94zM400 -7q-149 0 -249 104.5t-100 255.5v8q0 152 100 256.5t247 104.5t246.5 -103.5t99.5 -254.5v-8q0 -152 -99 -257.5t-245 -105.5z" />
    <glyph glyph-name="uni041F" unicode="&#x41f;" horiz-adv-x="699" 
d="M569 684h-439v-684h-36v715h511v-715h-36v684z" />
    <glyph glyph-name="uni0420" unicode="&#x420;" horiz-adv-x="559" 
d="M94 715h180q111 0 175 -47t64 -148v-4q0 -104 -63 -152.5t-174 -48.5h-147v-315h-35v715zM277 345q200 0 200 171v4q0 165 -202 165h-146v-340h148z" />
    <glyph glyph-name="uni0421" unicode="&#x421;" horiz-adv-x="723" 
d="M382 -7q-150 0 -240.5 100t-90.5 260v8q0 157 96 259t235 102q112 0 190.5 -56.5t96.5 -159.5h-36q-19 90 -83 138t-168 48q-127 0 -210.5 -92.5t-83.5 -237.5v-8q0 -150 80 -240t215 -90q103 0 172.5 53t89.5 148h33q-20 -109 -100.5 -170.5t-195.5 -61.5z" />
    <glyph glyph-name="uni0422" unicode="&#x422;" horiz-adv-x="558" 
d="M261 685h-230v30h497v-30h-231v-685h-36v685z" />
    <glyph glyph-name="uni0423" unicode="&#x423;" horiz-adv-x="569" 
d="M139 -7q-22 0 -37 5q-5 1 -13 5l1 34q8 -4 13 -5q11 -4 35 -4q44 0 75 29t59 90l-242 568h38l222 -525l223 525h34l-234 -550q-37 -87 -74 -129.5t-100 -42.5z" />
    <glyph glyph-name="uni0424" unicode="&#x424;" horiz-adv-x="770" 
d="M403 631q148 0 234.5 -69.5t86.5 -196.5v-8q0 -129 -87.5 -199t-233.5 -70v-98h-36v98q-148 0 -234.5 69.5t-86.5 197.5v7q0 130 87.5 199.5t233.5 69.5v94h36v-94zM403 118q133 0 209 60.5t76 178.5v8q0 116 -75 176.5t-210 61.5v-485zM367 602q-133 0 -208.5 -60.5
t-75.5 -179.5v-7q0 -116 74.5 -176.5t209.5 -61.5v485z" />
    <glyph glyph-name="uni0425" unicode="&#x425;" horiz-adv-x="638" 
d="M300 372l-230 343h40l213 -317l212 317h38l-231 -344l250 -371h-40l-233 345l-235 -345h-37z" />
    <glyph glyph-name="uni0426" unicode="&#x426;" horiz-adv-x="722" 
d="M670 -130l-3 130h-573v715h36v-684h439v684h36v-684h95v-161h-30z" />
    <glyph glyph-name="uni0427" unicode="&#x427;" horiz-adv-x="635" 
d="M505 0v381q-19 -29 -76 -59t-146 -30q-218 0 -218 247v176h36v-177q0 -217 183 -217q44 0 82 9.5t61.5 23t42 29t26 25.5t9.5 15v292h36v-715h-36z" />
    <glyph glyph-name="uni0428" unicode="&#x428;" horiz-adv-x="975" 
d="M94 715h36v-684h339v684h36v-684h340v684h36v-715h-787v715z" />
    <glyph glyph-name="uni0429" unicode="&#x429;" horiz-adv-x="997" 
d="M946 -130l-4 130h-848v715h36v-684h339v684h36v-684h340v684h36v-684h95v-161h-30z" />
    <glyph glyph-name="uni042A" unicode="&#x42a;" horiz-adv-x="705" 
d="M231 684h-200v31h235v-307h159q109 0 174 -51t65 -147v-4q0 -97 -60 -151.5t-159 -54.5h-214v684zM447 30q87 0 134 46t47 130v4q0 79 -52.5 123.5t-148.5 44.5h-161v-348h181z" />
    <glyph glyph-name="uni042B" unicode="&#x42b;" horiz-adv-x="762" 
d="M669 0h-36v715h36v-715zM94 715h35v-307h150q109 0 174 -51t65 -147v-4q0 -97 -60 -151.5t-159 -54.5h-205v715zM301 30q87 0 134 46t47 130v4q0 79 -52.5 123.5t-148.5 44.5h-152v-348h172z" />
    <glyph glyph-name="uni042C" unicode="&#x42c;" horiz-adv-x="568" 
d="M94 715h35v-307h159q109 0 174 -51t65 -147v-4q0 -97 -60 -151.5t-159 -54.5h-214v715zM310 30q87 0 134 46t47 130v4q0 79 -53 123.5t-149 44.5h-160v-348h181z" />
    <glyph glyph-name="uni042D" unicode="&#x42d;" horiz-adv-x="718" 
d="M339 -7q-115 0 -194.5 57t-99.5 160h36q19 -90 85.5 -138.5t172.5 -48.5q124 0 206.5 91.5t84.5 233.5h-400v31h400q-4 142 -80 227.5t-205 85.5q-103 0 -172 -52.5t-92 -148.5h-34q24 109 104 170t194 61q149 0 235.5 -98.5t86.5 -260.5v-8q0 -157 -94.5 -259.5
t-233.5 -102.5z" />
    <glyph glyph-name="uni042E" unicode="&#x42e;" horiz-adv-x="1007" 
d="M622 -7q-145 0 -241 101.5t-98 250.5h-153v-345h-36v715h36v-339h153q6 149 100.5 247.5t236.5 98.5q146 0 241 -103t95 -255v-8q0 -153 -95 -258t-239 -105zM622 24q132 0 214.5 94.5t82.5 237.5v8q0 140 -83 234t-216 94q-134 0 -217 -94t-83 -237v-8
q0 -142 84.5 -235.5t217.5 -93.5z" />
    <glyph glyph-name="uni042F" unicode="&#x42f;" horiz-adv-x="604" 
d="M294 685q-181 0 -181 -165v-4q0 -81 52.5 -125.5t148.5 -44.5h161v339h-181zM510 0h-35v316h-156q-18 0 -26 1l-220 -317h-42l225 321q-84 13 -131.5 63t-47.5 132v4q0 96 59 145.5t160 49.5h214v-715z" />
    <glyph glyph-name="uni0430" unicode="&#x430;" horiz-adv-x="521" 
d="M225 -8q-83 0 -131 38t-48 109q0 157 235 157h130v51q0 81 -35 117.5t-111 36.5q-141 0 -162 -121h-34q9 74 64.5 112.5t132.5 38.5q179 0 179 -184v-347h-34v89q-58 -97 -186 -97zM227 21q75 0 129.5 40.5t54.5 98.5v108h-130q-94 0 -147.5 -28t-53.5 -101
q0 -57 37.5 -87.5t109.5 -30.5z" />
    <glyph glyph-name="uni0431" unicode="&#x431;" horiz-adv-x="593" 
d="M301 -8q-107 0 -178 76.5t-71 209.5v75q0 201 65.5 305.5t220.5 108.5l45 1q102 4 134 17v-30q-31 -14 -132 -18l-45 -1q-137 -4 -196.5 -92.5t-63.5 -275.5h2q25 75 88 118.5t145 43.5q103 0 169.5 -72.5t66.5 -190.5v-7q0 -118 -72.5 -193t-177.5 -75zM302 22
q91 0 152.5 64.5t61.5 173.5v6q0 110 -57 172.5t-146 62.5q-94 0 -160 -62.5t-66 -169.5v-2q0 -113 61.5 -179t153.5 -66z" />
    <glyph glyph-name="uni0432" unicode="&#x432;" horiz-adv-x="508" 
d="M82 523h190q73 0 116 -33t43 -98v-3q0 -93 -96 -113q122 -19 122 -127v-3q0 -146 -172 -146h-203v523zM116 495v-208h156q123 0 123 101v3q0 104 -124 104h-155zM116 259v-230h167q138 0 138 116v3q0 111 -145 111h-160z" />
    <glyph glyph-name="uni0433" unicode="&#x433;" horiz-adv-x="439" 
d="M116 494v-494h-34v523h332v-29h-298z" />
    <glyph glyph-name="uni0434" unicode="&#x434;" horiz-adv-x="565" 
d="M157 253q-10 -100 -22 -150.5t-38 -72.5h336v464h-259q-12 -200 -17 -241zM42 -127h-27v157h34q35 9 49.5 62.5t26.5 165.5q3 29 13 168l6 97h323v-493h72v-157h-28l-3 127h-462z" />
    <glyph glyph-name="uni0435" unicode="&#x435;" horiz-adv-x="545" 
d="M286 -8q-113 0 -178.5 73.5t-65.5 191.5v8q0 116 67 191t170 75q99 0 161.5 -66.5t62.5 -185.5v-15h-426q1 -116 54.5 -179t154.5 -63q148 0 179 122h34q-18 -72 -74.5 -112t-138.5 -40zM469 293q-3 102 -53.5 155t-136.5 53q-84 0 -139.5 -57t-61.5 -151h391z" />
    <glyph glyph-name="uni0436" unicode="&#x436;" horiz-adv-x="659" 
d="M313 523h33v-523h-33v523zM600 0l-251 274l237 249h39l-239 -248l255 -275h-41zM18 0l255 275l-239 248h38l237 -249l-251 -274h-40z" />
    <glyph glyph-name="uni0437" unicode="&#x437;" horiz-adv-x="473" 
d="M396 395q0 -48 -25.5 -79.5t-70.5 -39.5q58 -7 90 -40t32 -87v-6q0 -64 -50 -108t-133 -44q-86 0 -137 41t-59 110h33q25 -122 163 -122q68 0 107.5 34.5t39.5 87.5v6q0 111 -142 111h-91v28h87q120 0 120 107v3q0 50 -32.5 77t-93.5 27q-59 0 -95 -31.5t-45 -88.5h-33
q8 71 56 110.5t119 39.5q72 0 116 -35.5t44 -97.5v-3z" />
    <glyph glyph-name="uni0438" unicode="&#x438;" horiz-adv-x="569" 
d="M82 0v523h34v-472l339 472h34v-523h-34v474l-339 -474h-34z" />
    <glyph glyph-name="uni0439" unicode="&#x439;" horiz-adv-x="569" 
d="M282 614q-48 0 -84 33.5t-38 83.5h31q3 -39 28 -65.5t63 -26.5t64 26.5t30 65.5h31q-4 -51 -40 -84t-85 -33zM82 0v523h34v-472l339 472h34v-523h-34v474l-339 -474h-34z" />
    <glyph glyph-name="uni043A" unicode="&#x43a;" horiz-adv-x="468" 
d="M81 523h34v-523h-34v523zM118 274l275 249h42l-275 -248l291 -275h-44z" />
    <glyph glyph-name="uni043B" unicode="&#x43b;" horiz-adv-x="551" 
d="M170 253q-7 -67 -14.5 -109.5t-21 -78.5t-34.5 -52.5t-52 -16.5q-20 0 -29 4q-4 1 -10 5v33q5 -4 11 -5q9 -4 26 -4q43 0 62 56t30 173q8 95 12 168q4 64 5 97h315v-523h-35v494h-250q-14 -236 -15 -241z" />
    <glyph glyph-name="uni043C" unicode="&#x43c;" horiz-adv-x="674" 
d="M113 485v-485h-31v523h50l203 -467l210 467h47v-523h-34v485l-217 -485h-17z" />
    <glyph glyph-name="uni043D" unicode="&#x43d;" horiz-adv-x="561" 
d="M445 258h-329v-258h-34v523h34v-236h329v236h34v-523h-34v258z" />
    <glyph glyph-name="uni043E" unicode="&#x43e;" horiz-adv-x="583" 
d="M292 22q91 0 152.5 64.5t61.5 171.5v8q0 107 -61.5 171t-151.5 64t-153 -65t-63 -171v-8q0 -105 62 -170t153 -65zM291 -8q-104 0 -176.5 75t-72.5 190v8q0 115 73.5 190t177.5 75t176 -73.5t72 -190.5v-8q0 -116 -73 -191t-177 -75z" />
    <glyph glyph-name="uni043F" unicode="&#x43f;" horiz-adv-x="551" 
d="M435 494h-319v-494h-34v523h387v-523h-34v494z" />
    <glyph glyph-name="uni0440" unicode="&#x440;" horiz-adv-x="602" 
d="M81 523h34v-144q23 63 81.5 107.5t131.5 44.5q98 0 165 -73t67 -192v-8q0 -122 -66 -194t-166 -72q-80 0 -135 43.5t-78 104.5v-322h-34v705zM326 22q88 0 143.5 63t55.5 172v8q0 110 -57.5 173t-142.5 63q-84 0 -147 -64t-63 -172v-8q0 -107 61 -171t150 -64z" />
    <glyph glyph-name="uni0441" unicode="&#x441;" horiz-adv-x="547" 
d="M288 -8q-104 0 -175 74t-71 191v8q0 118 71.5 192t175.5 74q82 0 143 -45.5t70 -123.5h-34q-9 66 -59 102.5t-120 36.5q-90 0 -151 -64.5t-61 -171.5v-8q0 -106 60.5 -170.5t150.5 -64.5q73 0 124.5 41t63.5 114h32q-12 -84 -72.5 -134.5t-147.5 -50.5z" />
    <glyph glyph-name="uni0442" unicode="&#x442;" horiz-adv-x="455" 
d="M432 494h-187v-494h-35v494h-187v29h409v-29z" />
    <glyph glyph-name="uni0443" unicode="&#x443;" horiz-adv-x="495" 
d="M234 40l-208 483h36l190 -444l181 444h36l-292 -705h-35z" />
    <glyph glyph-name="uni0444" unicode="&#x444;" horiz-adv-x="671" 
d="M352 530q123 -4 200 -75.5t77 -189.5v-8q0 -117 -77.5 -189.5t-199.5 -74.5v-175h-34v175q-122 2 -199 75t-77 189v8q0 119 76.5 190t199.5 75v243h34v-243zM318 503q-108 -4 -174.5 -66.5t-66.5 -171.5v-7q0 -108 66.5 -172t174.5 -66v483zM352 20q108 2 175 65.5
t67 171.5v8q0 109 -66 172t-176 65v-482z" />
    <glyph glyph-name="uni0445" unicode="&#x445;" horiz-adv-x="500" 
d="M228 271l-186 252h41l166 -227l163 227h39l-182 -250l201 -273h-41l-181 248l-180 -248h-38z" />
    <glyph glyph-name="uni0446" unicode="&#x446;" horiz-adv-x="567" 
d="M514 -127l-4 127h-428v523h34v-493h319v493h34v-493h72v-157h-27z" />
    <glyph glyph-name="uni0447" unicode="&#x447;" horiz-adv-x="560" 
d="M426 0v276q-23 -34 -67 -59.5t-110 -25.5q-177 0 -177 201v131h35v-130q0 -172 147 -172q33 0 62 9t48 23t31.5 26.5t21.5 24.5l9 13v206h34v-523h-34z" />
    <glyph glyph-name="uni0448" unicode="&#x448;" horiz-adv-x="789" 
d="M82 523h34v-493h262v493h34v-493h261v493h35v-523h-626v523z" />
    <glyph glyph-name="uni0449" unicode="&#x449;" horiz-adv-x="805" 
d="M752 -127l-4 127h-666v523h34v-493h262v493h34v-493h261v493h35v-493h71v-157h-27z" />
    <glyph glyph-name="uni044A" unicode="&#x44a;" horiz-adv-x="571" 
d="M184 494h-161v29h196v-197h126q88 0 139.5 -41t51.5 -118v-3q0 -77 -48 -120.5t-127 -43.5h-177v494zM362 28q68 0 103.5 36t35.5 100v3q0 63 -39.5 97t-114.5 34h-128v-270h143z" />
    <glyph glyph-name="uni044B" unicode="&#x44b;" horiz-adv-x="648" 
d="M532 523h34v-523h-34v523zM82 523h34v-197h127q87 0 138.5 -41.5t51.5 -117.5v-3q0 -78 -47.5 -121t-126.5 -43h-177v523zM260 28q68 0 103.5 36t35.5 100v3q0 63 -40 97t-115 34h-128v-270h144z" />
    <glyph glyph-name="uni044C" unicode="&#x44c;" horiz-adv-x="469" 
d="M82 523h34v-197h127q88 0 139 -41.5t51 -118.5v-3q0 -79 -47 -121t-127 -42h-177v523zM260 28q68 0 103.5 35.5t35.5 99.5v3q0 63 -40 97.5t-115 34.5h-128v-270h144z" />
    <glyph glyph-name="uni044D" unicode="&#x44d;" horiz-adv-x="547" 
d="M264 -8q-87 0 -149.5 47.5t-74.5 133.5h33q12 -73 64 -112t127 -39q91 0 147.5 63.5t58.5 172.5h-295v29h295q-6 99 -64.5 156.5t-143.5 57.5q-70 0 -119 -36.5t-67 -106.5h-33q18 81 76.5 127t142.5 46q106 0 174.5 -73t68.5 -191v-8q0 -118 -67 -192.5t-174 -74.5z" />
    <glyph glyph-name="uni044E" unicode="&#x44e;" horiz-adv-x="764" 
d="M481 -8q-101 0 -168 72t-69 189q-1 1 -1 5h-127v-258h-34v523h34v-236h127q8 109 75.5 176t165.5 67q103 0 170.5 -73t67.5 -191v-8q0 -117 -68.5 -191.5t-172.5 -74.5zM482 22q90 0 147.5 64t57.5 172v8q0 108 -57 171.5t-146 63.5q-90 0 -148 -64.5t-58 -171.5v-8
q0 -106 57.5 -170.5t146.5 -64.5z" />
    <glyph glyph-name="uni044F" unicode="&#x44f;" horiz-adv-x="501" 
d="M241 495q-139 0 -139 -125v-3q0 -60 40 -91t115 -31h128v250h-144zM419 0h-34v218h-126q-15 0 -23 1l-155 -219h-41l161 224q-62 10 -97.5 46t-35.5 97v3q0 76 46.5 114.5t127.5 38.5h177v-523z" />
    <glyph glyph-name="uni0451" unicode="&#x451;" horiz-adv-x="545" 
d="M286 -8q-113 0 -178.5 73.5t-65.5 191.5v8q0 116 67 191t170 75q99 0 161.5 -66.5t62.5 -185.5v-15h-426q1 -116 54.5 -179t154.5 -63q148 0 179 122h34q-18 -72 -74.5 -112t-138.5 -40zM469 293q-3 102 -53.5 155t-136.5 53q-84 0 -139.5 -57t-61.5 -151h391zM201 638
q-11 0 -18.5 7.5t-7.5 18.5t7.5 18.5t18.5 7.5t18.5 -7.5t7.5 -18.5t-7.5 -18.5t-18.5 -7.5zM355 638q-11 0 -18.5 7.5t-7.5 18.5t7.5 18.5t18.5 7.5t18.5 -7.5t7.5 -18.5t-7.5 -18.5t-18.5 -7.5z" />
    <glyph glyph-name="uni0452" unicode="&#x452;" horiz-adv-x="573" 
d="M463 324q0 177 -158 177q-75 0 -132.5 -49.5t-57.5 -134.5v-317h-34v629h-79v27h79v117h34v-117h196v-27h-196v-220q19 51 72 86.5t123 35.5q88 0 137.5 -51.5t49.5 -156.5v-381q0 -65 -25 -95.5t-86 -32.5v30q44 4 60.5 25.5t16.5 70.5v384z" />
    <glyph glyph-name="uni0453" unicode="&#x453;" horiz-adv-x="439" 
d="M116 494v-494h-34v523h332v-29h-298zM290 747h41l-84 -147h-28z" />
    <glyph glyph-name="uni0454" unicode="&#x454;" horiz-adv-x="547" 
d="M508 177q-12 -84 -72.5 -134.5t-147.5 -50.5q-104 0 -175 74t-71 191v8q0 118 71.5 192t175.5 74q82 0 143 -45.5t70 -123.5h-34q-9 66 -59 102.5t-120 36.5q-85 0 -145 -58.5t-66 -155.5h293v-28h-294q2 -110 61.5 -173.5t149.5 -63.5q73 0 124.5 41t63.5 114h32z" />
    <glyph glyph-name="uni0455" unicode="&#x455;" horiz-adv-x="456" 
d="M235 -9q-89 0 -141 44.5t-58 118.5h33q9 -61 50 -97.5t116 -36.5q69 0 107 32t38 84q0 55 -31 78t-115 40q-97 17 -138.5 47t-41.5 95q0 60 49.5 97t121.5 37q156 0 177 -136h-33q-21 107 -145 107q-62 0 -100 -28.5t-38 -76.5q0 -49 34.5 -73t121.5 -39
q94 -18 133 -47.5t39 -98.5q0 -63 -48.5 -105t-130.5 -42z" />
    <glyph glyph-name="uni0456" unicode="&#x456;" horiz-adv-x="200" 
d="M83 523h34v-523h-34v523zM100 637q-11 0 -19 8t-8 19t8 18.5t19 7.5t18.5 -7.5t7.5 -18.5t-7.5 -19t-18.5 -8z" />
    <glyph glyph-name="uni0457" unicode="&#x457;" horiz-adv-x="200" 
d="M36 638q-11 0 -18.5 7.5t-7.5 18.5t7.5 18.5t18.5 7.5t18.5 -7.5t7.5 -18.5t-7.5 -18.5t-18.5 -7.5zM165 638q-11 0 -18.5 7.5t-7.5 18.5t7.5 18.5t18.5 7.5t18.5 -7.5t7.5 -18.5t-7.5 -18.5t-18.5 -7.5zM83 523h34v-523h-34v523z" />
    <glyph glyph-name="uni0458" unicode="&#x458;" horiz-adv-x="200" 
d="M6 -156q44 4 60.5 25.5t16.5 70.5v583h34v-581q0 -65 -25 -95.5t-86 -32.5v30zM100 637q-11 0 -19 8t-8 19t8 18.5t19 7.5t18.5 -7.5t7.5 -18.5t-7.5 -19t-18.5 -8z" />
    <glyph glyph-name="uni0459" unicode="&#x459;" horiz-adv-x="802" 
d="M425 494h-240q-14 -236 -15 -241q-7 -67 -14.5 -109.5t-21 -78.5t-34.5 -52.5t-52 -16.5q-20 0 -29 4q-4 1 -10 5v33q5 -4 11 -5q9 -4 26 -4q43 0 62 56t30 173q8 95 12 168q4 64 5 97h304v-197h117q88 0 139 -41t51 -118v-3q0 -78 -47.5 -121t-126.5 -43h-167v494z
M593 28q67 0 103 36t36 100v3q0 63 -40 97t-115 34h-118v-270h134z" />
    <glyph glyph-name="uni045A" unicode="&#x45a;" horiz-adv-x="812" 
d="M603 28q67 0 103 36t36 100v3q0 63 -40 97t-115 34h-118v-270h134zM435 258h-319v-258h-34v523h34v-236h319v236h34v-197h117q88 0 139 -41t51 -118v-3q0 -78 -47.5 -121t-126.5 -43h-167v258z" />
    <glyph glyph-name="uni045B" unicode="&#x45b;" horiz-adv-x="573" 
d="M2 656h79v117h34v-117h196v-27h-196v-220q19 51 72 86.5t123 35.5q88 0 137.5 -51.5t49.5 -156.5v-323h-34v324q0 177 -158 177q-75 0 -132.5 -49.5t-57.5 -134.5v-317h-34v629h-79v27z" />
    <glyph glyph-name="uni045C" unicode="&#x45c;" horiz-adv-x="468" 
d="M298 747h41l-84 -147h-28zM81 523h34v-523h-34v523zM118 274l275 249h42l-275 -248l291 -275h-44z" />
    <glyph glyph-name="uni045D" unicode="&#x45d;" horiz-adv-x="571" 
d="M82 0v523h34v-472l339 472h34v-523h-34v474l-339 -474h-34zM205 747h41l72 -147h-29z" />
    <glyph glyph-name="uni045E" unicode="&#x45e;" horiz-adv-x="495" 
d="M253 614q-49 0 -83.5 33t-38.5 84h31q3 -39 28 -65.5t63 -26.5t64 26.5t30 65.5h31q-4 -51 -40 -84t-85 -33zM234 40l-208 483h36l190 -444l181 444h36l-292 -705h-35z" />
    <glyph glyph-name="uni045F" unicode="&#x45f;" horiz-adv-x="551" 
d="M82 0v523h34v-493h319v493h34v-523h-178l-2 -127h-26l-3 127h-178z" />
    <glyph glyph-name="uni0490" unicode="&#x490;" horiz-adv-x="527" 
d="M130 684v-684h-36v715h356l3 134h30v-165h-353z" />
    <glyph glyph-name="uni0491" unicode="&#x491;" horiz-adv-x="432" 
d="M116 494v-494h-34v523h288l4 134h27v-163h-285z" />
    <glyph glyph-name="Wgrave" unicode="&#x1e80;" horiz-adv-x="915" 
d="M32 715h36l176 -663l202 663h25l191 -665l188 665h33l-203 -715h-38l-184 648l-198 -648h-37zM368 891h42l68 -120h-29z" />
    <glyph glyph-name="wgrave" unicode="&#x1e81;" horiz-adv-x="765" 
d="M30 523h36l151 -482l153 482h29l149 -482l153 482h34l-166 -523h-41l-144 466l-149 -466h-41zM292 747h41l72 -147h-29z" />
    <glyph glyph-name="Wacute" unicode="&#x1e82;" horiz-adv-x="915" 
d="M32 715h36l176 -663l202 663h25l191 -665l188 665h33l-203 -715h-38l-184 648l-198 -648h-37zM508 891h41l-81 -120h-29z" />
    <glyph glyph-name="wacute" unicode="&#x1e83;" horiz-adv-x="765" 
d="M30 523h36l151 -482l153 482h29l149 -482l153 482h34l-166 -523h-41l-144 466l-149 -466h-41zM434 747h41l-84 -147h-28z" />
    <glyph glyph-name="Wdieresis" unicode="&#x1e84;" horiz-adv-x="915" 
d="M32 715h36l176 -663l202 663h25l191 -665l188 665h33l-203 -715h-38l-184 648l-198 -648h-37zM375 788q-11 0 -18.5 7.5t-7.5 18.5t7.5 18.5t18.5 7.5t18.5 -7.5t7.5 -18.5t-7.5 -18.5t-18.5 -7.5zM541 788q-11 0 -18.5 7.5t-7.5 18.5t7.5 18.5t18.5 7.5t18.5 -7.5
t7.5 -18.5t-7.5 -18.5t-18.5 -7.5z" />
    <glyph glyph-name="wdieresis" unicode="&#x1e85;" horiz-adv-x="765" 
d="M30 523h36l151 -482l153 482h29l149 -482l153 482h34l-166 -523h-41l-144 466l-149 -466h-41zM307 638q-11 0 -18.5 7.5t-7.5 18.5t7.5 18.5t18.5 7.5t18.5 -7.5t7.5 -18.5t-7.5 -18.5t-18.5 -7.5zM461 638q-11 0 -18.5 7.5t-7.5 18.5t7.5 18.5t18.5 7.5t18.5 -7.5
t7.5 -18.5t-7.5 -18.5t-18.5 -7.5z" />
    <glyph glyph-name="Ygrave" unicode="&#x1ef2;" horiz-adv-x="565" 
d="M272 322l-250 393h41l228 -362l215 362h37l-235 -393v-322h-36v322zM200 891h42l68 -120h-29z" />
    <glyph glyph-name="ygrave" unicode="&#x1ef3;" horiz-adv-x="495" 
d="M234 40l-208 483h36l190 -444l181 444h36l-292 -705h-35zM157 747h41l72 -147h-29z" />
    <glyph glyph-name="uni2009" unicode="&#x2009;" horiz-adv-x="110" 
 />
    <glyph glyph-name="endash" unicode="&#x2013;" horiz-adv-x="489" 
d="M47 293h394v-29h-394v29z" />
    <glyph glyph-name="emdash" unicode="&#x2014;" horiz-adv-x="859" 
d="M47 293h765v-29h-765v29z" />
    <glyph glyph-name="quoteleft" unicode="&#x2018;" horiz-adv-x="188" 
d="M44 568l76 152l24 -11l-67 -156z" />
    <glyph glyph-name="quoteright" unicode="&#x2019;" horiz-adv-x="188" 
d="M45 564l66 156l34 -14l-76 -153z" />
    <glyph glyph-name="quotesinglbase" unicode="&#x201a;" horiz-adv-x="188" 
d="M45 -59l66 156l34 -14l-76 -153z" />
    <glyph glyph-name="quotedblleft" unicode="&#x201c;" horiz-adv-x="305" 
d="M44 568l76 152l24 -11l-67 -156zM160 568l76 152l24 -11l-67 -156z" />
    <glyph glyph-name="quotedblright" unicode="&#x201d;" horiz-adv-x="305" 
d="M45 564l66 156l34 -14l-76 -153zM161 564l67 156l33 -14l-76 -153z" />
    <glyph glyph-name="quotedblbase" unicode="&#x201e;" horiz-adv-x="305" 
d="M45 -59l66 156l34 -14l-76 -153zM161 -59l67 156l33 -14l-76 -153z" />
    <glyph glyph-name="dagger" unicode="&#x2020;" horiz-adv-x="334" 
d="M151 547h-121v29h121v139h32v-139h120v-29h-120v-321h-32v321z" />
    <glyph glyph-name="daggerdbl" unicode="&#x2021;" horiz-adv-x="334" 
d="M151 547h-121v29h121v139h32v-139h120v-29h-120v-153h120v-29h-120v-139h-32v139h-121v29h121v153z" />
    <glyph glyph-name="bullet" unicode="&#x2022;" horiz-adv-x="307" 
d="M153 205q-42 0 -70.5 29t-28.5 71t28.5 70.5t70.5 28.5q44 0 72 -28.5t28 -70.5q0 -43 -28 -71.5t-72 -28.5z" />
    <glyph glyph-name="ellipsis" unicode="&#x2026;" horiz-adv-x="628" 
d="M98 -5q-13 0 -21 8.5t-8 20.5t8 20.5t21 8.5q12 0 20 -8.5t8 -20.5t-8 -20.5t-20 -8.5zM314 -5q-12 0 -20.5 8.5t-8.5 20.5t8.5 20.5t20.5 8.5t20.5 -8.5t8.5 -20.5t-8.5 -20.5t-20.5 -8.5zM530 -5q-12 0 -20.5 8.5t-8.5 20.5t8.5 20.5t20.5 8.5t20.5 -8.5t8.5 -20.5
t-8.5 -20.5t-20.5 -8.5z" />
    <glyph glyph-name="perthousand" unicode="&#x2030;" horiz-adv-x="1099" 
d="M195 438q50 0 84 34.5t34 92.5t-33.5 92.5t-84.5 34.5q-50 0 -84 -35.5t-34 -93.5q0 -57 34.5 -91t83.5 -34zM195 410q-60 0 -105 42.5t-45 110.5t44 112.5t106 44.5q63 0 106.5 -43.5t43.5 -111.5q0 -70 -44 -112.5t-106 -42.5zM591 715h34l-467 -715h-34zM552 22
q50 0 84 34.5t34 92.5t-33.5 92.5t-84.5 34.5q-50 0 -84 -35.5t-34 -93.5q0 -57 34.5 -91t83.5 -34zM552 -6q-60 0 -105 42.5t-45 110.5t44 112.5t106 44.5q63 0 106.5 -43.5t43.5 -111.5q0 -70 -44 -112.5t-106 -42.5zM904 22q50 0 84 34.5t34 92.5t-33.5 92.5t-84.5 34.5
q-50 0 -84 -35.5t-34 -93.5q0 -57 34.5 -91t83.5 -34zM904 -6q-60 0 -105 42.5t-45 110.5t44 112.5t106 44.5q63 0 107 -43.5t44 -111.5q0 -69 -44.5 -112t-106.5 -43z" />
    <glyph glyph-name="uni2032" unicode="&#x2032;" horiz-adv-x="151" 
d="M74 715h38l-43 -186h-27z" />
    <glyph glyph-name="uni2033" unicode="&#x2033;" horiz-adv-x="261" 
d="M74 715h38l-43 -186h-27zM185 715h37l-42 -186h-28z" />
    <glyph glyph-name="guilsinglleft" unicode="&#x2039;" horiz-adv-x="270" 
d="M52 261l137 178h36l-136 -178l136 -178h-36z" />
    <glyph glyph-name="guilsinglright" unicode="&#x203a;" horiz-adv-x="270" 
d="M181 261l-136 178h36l138 -178l-138 -178h-36z" />
    <glyph glyph-name="fraction" unicode="&#x2044;" horiz-adv-x="113" 
d="M302 715h31l-522 -715h-31z" />
    <glyph glyph-name="Euro" unicode="&#x20ac;" horiz-adv-x="646" 
d="M31 441h67q6 127 74.5 204t184.5 77q101 0 159.5 -52.5t70.5 -146.5h-34q-12 81 -61 125t-135 44q-102 0 -159.5 -67.5t-63.5 -183.5h261l-5 -28h-256v-110h235l-5 -28h-230q5 -118 62.5 -184.5t161.5 -66.5q90 0 141.5 48t64.5 137h33q-13 -103 -75 -159.5t-164 -56.5
q-118 0 -186 76.5t-74 205.5h-67v28h67v110h-67v28z" />
    <glyph glyph-name="uni20B4" unicode="&#x20b4;" horiz-adv-x="566" 
d="M273 -7q-101 0 -158.5 43t-57.5 123q0 77 55 126h-82v26h116q23 15 141 76q46 23 65 34h-322v26h361q59 46 59 124q0 121 -154 121q-156 0 -183 -136h-33q12 79 67 122.5t149 43.5q88 0 138.5 -38.5t50.5 -111.5q0 -77 -52 -125h103v-26h-135q-36 -25 -108 -60l-96 -50
h339v-26h-379q-64 -46 -64 -125q0 -66 48.5 -101t131.5 -35q95 0 145 47.5t61 123.5h36q-13 -91 -73 -146.5t-169 -55.5z" />
    <glyph glyph-name="uni20B8" unicode="&#x20b8;" horiz-adv-x="558" 
d="M31 689v26h497v-26h-497zM261 555h-230v30h497v-30h-231v-555h-36v555z" />
    <glyph glyph-name="uni20BD" unicode="&#x20bd;" horiz-adv-x="599" 
d="M317 345q200 0 200 171v4q0 165 -202 165h-146v-340h148zM169 182v-182h-35v182h-100v27h100v109h-100v27h100v370h180q111 0 175 -47t64 -148v-4q0 -104 -63 -152.5t-174 -48.5h-147v-106h265v-27h-265z" />
    <glyph glyph-name="uni2116" unicode="&#x2116;" horiz-adv-x="1040" 
d="M831 350q-72 0 -121.5 51.5t-49.5 131.5v6q0 82 49.5 132t123.5 50q73 0 122 -49.5t49 -131.5v-6q0 -82 -49.5 -133t-123.5 -51zM832 378q59 0 99 43t40 113v5q0 71 -39 112.5t-99 41.5q-59 0 -99.5 -42t-40.5 -112v-5q0 -69 39.5 -112.5t99.5 -43.5zM94 715h51l392 -666
v666h35v-715h-45l-398 677v-677h-35v715zM678 260h308v-30h-308v30z" />
    <glyph glyph-name="trademark" unicode="&#x2122;" horiz-adv-x="649" 
d="M312 715h40l108 -261l107 261h40v-311h-28v277l-115 -277h-10l-116 277v-277h-26v311zM126 692h-98v23h223v-23h-97v-288h-28v288z" />
    <glyph glyph-name="Omega" unicode="&#x2126;" horiz-adv-x="797" 
d="M88 357q0 -229 223 -337v-20h-258v30h191q-82 43 -137.5 125.5t-55.5 201.5v8q0 142 97.5 249.5t250.5 107.5t250 -106.5t97 -248.5v-8q0 -121 -55 -203t-138 -126h191v-30h-258v20q223 100 223 339v8q0 130 -84.5 227.5t-225.5 97.5q-95 0 -167.5 -48t-108 -121.5
t-35.5 -157.5v-8z" />
    <glyph glyph-name="onethird" unicode="&#x2153;" horiz-adv-x="691" 
d="M119 680l-91 -65v29l99 71h23v-344h-31v309zM550 715h31l-522 -715h-31zM534 -4q-56 0 -90.5 29t-37.5 73h29q4 -33 29.5 -55t68.5 -22q42 0 64.5 20t22.5 55q0 33 -21.5 52.5t-59.5 19.5h-27v24h25q35 0 54 18.5t19 46.5q0 30 -21 48.5t-56 18.5q-39 0 -60.5 -20.5
t-25.5 -52.5h-28q3 41 33.5 68.5t80.5 27.5q48 0 77 -25t29 -64q0 -59 -60 -77q31 -6 51.5 -28.5t20.5 -56.5q0 -47 -31.5 -73.5t-85.5 -26.5z" />
    <glyph glyph-name="twothirds" unicode="&#x2154;" horiz-adv-x="732" 
d="M23 379l130 128q38 37 53.5 62t15.5 53q0 34 -21 53t-56 19q-74 0 -85 -85h-28q4 52 34 80.5t80 28.5q48 0 77 -26t29 -69q0 -35 -17.5 -63.5t-58.5 -66.5l-102 -97h181v-25h-232v8zM612 715h31l-522 -715h-31zM575 -4q-56 0 -90.5 29t-37.5 73h29q4 -33 29.5 -55
t68.5 -22q42 0 64.5 20t22.5 55q0 33 -21.5 52.5t-59.5 19.5h-27v24h25q35 0 54 18.5t19 46.5q0 30 -21 48.5t-56 18.5q-39 0 -60.5 -20.5t-25.5 -52.5h-28q3 41 33.5 68.5t80.5 27.5q48 0 77 -25t29 -64q0 -59 -60 -77q31 -6 51.5 -28.5t20.5 -56.5q0 -47 -31.5 -73.5
t-85.5 -26.5z" />
    <glyph glyph-name="oneeighth" unicode="&#x215b;" horiz-adv-x="685" 
d="M114 680l-91 -65v29l99 71h23v-344h-31v309zM554 715h31l-522 -715h-31zM525 -4q-54 0 -89 25.5t-35 72.5q0 70 80 90q-29 9 -47.5 29t-18.5 48q0 39 32 62.5t78 23.5q45 0 76.5 -24t31.5 -61q0 -58 -63 -78q78 -19 78 -88q0 -49 -33.5 -74.5t-89.5 -25.5zM525 21
q43 0 68 19t25 57q0 35 -26 55t-66 20t-67.5 -20.5t-27.5 -55.5q0 -37 26.5 -56t67.5 -19zM526 195q34 0 56 17.5t22 48.5q0 27 -22.5 44.5t-56.5 17.5q-36 0 -58 -17t-22 -46q0 -30 24 -47.5t57 -17.5z" />
    <glyph glyph-name="threeeighths" unicode="&#x215c;" horiz-adv-x="722" 
d="M157 367q-56 0 -90.5 29t-37.5 73h29q4 -33 29.5 -55t68.5 -22q42 0 64.5 20t22.5 55q0 33 -21.5 52.5t-59.5 19.5h-27v24h25q35 0 54 18.5t19 46.5q0 30 -21 48.5t-56 18.5q-39 0 -60.5 -20.5t-25.5 -52.5h-28q3 41 33.5 68.5t80.5 27.5q48 0 77 -25t29 -64
q0 -59 -60 -77q31 -6 51.5 -28.5t20.5 -56.5q0 -47 -31.5 -73.5t-85.5 -26.5zM604 715h31l-522 -715h-31zM562 -4q-54 0 -89 25.5t-35 72.5q0 70 80 90q-29 9 -47.5 29t-18.5 48q0 39 32 62.5t78 23.5q45 0 76.5 -24t31.5 -61q0 -58 -63 -78q78 -19 78 -88
q0 -49 -33.5 -74.5t-89.5 -25.5zM562 21q43 0 68 19t25 57q0 35 -26 55t-66 20t-67.5 -20.5t-27.5 -55.5q0 -37 26.5 -56t67.5 -19zM563 195q34 0 56 17.5t22 48.5q0 27 -22.5 44.5t-56.5 17.5q-36 0 -58 -17t-22 -46q0 -30 24 -47.5t57 -17.5z" />
    <glyph glyph-name="fiveeighths" unicode="&#x215d;" horiz-adv-x="709" 
d="M143 367q-52 0 -81.5 26t-33.5 67h29q13 -68 86 -68q40 0 63 24.5t23 66.5q0 39 -23 64t-59 25q-55 0 -86 -38h-15l1 181h193v-25h-167v-124q30 30 81 30q46 0 76 -31t30 -83q0 -53 -32 -84t-85 -31zM589 715h31l-522 -715h-31zM548 -4q-54 0 -89 25.5t-35 72.5
q0 70 80 90q-29 9 -47.5 29t-18.5 48q0 39 32 62.5t78 23.5q45 0 76.5 -24t31.5 -61q0 -58 -63 -78q78 -19 78 -88q0 -49 -33.5 -74.5t-89.5 -25.5zM548 21q43 0 68 19t25 57q0 35 -26 55t-66 20t-67.5 -20.5t-27.5 -55.5q0 -37 26.5 -56t67.5 -19zM549 195q34 0 56 17.5
t22 48.5q0 27 -22.5 44.5t-56.5 17.5q-36 0 -58 -17t-22 -46q0 -30 24 -47.5t57 -17.5z" />
    <glyph glyph-name="seveneighths" unicode="&#x215e;" horiz-adv-x="683" 
d="M218 689h-196v26h235v-5l-142 -339h-32zM548 715h31l-522 -715h-31zM523 -4q-54 0 -89 25.5t-35 72.5q0 70 80 90q-29 9 -47.5 29t-18.5 48q0 39 32 62.5t78 23.5q45 0 76.5 -24t31.5 -61q0 -58 -63 -78q78 -19 78 -88q0 -49 -33.5 -74.5t-89.5 -25.5zM523 21q43 0 68 19
t25 57q0 35 -26 55t-66 20t-67.5 -20.5t-27.5 -55.5q0 -37 26.5 -56t67.5 -19zM524 195q34 0 56 17.5t22 48.5q0 27 -22.5 44.5t-56.5 17.5q-36 0 -58 -17t-22 -46q0 -30 24 -47.5t57 -17.5z" />
    <glyph glyph-name="Delta" unicode="&#x2206;" horiz-adv-x="643" 
d="M35 9l260 706h51l262 -706v-9h-573v9zM76 31h488l-244 658z" />
    <glyph glyph-name="minus" unicode="&#x2212;" horiz-adv-x="505" 
d="M37 357h431v-30h-431v30z" />
    <glyph glyph-name="approxequal" unicode="&#x2248;" horiz-adv-x="493" 
d="M37 189q5 42 30.5 67t68.5 25q41 0 115 -30t107 -30q29 0 47 18t21 44h30q-5 -42 -30.5 -67t-67.5 -25q-41 0 -115 29.5t-108 29.5q-29 0 -46.5 -17.5t-21.5 -43.5h-30zM37 349q5 42 30.5 67t68.5 25q41 0 115 -30t107 -30q29 0 47 18t21 44h30q-5 -41 -31 -66.5
t-67 -25.5t-115 30t-108 30q-29 0 -46.5 -17.5t-21.5 -44.5h-30z" />
    <glyph glyph-name="notequal" unicode="&#x2260;" horiz-adv-x="484" 
d="M40 413h229l58 125h33l-58 -125h142v-30h-156l-59 -129h215v-30h-229l-57 -126h-32l57 126h-143v30h157l59 129h-216v30z" />
    <glyph glyph-name="lessequal" unicode="&#x2264;" horiz-adv-x="491" 
d="M49 320v10l384 204v-34l-332 -175l332 -175v-34zM49 30h384v-30h-384v30z" />
    <glyph glyph-name="greaterequal" unicode="&#x2265;" horiz-adv-x="491" 
d="M58 150l332 175l-332 175v34l384 -204v-10l-384 -204v34zM58 30h384v-30h-384v30z" />
    <glyph glyph-name="uni24C5" unicode="&#x24c5;" horiz-adv-x="844" 
d="M315 568h113q143 0 143 -119v-2q0 -119 -143 -119h-80v-178h-33v418zM428 354q110 0 110 93v2q0 92 -110 92h-80v-187h80zM421 -9q-154 0 -260 105.5t-106 260.5q0 153 107 260t261 107q155 0 260.5 -106t105.5 -259q0 -156 -106.5 -262t-261.5 -106zM421 17
q142 0 240.5 98t98.5 244q0 144 -97 241.5t-240 97.5q-142 0 -240.5 -98.5t-98.5 -242.5q0 -145 98.5 -242.5t238.5 -97.5z" />
    <glyph glyph-name="zero.tab" unicode="&#xe44f;" 
d="M302 24q206 0 206 258v156q0 120 -55 187t-154 67t-152 -66.5t-53 -191.5v-154q0 -127 54 -191.5t154 -64.5zM302 -7q-115 0 -180 74.5t-65 211.5v155q0 136 65 212t177 76t178.5 -75.5t66.5 -208.5v-156q0 -139 -63 -214t-179 -75z" />
    <glyph glyph-name="one.tab" unicode="&#xe450;" 
d="M334 672l-236 -186v36l242 193h29v-715h-35v672z" />
    <glyph glyph-name="two.tab" unicode="&#xe451;" 
d="M57 9l289 295q63 63 90.5 116t27.5 112q0 78 -45 119t-122 41q-76 0 -124.5 -44.5t-59.5 -132.5h-33q8 97 67.5 152t149.5 55t146.5 -50.5t56.5 -140.5q0 -64 -31.5 -122.5t-99.5 -125.5l-253 -252h398v-31h-457v9z" />
    <glyph glyph-name="three.tab" unicode="&#xe452;" 
d="M296 -7q-104 0 -166 59t-66 144h34q6 -74 57 -123t141 -49q89 0 139 44.5t50 128.5q0 72 -44 117t-128 45h-50v31h47q76 0 114 41.5t38 103.5q0 68 -42 112t-116 44q-76 0 -123.5 -44.5t-56.5 -113.5h-32q6 82 64.5 135.5t147.5 53.5t141 -53t52 -133q0 -58 -32.5 -101.5
t-87.5 -57.5q65 -13 104.5 -60t39.5 -120q0 -95 -62 -149.5t-163 -54.5z" />
    <glyph glyph-name="four.tab" unicode="&#xe453;" 
d="M411 167h-365v11l347 537h53v-517h96v-31h-96v-167h-35v167zM411 198v491l-317 -491h317z" />
    <glyph glyph-name="five.tab" unicode="&#xe454;" 
d="M287 -7q-99 0 -159 54t-66 131h34q9 -66 57.5 -110t132.5 -44q94 0 146.5 55t52.5 151q0 89 -53 144.5t-133 55.5q-115 0 -183 -83h-14v368h383v-31h-351v-289q64 66 170 66q93 0 155 -63.5t62 -167.5q0 -109 -64.5 -173t-169.5 -64z" />
    <glyph glyph-name="six.tab" unicode="&#xe455;" 
d="M311 -7q-123 0 -183.5 78t-60.5 208v73q0 190 70.5 280t192.5 90q79 0 131 -39t64 -117h-34q-22 125 -163 125q-225 0 -225 -331v-48q23 66 82 101.5t128 35.5q111 0 172.5 -63.5t61.5 -162.5q0 -102 -65.5 -166t-170.5 -64zM311 23q91 0 145 55t54 144q0 91 -51.5 144
t-149.5 53q-83 0 -141.5 -51t-58.5 -137q0 -87 51 -147.5t151 -60.5z" />
    <glyph glyph-name="seven.tab" unicode="&#xe456;" 
d="M482 685h-401v30h447v-7l-289 -708h-38z" />
    <glyph glyph-name="eight.tab" unicode="&#xe457;" 
d="M301 -7q-100 0 -168 54t-68 150q0 74 47.5 123.5t124.5 65.5q-62 15 -101 56t-39 104q0 79 60 127.5t144 48.5t143.5 -48.5t59.5 -125.5q0 -65 -37 -106t-98 -56q77 -16 122 -64t45 -123q0 -98 -66.5 -152t-168.5 -54zM301 24q90 0 144 45.5t54 130.5q0 79 -56 124.5
t-140 45.5t-142.5 -46.5t-58.5 -125.5q0 -84 56 -129t143 -45zM304 400q72 0 118 38.5t46 109.5q0 63 -47 103.5t-120 40.5q-74 0 -121 -40.5t-47 -105.5q0 -68 51.5 -107t119.5 -39z" />
    <glyph glyph-name="nine.tab" unicode="&#xe458;" 
d="M283 -7q-83 0 -140.5 42t-72.5 121h36q14 -64 60 -98t118 -34q52 0 90 14.5t67.5 48.5t44 95.5t14.5 151.5v63q-23 -63 -83.5 -97t-130.5 -34q-109 0 -170 62.5t-61 163.5q0 104 65 167t171 63q122 0 183 -77t61 -203v-105q0 -187 -64 -265.5t-188 -78.5zM289 295
q85 0 145.5 50t60.5 133q0 88 -52.5 151t-151.5 63q-91 0 -145.5 -55t-54.5 -144q0 -90 51 -144t147 -54z" />
    <glyph glyph-name="cent.tab" unicode="&#xe459;" 
d="M300 -7q-101 6 -165.5 77t-64.5 187v8q0 115 65.5 187t164.5 78v99h29v-99q78 -4 135 -48.5t66 -119.5h-34q-9 62 -55.5 98t-111.5 40v-478q69 4 116 44.5t59 110.5h32q-12 -81 -68.5 -130.5t-138.5 -53.5v-128h-29v128zM105 257q0 -105 54.5 -167t140.5 -68v478
q-86 -6 -140.5 -68t-54.5 -167v-8z" />
    <glyph glyph-name="dollar.tab" unicode="&#xe45a;" 
d="M284 -6q-110 6 -169 60.5t-69 142.5h35q24 -164 203 -174v337q-111 19 -161.5 61.5t-50.5 118.5q0 80 58.5 129t153.5 53v91h30v-92q87 -4 139.5 -48t64.5 -120h-34q-25 131 -170 138v-304q123 -19 175 -60.5t52 -136.5q0 -83 -61.5 -139t-165.5 -58v-128h-30v129z
M506 189q0 79 -43.5 115t-148.5 52v-333q89 2 140.5 48.5t51.5 117.5zM106 542q0 -62 40 -97t138 -53v300q-85 -3 -131.5 -42t-46.5 -108z" />
    <glyph glyph-name="Euro.tab" unicode="&#xe45b;" 
d="M34 441h61q2 132 63 206.5t173 74.5q184 0 209 -194h-34q-23 164 -175 164q-97 0 -147.5 -65t-52.5 -186h233l-5 -28h-228v-110h207l-5 -28h-202q5 -251 200 -251q161 0 187 179h33q-13 -102 -69 -156t-151 -54q-113 0 -173.5 73.5t-62.5 208.5h-61v28h61v110h-61v28z
" />
    <glyph glyph-name="a.alt" unicode="&#xe4c0;" horiz-adv-x="593" 
d="M273 -8q-97 0 -164 71t-67 193v8q0 118 70 192.5t169 74.5q75 0 123.5 -40t73.5 -102v134h34v-523h-34v141q-20 -58 -75.5 -103.5t-129.5 -45.5zM275 22q84 0 144 64t60 171v8q0 110 -56 173t-140 63q-87 0 -146.5 -64t-59.5 -172v-8q0 -109 56.5 -172t141.5 -63z" />
    <glyph glyph-name="t.alt" unicode="&#xe4d3;" horiz-adv-x="307" 
d="M114 494h-91v29h91v119h35v-119h133v-29h-133v-494h-35v494z" />
    <glyph glyph-name="f_i" unicode="&#xfb01;" horiz-adv-x="517" 
d="M107 494h-82v29h82v99q0 80 38 117t99 37q28 0 54 -7v-30q-26 8 -53 8q-103 0 -103 -122v-102h156v-29h-156v-494h-35v494zM399 523h34v-523h-34v523zM416 637q-11 0 -19 8t-8 19t8 18.5t19 7.5t18.5 -7.5t7.5 -18.5t-7.5 -19t-18.5 -8z" />
    <glyph glyph-name="f_l" unicode="&#xfb02;" horiz-adv-x="517" 
d="M107 494h-82v29h82v99q0 80 38 117t99 37q28 0 54 -7v-30q-26 8 -53 8q-103 0 -103 -122v-102h156v-29h-156v-494h-35v494zM399 773h35v-773h-35v773z" />
    <glyph glyph-name="six.den" horiz-adv-x="316" 
d="M161 -4q-64 0 -93.5 40t-29.5 108v24q0 89 36 134t97 45q90 0 101 -79h-28q-11 55 -75 55q-47 0 -74 -36.5t-27 -111.5v-14q11 26 39 41.5t60 15.5q53 0 84 -30t31 -79q0 -51 -33.5 -82t-87.5 -31zM161 21q40 0 65.5 24t25.5 63q0 40 -24 64t-65 24q-38 0 -65 -23.5
t-27 -61.5q0 -39 23.5 -64.5t66.5 -25.5z" />
    <glyph glyph-name="four.num" horiz-adv-x="305" 
d="M201 448h-182v11l171 256h41v-243h47v-24h-47v-77h-30v77zM201 472v221l-145 -221h145z" />
    <glyph glyph-name="uni0434.bgr" horiz-adv-x="602" 
d="M279 46q88 0 148.5 61t60.5 163v7q0 104 -56.5 164t-144.5 60q-90 0 -150 -60.5t-60 -163.5v-8q0 -103 56.5 -163t145.5 -60zM286 -187q-105 0 -163.5 44.5t-69.5 112.5h35q10 -57 59.5 -92t137.5 -35q92 0 147 46.5t55 146.5v125q-20 -58 -76 -101t-134 -43
q-101 0 -168 68t-67 183v8q0 112 70 183.5t173 71.5q145 0 202 -139v131h34v-489q0 -112 -63.5 -166.5t-171.5 -54.5z" />
    <glyph glyph-name="uni20B4.oldtab" 
d="M292 -7q-98 0 -153.5 41t-55.5 120q0 75 53 122h-79v26h113q33 21 135 73q37 18 62 33h-310v26h350q57 45 57 120q0 59 -39 88t-110 29q-153 0 -177 -132h-33q12 77 65.5 119t144.5 42q86 0 134.5 -37t48.5 -108q0 -75 -49 -121h98v-26h-131q-33 -24 -104 -58
l-47.5 -24.5t-44.5 -23.5h327v-26h-367q-62 -47 -62 -121q0 -64 47 -98.5t127 -34.5q93 0 141 46t59 120h35q-13 -88 -70.5 -141.5t-164.5 -53.5z" />
    <glyph glyph-name="backslash.uc" horiz-adv-x="383" 
d="M41 778h34l271 -862h-33z" />
    <glyph glyph-name="slash.uc" horiz-adv-x="383" 
d="M308 778h34l-272 -862h-33z" />
    <glyph glyph-name="braceright.uc" horiz-adv-x="353" 
d="M40 -59q86 0 120.5 34t17.5 124l-18 101q-22 121 92 146q-114 27 -92 146l18 101q17 90 -17.5 124t-120.5 34v28q102 0 145 -43t26 -145l-18 -98q-22 -133 117 -133v-28q-139 0 -117 -133l18 -98q17 -102 -26 -145t-145 -43v28z" />
    <glyph glyph-name="braceleft.uc" horiz-adv-x="353" 
d="M312 -87q-102 0 -144.5 43t-25.5 145l18 98q22 133 -117 133v28q139 0 117 133l-18 98q-17 102 25.5 145t144.5 43v-28q-85 0 -119.5 -34t-17.5 -124l17 -101q22 -119 -91 -146q113 -25 91 -146l-17 -101q-17 -90 17.5 -124t119.5 -34v-28z" />
    <glyph glyph-name="bracketright.uc" horiz-adv-x="331" 
d="M40 -56h160v806h-160v28h194v-862h-194v28z" />
    <glyph glyph-name="uni043D.bgr" horiz-adv-x="561" 
d="M445 258h-329v-258h-34v523h34v-236h329v236h34v-523h-34v258z" />
    <glyph glyph-name="bracketleft.uc" horiz-adv-x="331" 
d="M96 778h194v-28h-159v-806h159v-28h-194v862z" />
    <glyph glyph-name="parenright.uc" horiz-adv-x="281" 
d="M29 -98q159 203 159 440q0 244 -159 441h35q159 -192 159 -441q0 -248 -159 -440h-35z" />
    <glyph glyph-name="uni043F.locl" horiz-adv-x="551" 
d="M435 494h-319v-494h-34v523h387v-523h-34v494z" />
    <glyph glyph-name="parenleft.uc" horiz-adv-x="281" 
d="M217 -98q-159 192 -159 440q0 249 159 441h35q-159 -197 -159 -441q0 -237 159 -440h-35z" />
    <glyph glyph-name="uni20BD.old" horiz-adv-x="583" 
d="M311 338q195 0 195 166v4q0 161 -197 161h-143v-331h145zM166 177v-177h-34v177h-98v26h98v106h-98v26h98v364h176q109 0 171.5 -46t62.5 -145v-4q0 -101 -62 -148.5t-170 -47.5h-144v-105h256v-26h-256z" />
    <glyph glyph-name="guillemotright.uc" horiz-adv-x="415" 
d="M181 301l-136 181h36l138 -181l-138 -180h-36zM326 301l-136 181h36l138 -181l-138 -180h-36z" />
    <glyph glyph-name="uni0446.bgr" horiz-adv-x="591" 
d="M533 -127l-4 127h-75v112q-19 -51 -70.5 -85.5t-121.5 -34.5q-186 0 -186 201v330h34v-329q0 -171 157 -171q75 0 131 48t56 133v319h34v-493h72v-157h-27z" />
    <glyph glyph-name="uni044C.bgr" horiz-adv-x="475" 
d="M258 -7q-82 0 -129.5 46.5t-47.5 127.5v356h34v-206q56 14 126 14q93 0 145.5 -43t52.5 -121v-3q0 -78 -51 -124.5t-130 -46.5zM258 21q68 0 107.5 39t39.5 103v3q0 64 -42 100.5t-122 36.5q-67 0 -126 -14v-122q0 -67 37.5 -106.5t105.5 -39.5z" />
    <glyph glyph-name="guillemotleft.uc" horiz-adv-x="415" 
d="M52 301l137 181h36l-136 -181l136 -180h-36zM197 301l137 181h36l-136 -181l136 -180h-36z" />
    <glyph glyph-name="uni0439.bgr" horiz-adv-x="569" 
d="M280 614q-49 0 -83.5 33t-38.5 84h31q3 -39 28 -65.5t63 -26.5t64 26.5t30 65.5h31q-4 -51 -40 -84t-85 -33zM262 -8q-186 0 -186 201v330h34v-329q0 -171 157 -171q75 0 131 48t56 133v319h34v-523h-34v112q-19 -51 -70.5 -85.5t-121.5 -34.5z" />
    <glyph glyph-name="guilsinglright.uc" horiz-adv-x="270" 
d="M181 301l-136 181h36l138 -181l-138 -180h-36z" />
    <glyph glyph-name="guilsinglleft.uc" horiz-adv-x="270" 
d="M52 301l137 181h36l-136 -181l136 -180h-36z" />
    <glyph glyph-name="uni0414.bgr" horiz-adv-x="691" 
d="M102 31h486l-244 655zM30 -130h-30v161h68l253 684h48l254 -684h68v-161h-30l-3 130h-624z" />
    <glyph glyph-name="uni043B.bgr" horiz-adv-x="508" 
d="M482 0h-37l-193 490l-191 -490h-35l204 523h46z" />
    <glyph glyph-name="emdash.uc" horiz-adv-x="859" 
d="M47 351h765v-30h-765v30z" />
    <glyph glyph-name="uni041A.bgr" horiz-adv-x="588" 
d="M94 715h36v-715h-36v715zM135 364l365 351h42l-363 -348l381 -367h-45z" />
    <glyph glyph-name="uni0436.bgr" horiz-adv-x="659" 
d="M313 773h33v-773h-33v773zM601 0l-251 274l237 249h39l-239 -248l255 -275h-41zM18 0l255 275l-239 248h38l237 -249l-251 -274h-40z" />
    <glyph glyph-name="endash.uc" horiz-adv-x="489" 
d="M47 351h394v-30h-394v30z" />
    <glyph glyph-name="hyphen.uc" horiz-adv-x="355" 
d="M63 353h229v-33h-229v33z" />
    <glyph glyph-name="uni20B8.old" horiz-adv-x="543" 
d="M31 668v26h482v-26h-482zM254 538h-223v29h482v-29h-224v-538h-35v538z" />
    <glyph glyph-name="uni0432.bgr" horiz-adv-x="496" 
d="M61 534q0 122 49.5 183.5t135.5 61.5t134 -52t48 -135v-3q0 -68 -33 -116t-85 -58q62 -10 103 -60.5t41 -128.5v-6q0 -105 -56.5 -166t-140.5 -61q-196 0 -196 242v299zM95 429h158q69 0 104 45.5t35 114.5v3q0 70 -37 114t-110 44q-71 0 -110.5 -53.5t-39.5 -160.5v-107
zM256 23q72 0 117.5 51t45.5 146v6q0 77 -43 126t-122 49h-159v-167q0 -211 161 -211z" />
    <glyph glyph-name="exclamdown.uc" horiz-adv-x="263" 
d="M116 551h28l5 -551h-38zM131 663q-12 0 -20 8.5t-8 19.5q0 12 8 20.5t20 8.5q13 0 21 -8.5t8 -20.5q0 -11 -8 -19.5t-21 -8.5z" />
    <glyph glyph-name="questiondown.uc" horiz-adv-x="469" 
d="M276 489q0 -37 -14.5 -70t-31 -52t-53.5 -56q-36 -36 -49.5 -50.5t-28.5 -45.5t-15 -65q0 -58 36.5 -92.5t108.5 -34.5t117.5 43.5t50.5 118.5h34q-6 -88 -61.5 -140t-141.5 -52q-87 0 -133 43.5t-46 113.5q0 21 4.5 40t8.5 30.5t18.5 30.5t19 24.5t27 27.5t26.5 27
q34 34 49.5 52.5t28.5 47t13 61.5v60h32v-62zM260 720q12 0 20.5 -8.5t8.5 -20.5q0 -11 -8.5 -19.5t-20.5 -8.5t-20.5 8.5t-8.5 19.5q0 12 8.5 20.5t20.5 8.5z" />
    <glyph glyph-name="caron.alt" horiz-adv-x="292" 
d="M133 773h37l-23 -154h-27z" />
    <glyph glyph-name="registered.alt" horiz-adv-x="844" 
d="M304 572h113q143 0 143 -112v-2q0 -96 -107 -109l132 -195h-36l-130 191h-83v-191h-32v418zM417 371q110 0 110 86v3q0 46 -28 65.5t-82 19.5h-81v-174h81zM421 -9q-154 0 -260 105.5t-106 260.5q0 153 107 260t261 107q155 0 260.5 -106t105.5 -259q0 -156 -106.5 -262
t-261.5 -106zM421 17q142 0 240.5 98t98.5 244q0 144 -97 241.5t-240 97.5q-142 0 -240.5 -98.5t-98.5 -242.5q0 -145 98.5 -242.5t238.5 -97.5z" />
    <glyph glyph-name="uni0424.bgr" horiz-adv-x="778" 
d="M407 656q149 -2 235 -77t86 -214v-8q0 -140 -87.5 -215.5t-233.5 -75.5v-76h-36v76q-148 0 -234.5 75t-86.5 214v7q0 142 87 217t234 77v69h36v-69zM407 95q134 0 209.5 66t75.5 196v8q0 128 -75 194.5t-210 67.5v-532zM371 626q-134 0 -209 -66t-75 -198v-7
q0 -128 74.5 -193.5t209.5 -66.5v531z" />
    <glyph glyph-name="space_uni0326.alt" horiz-adv-x="400" 
d="M171 619l68 142l24 -11l-58 -140z" />
    <glyph glyph-name="tcommaaccent.alt" horiz-adv-x="307" 
d="M62 -184l58 140l34 -9l-68 -142zM114 494h-91v29h91v119h35v-119h133v-29h-133v-494h-35v494z" />
    <glyph glyph-name="tcaron.alt" horiz-adv-x="307" 
d="M114 494h-91v29h91v119h35v-119h133v-29h-133v-494h-35v494zM248 773h37l-23 -154h-27z" />
    <glyph glyph-name="uni0442.bgr" horiz-adv-x="900" 
d="M81 523h34v-111q19 49 67.5 84t113.5 35q137 0 164 -129q24 59 75 94t116 35q173 0 173 -202v-329h-34v330q0 90 -36.5 130.5t-107.5 40.5q-70 0 -123 -49t-53 -134v-318h-34v330q0 90 -36.5 130.5t-107.5 40.5t-124 -49t-53 -134v-318h-34v523z" />
    <glyph glyph-name="tbar.alt" horiz-adv-x="307" 
d="M23 342h91v152h-91v29h91v119h35v-119h133v-29h-133v-152h133v-27h-133v-315h-35v315h-91v27z" />
    <glyph glyph-name="germandbls.alt" horiz-adv-x="583" 
d="M382 -5q-76 0 -121 40.5t-49 99.5h33q4 -46 39.5 -78.5t97.5 -32.5q59 0 94.5 32.5t35.5 89.5q0 25 -8 43.5t-25 33.5t-35.5 26t-47.5 26q-7 3 -10 5l-54 29t-37 25t-28.5 32.5t-7.5 37.5q0 25 18 48.5t43.5 43l51 39.5t43.5 46.5t18 55.5q0 51 -37 80.5t-100 29.5
q-86 0 -133.5 -54t-47.5 -146v-547h-34v546q0 105 58 167.5t157 62.5q78 0 124.5 -37t46.5 -101q0 -34 -18 -63.5t-44 -49.5l-52 -38.5t-44 -39.5t-18 -43q0 -31 43 -57q10 -6 73 -40q39 -21 56.5 -32.5t41.5 -31.5t33.5 -43t9.5 -53q0 -71 -46 -111.5t-120 -40.5z" />
    <glyph glyph-name="atilde.alt" horiz-adv-x="593" 
d="M273 -8q-97 0 -164 71t-67 193v8q0 118 70 192.5t169 74.5q75 0 123.5 -40t73.5 -102v134h34v-523h-34v141q-20 -58 -75.5 -103.5t-129.5 -45.5zM275 22q84 0 144 64t60 171v8q0 110 -56 173t-140 63q-87 0 -146.5 -64t-59.5 -172v-8q0 -109 56.5 -172t141.5 -63z
M356 615q-28 0 -71.5 29t-61.5 29t-32 -15t-18 -43h-27q5 44 26 66t52 22q25 0 69.5 -29.5t63.5 -29.5q18 0 31.5 15.5t17.5 43.5h27q-5 -43 -26 -65.5t-51 -22.5z" />
    <glyph glyph-name="aringacute.alt" horiz-adv-x="593" 
d="M273 -8q-97 0 -164 71t-67 193v8q0 118 70 192.5t169 74.5q75 0 123.5 -40t73.5 -102v134h34v-523h-34v141q-20 -58 -75.5 -103.5t-129.5 -45.5zM275 22q84 0 144 64t60 171v8q0 110 -56 173t-140 63q-87 0 -146.5 -64t-59.5 -172v-8q0 -109 56.5 -172t141.5 -63z
M288 620q29 0 48 19.5t19 47.5q0 29 -19 48.5t-48 19.5q-27 0 -46.5 -19.5t-19.5 -48.5q0 -28 19.5 -47.5t46.5 -19.5zM288 598q-37 0 -64.5 26.5t-27.5 62.5q0 38 27 64.5t65 26.5q39 0 66 -26.5t27 -64.5q0 -36 -27 -62.5t-66 -26.5zM338 950h41l-81 -120h-29z" />
    <glyph glyph-name="aring.alt" horiz-adv-x="593" 
d="M273 -8q-97 0 -164 71t-67 193v8q0 118 70 192.5t169 74.5q75 0 123.5 -40t73.5 -102v134h34v-523h-34v141q-20 -58 -75.5 -103.5t-129.5 -45.5zM275 22q84 0 144 64t60 171v8q0 110 -56 173t-140 63q-87 0 -146.5 -64t-59.5 -172v-8q0 -109 56.5 -172t141.5 -63z
M288 625q29 0 48 19.5t19 47.5q0 29 -19 48.5t-48 19.5q-27 0 -46.5 -19.5t-19.5 -48.5q0 -28 19.5 -47.5t46.5 -19.5zM288 603q-37 0 -64.5 26.5t-27.5 62.5q0 38 27 64.5t65 26.5q39 0 66 -26.5t27 -64.5q0 -36 -27 -62.5t-66 -26.5z" />
    <glyph glyph-name="aogonek.alt" horiz-adv-x="593" 
d="M484 -182q-41 0 -63.5 20t-22.5 52q0 61 81 114h-1v137q-20 -58 -75.5 -103.5t-129.5 -45.5q-97 0 -164 71t-67 193v8q0 118 70 192.5t169 74.5q75 0 123.5 -40t73.5 -102v134h34v-522q-81 -55 -81 -107q0 -22 14.5 -35.5t42.5 -13.5q25 0 49 9v-26q-21 -10 -53 -10z
M275 22q84 0 144 64t60 171v8q0 110 -56 173t-140 63q-87 0 -146.5 -64t-59.5 -172v-8q0 -109 56.5 -172t141.5 -63z" />
    <glyph glyph-name="amacron.alt" horiz-adv-x="593" 
d="M273 -8q-97 0 -164 71t-67 193v8q0 118 70 192.5t169 74.5q75 0 123.5 -40t73.5 -102v134h34v-523h-34v141q-20 -58 -75.5 -103.5t-129.5 -45.5zM275 22q84 0 144 64t60 171v8q0 110 -56 173t-140 63q-87 0 -146.5 -64t-59.5 -172v-8q0 -109 56.5 -172t141.5 -63z
M174 675h230v-28h-230v28z" />
    <glyph glyph-name="agrave.alt" horiz-adv-x="593" 
d="M273 -8q-97 0 -164 71t-67 193v8q0 118 70 192.5t169 74.5q75 0 123.5 -40t73.5 -102v134h34v-523h-34v141q-20 -58 -75.5 -103.5t-129.5 -45.5zM275 22q84 0 144 64t60 171v8q0 110 -56 173t-140 63q-87 0 -146.5 -64t-59.5 -172v-8q0 -109 56.5 -172t141.5 -63z
M196 747h41l72 -147h-29z" />
    <glyph glyph-name="adieresis.alt" horiz-adv-x="593" 
d="M273 -8q-97 0 -164 71t-67 193v8q0 118 70 192.5t169 74.5q75 0 123.5 -40t73.5 -102v134h34v-523h-34v141q-20 -58 -75.5 -103.5t-129.5 -45.5zM275 22q84 0 144 64t60 171v8q0 110 -56 173t-140 63q-87 0 -146.5 -64t-59.5 -172v-8q0 -109 56.5 -172t141.5 -63z
M213 638q-11 0 -18.5 7.5t-7.5 18.5t7.5 18.5t18.5 7.5t18.5 -7.5t7.5 -18.5t-7.5 -18.5t-18.5 -7.5zM367 638q-11 0 -18.5 7.5t-7.5 18.5t7.5 18.5t18.5 7.5t18.5 -7.5t7.5 -18.5t-7.5 -18.5t-18.5 -7.5z" />
    <glyph glyph-name="acircumflex.alt" horiz-adv-x="593" 
d="M273 -8q-97 0 -164 71t-67 193v8q0 118 70 192.5t169 74.5q75 0 123.5 -40t73.5 -102v134h34v-523h-34v141q-20 -58 -75.5 -103.5t-129.5 -45.5zM275 22q84 0 144 64t60 171v8q0 110 -56 173t-140 63q-87 0 -146.5 -64t-59.5 -172v-8q0 -109 56.5 -172t141.5 -63z
M273 729h34l109 -129h-30l-96 100l-98 -100h-30z" />
    <glyph glyph-name="abreve.alt" horiz-adv-x="593" 
d="M273 -8q-97 0 -164 71t-67 193v8q0 118 70 192.5t169 74.5q75 0 123.5 -40t73.5 -102v134h34v-523h-34v141q-20 -58 -75.5 -103.5t-129.5 -45.5zM275 22q84 0 144 64t60 171v8q0 110 -56 173t-140 63q-87 0 -146.5 -64t-59.5 -172v-8q0 -109 56.5 -172t141.5 -63z
M288 614q-50 0 -81.5 31.5t-35.5 82.5h30q4 -39 26.5 -62t60.5 -23q36 0 60 23t29 62h29q-3 -51 -36.5 -82.5t-81.5 -31.5z" />
    <glyph glyph-name="aacute.alt" horiz-adv-x="593" 
d="M273 -8q-97 0 -164 71t-67 193v8q0 118 70 192.5t169 74.5q75 0 123.5 -40t73.5 -102v134h34v-523h-34v141q-20 -58 -75.5 -103.5t-129.5 -45.5zM275 22q84 0 144 64t60 171v8q0 110 -56 173t-140 63q-87 0 -146.5 -64t-59.5 -172v-8q0 -109 56.5 -172t141.5 -63z
M337 747h41l-84 -147h-28z" />
    <glyph glyph-name="bar.uc" horiz-adv-x="233" 
d="M101 778h31v-862h-31v862z" />
    <glyph glyph-name="at.uc" horiz-adv-x="887" 
d="M452 -59q-187 0 -294.5 115t-107.5 279q0 115 57.5 211.5t152 150t201.5 53.5q171 0 275 -100t104 -254q0 -121 -47 -181.5t-116 -60.5q-105 0 -110 107q-19 -45 -59 -79.5t-94 -34.5q-69 0 -110.5 45t-41.5 123q0 96 55 160.5t131 64.5q52 0 87.5 -29.5t44.5 -75.5
l10 96h35l-26 -225q-18 -123 78 -123q57 0 93.5 53.5t36.5 158.5q0 144 -92.5 234.5t-253.5 90.5q-155 0 -266 -110.5t-111 -273.5q0 -98 40 -179t125.5 -133t202.5 -52q187 0 281 112h36q-38 -61 -121.5 -102t-195.5 -41zM418 175q63 0 108 57t45 135q0 67 -33 105.5
t-88 38.5q-61 0 -107 -55.5t-46 -140.5q0 -65 33 -102.5t88 -37.5z" />
    <glyph glyph-name="minus.sup" horiz-adv-x="314" 
d="M36 613h242v-25h-242v25z" />
    <glyph glyph-name="plus.sup" horiz-adv-x="314" 
d="M143 588h-107v25h107v112h27v-112h108v-25h-108v-111h-27v111z" />
    <glyph glyph-name="nine.sup" horiz-adv-x="315" 
d="M148 425q-43 0 -73 22.5t-36 62.5h29q14 -60 81 -60q99 0 99 137v24q-12 -27 -39.5 -42t-58.5 -15q-53 0 -84.5 30t-31.5 79q0 51 33.5 82.5t87.5 31.5q63 0 93.5 -40t30.5 -108v-36q0 -168 -131 -168zM153 577q38 0 65 23.5t27 61.5t-23.5 64t-66.5 26
q-40 0 -65.5 -24.5t-25.5 -63.5q0 -40 24 -63.5t65 -23.5z" />
    <glyph glyph-name="eight.sup" horiz-adv-x="315" 
d="M158 425q-54 0 -89 25.5t-35 72.5q0 70 80 90q-29 9 -47.5 29t-18.5 48q0 39 32 62.5t78 23.5q45 0 76.5 -24t31.5 -61q0 -58 -63 -78q78 -19 78 -88q0 -49 -33.5 -74.5t-89.5 -25.5zM158 450q43 0 68 19t25 57q0 35 -26 55t-66 20t-67.5 -20.5t-27.5 -55.5
q0 -37 26.5 -56t67.5 -19zM159 624q34 0 56 17.5t22 48.5q0 27 -22.5 44.5t-56.5 17.5q-36 0 -58 -17t-22 -46q0 -30 24 -47.5t57 -17.5z" />
    <glyph glyph-name="seven.sup" horiz-adv-x="271" 
d="M212 747h-196v26h235v-5l-142 -339h-32z" />
    <glyph glyph-name="six.sup" horiz-adv-x="316" 
d="M161 425q-64 0 -93.5 40t-29.5 108v24q0 89 36 134t97 45q90 0 101 -79h-28q-11 55 -75 55q-47 0 -74 -36.5t-27 -111.5v-14q11 26 39 41.5t60 15.5q53 0 84 -30t31 -79q0 -51 -33.5 -82t-87.5 -31zM161 450q40 0 65.5 24t25.5 63q0 40 -24 64t-65 24q-38 0 -65 -23.5
t-27 -61.5q0 -39 23.5 -64.5t66.5 -25.5z" />
    <glyph glyph-name="five.sup" horiz-adv-x="291" 
d="M140 425q-52 0 -81.5 26t-33.5 67h29q13 -68 86 -68q40 0 63 24.5t23 66.5q0 39 -23 64t-59 25q-55 0 -86 -38h-15l1 181h193v-25h-167v-124q30 30 81 30q46 0 76 -31t30 -83q0 -53 -32 -84t-85 -31z" />
    <glyph glyph-name="four.sup" horiz-adv-x="305" 
d="M201 506h-182v11l171 256h41v-243h47v-24h-47v-77h-30v77zM201 530v221l-145 -221h145z" />
    <glyph glyph-name="uni20B4.old" horiz-adv-x="550" 
d="M265 -7q-97 0 -153 41t-56 120q0 75 53 122h-79v26h113q29 19 136 73q37 18 62 33h-311v26h351q30 24 43 51.5t13 68.5q0 117 -149 117q-152 0 -177 -132h-32q11 77 64.5 119t144.5 42q86 0 134.5 -37t48.5 -108q0 -75 -49 -121h98v-26h-131q-33 -24 -104 -58
l-47.5 -24.5t-44.5 -23.5h327v-26h-367q-62 -47 -62 -121q0 -64 47 -98.5t127 -34.5q92 0 140.5 46t60.5 120h34q-13 -88 -70.5 -141.5t-164.5 -53.5z" />
    <glyph glyph-name="three.sup" horiz-adv-x="307" 
d="M154 425q-56 0 -90.5 29t-37.5 73h29q4 -33 29.5 -55t68.5 -22q42 0 64.5 20t22.5 55q0 33 -21.5 52.5t-59.5 19.5h-27v24h25q35 0 54 18.5t19 46.5q0 30 -21 48.5t-56 18.5q-39 0 -60.5 -20.5t-25.5 -52.5h-28q3 41 33.5 68.5t80.5 27.5q48 0 77 -25t29 -64
q0 -59 -60 -77q31 -6 51.5 -28.5t20.5 -56.5q0 -47 -31.5 -73.5t-85.5 -26.5z" />
    <glyph glyph-name="two.sup" horiz-adv-x="285" 
d="M20 437l130 128q38 37 53.5 62t15.5 53q0 34 -21 53t-56 19q-74 0 -85 -85h-28q4 52 34 80.5t80 28.5q48 0 77 -26t29 -69q0 -35 -17.5 -63.5t-58.5 -66.5l-102 -97h181v-25h-232v8z" />
    <glyph glyph-name="one.sup" horiz-adv-x="212" 
d="M111 738l-91 -65v29l99 71h23v-344h-31v309z" />
    <glyph glyph-name="zero.sup" horiz-adv-x="349" 
d="M175 451q108 0 108 137v29q0 65 -29.5 99.5t-79.5 34.5t-78.5 -35t-28.5 -100v-30q0 -67 29 -101t79 -34zM175 425q-64 0 -101.5 42t-37.5 119v29q0 77 37 119t101 42t101.5 -41.5t37.5 -117.5v-30q0 -77 -37 -119.5t-101 -42.5z" />
    <glyph glyph-name="minus.sub" horiz-adv-x="314" 
d="M36 95h242v-25h-242v25z" />
    <glyph glyph-name="plus.sub" horiz-adv-x="314" 
d="M143 70h-107v25h107v112h27v-112h108v-25h-108v-112h-27v112z" />
    <glyph glyph-name="nine.sub" horiz-adv-x="315" 
d="M148 -90q-43 0 -73 22.5t-36 62.5h29q14 -60 81 -60q99 0 99 137v24q-12 -27 -39.5 -42t-58.5 -15q-53 0 -84.5 30t-31.5 79q0 51 33.5 82.5t87.5 31.5q63 0 93.5 -40t30.5 -108v-36q0 -168 -131 -168zM153 62q38 0 65 23.5t27 61.5t-23.5 64t-66.5 26q-40 0 -65.5 -24.5
t-25.5 -63.5t24 -63t65 -24z" />
    <glyph glyph-name="uni20BD.oldtab" 
d="M312 335q194 0 194 165v4q0 86 -51 123t-146 37h-130v-329h133zM179 174v-174h-35v174h-97v26h97v106h-97v26h97v362h164q234 0 234 -190v-4q0 -101 -61.5 -148t-170.5 -47h-131v-105h243v-26h-243z" />
    <glyph glyph-name="eight.sub" horiz-adv-x="315" 
d="M158 -90q-54 0 -89 25.5t-35 72.5q0 70 80 90q-29 9 -47.5 29t-18.5 48q0 39 32 62.5t78 23.5q45 0 76.5 -24t31.5 -61q0 -58 -63 -78q78 -19 78 -88q0 -49 -33.5 -74.5t-89.5 -25.5zM158 -65q43 0 68 19t25 57q0 35 -26 55t-66 20t-67.5 -20.5t-27.5 -55.5
q0 -37 26.5 -56t67.5 -19zM159 109q34 0 56 17.5t22 48.5q0 27 -22.5 44.5t-56.5 17.5q-36 0 -58 -17t-22 -46q0 -30 24 -47.5t57 -17.5z" />
    <glyph glyph-name="seven.sub" horiz-adv-x="271" 
d="M212 232h-196v26h235v-5l-142 -339h-32z" />
    <glyph glyph-name="uni041B.bgr" horiz-adv-x="641" 
d="M319 686l-253 -686h-34l264 715h48l266 -715h-36z" />
    <glyph glyph-name="six.sub" horiz-adv-x="316" 
d="M161 -90q-64 0 -93.5 40t-29.5 108v24q0 89 36 134t97 45q90 0 101 -79h-28q-11 55 -75 55q-47 0 -74 -36.5t-27 -111.5v-14q11 26 39 41.5t60 15.5q53 0 84 -30t31 -79q0 -51 -33.5 -82t-87.5 -31zM161 -65q40 0 65.5 24t25.5 63q0 40 -24 64t-65 24q-38 0 -65 -23.5
t-27 -61.5q0 -39 23.5 -64.5t66.5 -25.5z" />
    <glyph glyph-name="five.sub" horiz-adv-x="291" 
d="M140 -90q-52 0 -81.5 26t-33.5 67h29q13 -68 86 -68q40 0 63 24.5t23 66.5q0 39 -23 64t-59 25q-55 0 -86 -38h-15l1 181h193v-25h-167v-124q30 30 81 30q46 0 76 -31t30 -83q0 -53 -32 -84t-85 -31z" />
    <glyph glyph-name="four.sub" horiz-adv-x="305" 
d="M201 -9h-182v11l171 256h41v-243h47v-24h-47v-77h-30v77zM201 15v221l-145 -221h145z" />
    <glyph glyph-name="three.sub" horiz-adv-x="307" 
d="M154 -90q-56 0 -90.5 29t-37.5 73h29q4 -33 29.5 -55t68.5 -22q42 0 64.5 20t22.5 55q0 33 -21.5 52.5t-59.5 19.5h-27v24h25q35 0 54 18.5t19 46.5q0 30 -21 48.5t-56 18.5q-39 0 -60.5 -20.5t-25.5 -52.5h-28q3 41 33.5 68.5t80.5 27.5q48 0 77 -25t29 -64
q0 -59 -60 -77q31 -6 51.5 -28.5t20.5 -56.5q0 -47 -31.5 -73.5t-85.5 -26.5z" />
    <glyph glyph-name="two.sub" horiz-adv-x="285" 
d="M20 -78l130 128q38 37 53.5 62t15.5 53q0 34 -21 53t-56 19q-74 0 -85 -85h-28q4 52 34 80.5t80 28.5q48 0 77 -26t29 -69q0 -35 -17.5 -63.5t-58.5 -66.5l-102 -97h181v-25h-232v8z" />
    <glyph glyph-name="one.sub" horiz-adv-x="212" 
d="M111 223l-91 -65v29l99 71h23v-344h-31v309z" />
    <glyph glyph-name="zero.sub" horiz-adv-x="349" 
d="M175 -64q108 0 108 137v29q0 65 -29.5 99.5t-79.5 34.5t-78.5 -35t-28.5 -100v-30q0 -67 29 -101t79 -34zM175 -90q-64 0 -101.5 42t-37.5 119v29q0 77 37 119t101 42t101.5 -41.5t37.5 -117.5v-30q0 -77 -37 -119.5t-101 -42.5z" />
    <glyph glyph-name="nine.den" horiz-adv-x="315" 
d="M148 -4q-43 0 -73 22.5t-36 62.5h29q14 -60 81 -60q99 0 99 137v24q-12 -27 -39.5 -42t-58.5 -15q-53 0 -84.5 30t-31.5 79q0 51 33.5 82.5t87.5 31.5q63 0 93.5 -40t30.5 -108v-36q0 -168 -131 -168zM153 148q38 0 65 23.5t27 61.5t-23.5 64t-66.5 26q-40 0 -65.5 -24.5
t-25.5 -63.5t24 -63t65 -24z" />
    <glyph glyph-name="eight.den" horiz-adv-x="315" 
d="M158 -4q-54 0 -89 25.5t-35 72.5q0 70 80 90q-29 9 -47.5 29t-18.5 48q0 39 32 62.5t78 23.5q45 0 76.5 -24t31.5 -61q0 -58 -63 -78q78 -19 78 -88q0 -49 -33.5 -74.5t-89.5 -25.5zM158 21q43 0 68 19t25 57q0 35 -26 55t-66 20t-67.5 -20.5t-27.5 -55.5q0 -37 26.5 -56
t67.5 -19zM159 195q34 0 56 17.5t22 48.5q0 27 -22.5 44.5t-56.5 17.5q-36 0 -58 -17t-22 -46q0 -30 24 -47.5t57 -17.5z" />
    <glyph glyph-name="seven.den" horiz-adv-x="271" 
d="M212 318h-196v26h235v-5l-142 -339h-32z" />
    <glyph glyph-name="uni0431.locl" horiz-adv-x="583" 
d="M291 -8q-104 0 -176.5 72.5t-72.5 182.5v8q0 109 73 181t175 72q12 0 17 -1q-51 22 -76.5 34t-58 30.5t-47 33.5t-25.5 36.5t-11 46.5q0 39 30 62t80 23h165q91 0 129 9v-30q-38 -10 -130 -10h-160q-38 0 -59 -16.5t-21 -43.5q0 -55 86 -102q36 -19 148 -66
q43 -20 72 -40t57 -49.5t41.5 -72t13.5 -96.5v-8q0 -112 -73 -184t-177 -72zM292 22q90 0 152 63t62 163v7q0 103 -59.5 164.5t-153.5 61.5q-89 0 -152.5 -63.5t-63.5 -162.5v-8q0 -98 62.5 -161.5t152.5 -63.5z" />
    <glyph glyph-name="five.den" horiz-adv-x="291" 
d="M140 -4q-52 0 -81.5 26t-33.5 67h29q13 -68 86 -68q40 0 63 24.5t23 66.5q0 39 -23 64t-59 25q-55 0 -86 -38h-15l1 181h193v-25h-167v-124q30 30 81 30q46 0 76 -31t30 -83q0 -53 -32 -84t-85 -31z" />
    <glyph glyph-name="four.den" horiz-adv-x="305" 
d="M201 77h-182v11l171 256h41v-243h47v-24h-47v-77h-30v77zM201 101v221l-145 -221h145z" />
    <glyph glyph-name="three.den" horiz-adv-x="307" 
d="M154 -4q-56 0 -90.5 29t-37.5 73h29q4 -33 29.5 -55t68.5 -22q42 0 64.5 20t22.5 55q0 33 -21.5 52.5t-59.5 19.5h-27v24h25q35 0 54 18.5t19 46.5q0 30 -21 48.5t-56 18.5q-39 0 -60.5 -20.5t-25.5 -52.5h-28q3 41 33.5 68.5t80.5 27.5q48 0 77 -25t29 -64
q0 -59 -60 -77q31 -6 51.5 -28.5t20.5 -56.5q0 -47 -31.5 -73.5t-85.5 -26.5z" />
    <glyph glyph-name="two.den" horiz-adv-x="285" 
d="M20 8l130 128q38 37 53.5 62t15.5 53q0 34 -21 53t-56 19q-74 0 -85 -85h-28q4 52 34 80.5t80 28.5q48 0 77 -26t29 -69q0 -35 -17.5 -63.5t-58.5 -66.5l-102 -97h181v-25h-232v8z" />
    <glyph glyph-name="one.den" horiz-adv-x="212" 
d="M111 309l-91 -65v29l99 71h23v-344h-31v309z" />
    <glyph glyph-name="zero.den" horiz-adv-x="349" 
d="M175 22q108 0 108 137v29q0 65 -29.5 99.5t-79.5 34.5t-78.5 -35t-28.5 -100v-30q0 -67 29 -101t79 -34zM175 -4q-64 0 -101.5 42t-37.5 119v29q0 77 37 119t101 42t101.5 -41.5t37.5 -117.5v-30q0 -77 -37 -119.5t-101 -42.5z" />
    <glyph glyph-name="nine.num" horiz-adv-x="315" 
d="M148 367q-43 0 -73 22.5t-36 62.5h29q14 -60 81 -60q99 0 99 137v24q-12 -27 -39.5 -42t-58.5 -15q-53 0 -84.5 30t-31.5 79q0 51 33.5 82.5t87.5 31.5q63 0 93.5 -40t30.5 -108v-36q0 -168 -131 -168zM153 519q38 0 65 23.5t27 61.5t-23.5 64t-66.5 26
q-40 0 -65.5 -24.5t-25.5 -63.5q0 -40 24 -63.5t65 -23.5z" />
    <glyph glyph-name="eight.num" horiz-adv-x="315" 
d="M158 367q-54 0 -89 25.5t-35 72.5q0 70 80 90q-29 9 -47.5 29t-18.5 48q0 39 32 62.5t78 23.5q45 0 76.5 -24t31.5 -61q0 -58 -63 -78q78 -19 78 -88q0 -49 -33.5 -74.5t-89.5 -25.5zM158 392q43 0 68 19t25 57q0 35 -26 55t-66 20t-67.5 -20.5t-27.5 -55.5
q0 -37 26.5 -56t67.5 -19zM159 566q34 0 56 17.5t22 48.5q0 27 -22.5 44.5t-56.5 17.5q-36 0 -58 -17t-22 -46q0 -30 24 -47.5t57 -17.5z" />
    <glyph glyph-name="seven.num" horiz-adv-x="270" 
d="M212 689h-196v26h235v-5l-142 -339h-32z" />
    <glyph glyph-name="six.num" horiz-adv-x="316" 
d="M161 367q-64 0 -93.5 40t-29.5 108v24q0 89 36 134t97 45q90 0 101 -79h-28q-11 55 -75 55q-47 0 -74 -36.5t-27 -111.5v-14q11 26 39 41.5t60 15.5q53 0 84 -30t31 -79q0 -51 -33.5 -82t-87.5 -31zM161 392q40 0 65.5 24t25.5 63q0 40 -24 64t-65 24q-38 0 -65 -23.5
t-27 -61.5q0 -39 23.5 -64.5t66.5 -25.5z" />
    <glyph glyph-name="five.num" horiz-adv-x="291" 
d="M140 367q-52 0 -81.5 26t-33.5 67h29q13 -68 86 -68q40 0 63 24.5t23 66.5q0 39 -23 64t-59 25q-55 0 -86 -38h-15l1 181h193v-25h-167v-124q30 30 81 30q46 0 76 -31t30 -83q0 -53 -32 -84t-85 -31z" />
    <glyph glyph-name="uni20BD.tab" 
d="M318 345q200 0 200 171v4q0 165 -202 165h-141v-340h143zM175 182v-182h-35v182h-100v27h100v109h-100v27h100v370h175q111 0 175 -47t64 -148v-4q0 -104 -63 -152.5t-174 -48.5h-142v-106h260v-27h-260z" />
    <glyph glyph-name="three.num" horiz-adv-x="307" 
d="M154 367q-56 0 -90.5 29t-37.5 73h29q4 -33 29.5 -55t68.5 -22q42 0 64.5 20t22.5 55q0 33 -21.5 52.5t-59.5 19.5h-27v24h25q35 0 54 18.5t19 46.5q0 30 -21 48.5t-56 18.5q-39 0 -60.5 -20.5t-25.5 -52.5h-28q3 41 33.5 68.5t80.5 27.5q48 0 77 -25t29 -64
q0 -59 -60 -77q31 -6 51.5 -28.5t20.5 -56.5q0 -47 -31.5 -73.5t-85.5 -26.5z" />
    <glyph glyph-name="two.num" horiz-adv-x="285" 
d="M20 379l130 128q38 37 53.5 62t15.5 53q0 34 -21 53t-56 19q-74 0 -85 -85h-28q4 52 34 80.5t80 28.5q48 0 77 -26t29 -69q0 -35 -17.5 -63.5t-58.5 -66.5l-102 -97h181v-25h-232v8z" />
    <glyph glyph-name="one.num" horiz-adv-x="212" 
d="M111 680l-91 -65v29l99 71h23v-344h-31v309z" />
    <glyph glyph-name="zero.num" horiz-adv-x="349" 
d="M175 393q108 0 108 137v29q0 65 -29.5 99.5t-79.5 34.5t-78.5 -35t-28.5 -100v-30q0 -67 29 -101t79 -34zM175 367q-64 0 -101.5 42t-37.5 119v29q0 77 37 119t101 42t101.5 -41.5t37.5 -117.5v-30q0 -77 -37 -119.5t-101 -42.5z" />
    <glyph glyph-name="nine.oldtab" 
d="M284 -104q-82 0 -138 43t-68 120h33q11 -63 57 -98t118 -35q100 0 153.5 75t53.5 244v71q-21 -65 -77.5 -99.5t-123.5 -34.5q-107 0 -167 62t-60 158q0 99 63 161.5t165 62.5q120 0 177.5 -75.5t57.5 -204.5v-100q0 -350 -244 -350zM295 211q79 0 136 51t57 135
q0 83 -49.5 141.5t-145.5 58.5q-87 0 -140 -54t-53 -140q0 -88 50.5 -140t144.5 -52z" />
    <glyph glyph-name="eight.oldtab" 
d="M300 -7q-97 0 -164 53t-67 149q0 73 46 122t120 65q-60 15 -97.5 57t-37.5 105q0 79 59.5 128.5t140.5 49.5q82 0 141 -49t59 -127q0 -66 -35.5 -107t-95.5 -57q74 -16 118.5 -63.5t44.5 -121.5q0 -97 -66 -150.5t-166 -53.5zM300 23q88 0 142.5 45t54.5 130
q0 79 -56 123.5t-139 44.5q-82 0 -140 -45.5t-58 -124.5q0 -83 55.5 -128t140.5 -45zM303 395q71 0 116.5 39.5t45.5 111.5q0 64 -47 105.5t-118 41.5t-118 -41t-47 -108q0 -69 50.5 -109t117.5 -40z" />
    <glyph glyph-name="seven.oldtab" 
d="M479 589h-395v29h439v-7l-293 -708h-36z" />
    <glyph glyph-name="uni043F.bgr" horiz-adv-x="573" 
d="M81 523h34v-114q19 51 72 86.5t123 35.5q88 0 137.5 -51.5t49.5 -156.5v-323h-34v324q0 177 -158 177q-75 0 -132.5 -49.5t-57.5 -134.5v-317h-34v523z" />
    <glyph glyph-name="six.oldtab" 
d="M309 -8q-119 0 -177.5 76.5t-58.5 201.5v95q0 182 69.5 269.5t186.5 87.5q77 0 126 -39.5t61 -111.5h-33q-11 58 -50.5 90t-105.5 32q-101 0 -160 -78.5t-59 -248.5v-63q21 63 78.5 98t123.5 35q108 0 167.5 -61.5t59.5 -158.5q0 -99 -63 -161.5t-165 -62.5zM309 21
q86 0 139 54t53 140q0 89 -50 141t-144 52q-79 0 -136.5 -50.5t-57.5 -133.5t50.5 -143t145.5 -60z" />
    <glyph glyph-name="five.oldtab" 
d="M289 -103q-98 0 -156.5 52t-67.5 129h33q9 -65 58.5 -108.5t131.5 -43.5q93 0 145.5 54t52.5 151q0 89 -52 143.5t-130 54.5q-116 0 -182 -83h-14v372h377v-30h-347v-296q62 66 170 66q92 0 152.5 -62t60.5 -165q0 -108 -64.5 -171t-167.5 -63z" />
    <glyph glyph-name="four.oldtab" 
d="M414 71h-373v11l354 536h54v-517h97v-30h-97v-168h-35v168zM414 101v492l-325 -492h325z" />
    <glyph glyph-name="three.oldtab" 
d="M299 -103q-107 0 -171 59t-68 144h32q6 -75 59 -124.5t148 -49.5q90 0 141 44.5t51 128.5q0 72 -48.5 119t-132.5 47h-53v30h49q77 0 117 41.5t40 103.5q0 71 -42.5 114t-118.5 43q-78 0 -125.5 -44.5t-56.5 -115.5h-32q6 81 65.5 135t148.5 54t142.5 -53t53.5 -133
q0 -60 -33.5 -102t-90.5 -56q66 -13 109 -62t43 -121q0 -94 -62.5 -148t-164.5 -54z" />
    <glyph glyph-name="two.oldtab" 
d="M67 9l252 225q74 65 108.5 113t34.5 107q0 68 -42 105.5t-116 37.5t-122 -44t-58 -125h-33q8 90 67 144t146 54t140 -46t53 -126q0 -66 -38 -118t-119 -123l-208 -183h380v-30h-445v9z" />
    <glyph glyph-name="one.oldtab" 
d="M332 577l-228 -174v34l236 181h26v-618h-34v577z" />
    <glyph glyph-name="zero.oldtab" 
d="M301 22q101 0 153.5 64.5t52.5 186.5v77q0 113 -55.5 180t-152.5 67q-98 0 -151.5 -65.5t-53.5 -183.5v-78q0 -119 54 -183.5t153 -64.5zM301 -8q-113 0 -177.5 74t-64.5 204v78q0 129 64 203.5t176 74.5q111 0 177 -74t66 -202v-77q0 -132 -63 -206.5t-178 -74.5z" />
    <glyph glyph-name="yen.oldtab" 
d="M100 337h176l-210 357h39l197 -340l186 340h34l-196 -357h174v-28h-181v-104h181v-28h-181v-177h-35v177h-184v28h184v104h-184v28z" />
    <glyph glyph-name="sterling.oldtab" 
d="M59 353h72q-26 81 -26 151q0 88 58 142t149 54t142 -46t60 -127h-34q-20 143 -168 143q-77 0 -124.5 -45.5t-47.5 -120.5q0 -66 27 -151h232v-28h-224q21 -78 21 -136q0 -48 -22 -90q38 -2 115.5 -38.5t117.5 -36.5q48 0 76 29t31 83h32q-4 -66 -41 -104.5t-95 -38.5
q-49 0 -128.5 38t-112.5 38q-35 0 -56 -19t-27 -50h-33q6 35 28 61.5t59 34.5q23 41 23 93q0 57 -24 136h-80v28z" />
    <glyph glyph-name="Euro.oldtab" 
d="M33 428h62q2 127 63.5 199.5t170.5 72.5q90 0 141.5 -49t63.5 -140h-33q-23 160 -172 160q-95 0 -146.5 -63t-53.5 -180h235l-5 -28h-230v-106h209l-5 -28h-204q5 -243 200 -243q158 0 183 176h33q-12 -99 -67.5 -152.5t-148.5 -53.5q-110 0 -170.5 71.5t-63.5 201.5h-62
v28h62v106h-62v28z" />
    <glyph glyph-name="dollar.oldtab" 
d="M287 -6q-107 6 -163.5 59t-67.5 138h34q24 -158 197 -168v326q-108 17 -157 59t-49 116q0 78 56.5 125t149.5 51v89h30v-90q84 -4 135.5 -46.5t62.5 -115.5h-33q-25 126 -165 133v-294q119 -19 169 -59.5t50 -132.5q0 -80 -59.5 -134.5t-159.5 -56.5v-127h-30v128z
M501 183q0 76 -41 110.5t-143 50.5v-321q85 2 134.5 47t49.5 113zM114 526q0 -61 39 -95.5t134 -49.5v290q-81 -3 -127 -41t-46 -104z" />
    <glyph glyph-name="braceright.tab" horiz-adv-x="300" 
d="M41 -117q75 0 107 36t13 127l-25 123q-24 112 84 147q-108 35 -84 147l25 123q19 91 -12 127t-108 36v28q94 0 134 -44.5t19 -147.5l-26 -121q-27 -123 104 -134v-28q-64 -4 -90.5 -39t-13.5 -95l26 -120q21 -103 -19 -148t-134 -45v28z" />
    <glyph glyph-name="uni045D.bgr" horiz-adv-x="569" 
d="M262 -8q-186 0 -186 201v330h34v-329q0 -171 157 -171q75 0 131 48t56 133v319h34v-523h-34v112q-19 -51 -70.5 -85.5t-121.5 -34.5zM192 747h41l72 -147h-29z" />
    <glyph glyph-name="braceleft.tab" horiz-adv-x="300" 
d="M259 -145q-94 0 -134 45t-19 148l26 120q13 60 -13.5 95t-90.5 39v28q131 11 104 134l-26 121q-21 103 19 147.5t134 44.5v-28q-76 0 -107.5 -36t-12.5 -127l26 -123q24 -112 -85 -147q109 -35 85 -147l-26 -123q-19 -91 13 -127t107 -36v-28z" />
    <glyph glyph-name="bracketright.tab" horiz-adv-x="300" 
d="M41 -120h145v868h-145v28h179v-924h-179v28z" />
    <glyph glyph-name="bracketleft.tab" horiz-adv-x="300" 
d="M80 776h179v-28h-145v-868h145v-28h-179v924z" />
    <glyph glyph-name="parenright.tab" horiz-adv-x="300" 
d="M38 -148q157 207 157 460q0 254 -157 461h35q157 -201 157 -461q0 -262 -157 -460h-35z" />
    <glyph glyph-name="parenleft.tab" horiz-adv-x="300" 
d="M228 -148q-157 198 -157 460q0 260 157 461h35q-157 -207 -157 -461q0 -253 157 -460h-35z" />
    <glyph glyph-name="semicolon.tab" horiz-adv-x="300" 
d="M74 -101l66 160l34 -15l-75 -157zM152 337q-12 0 -20 8.5t-8 20.5t8 20.5t20 8.5q13 0 21 -8.5t8 -20.5t-8 -20.5t-21 -8.5z" />
    <glyph glyph-name="colon.tab" horiz-adv-x="300" 
d="M150 -5q-12 0 -20.5 8.5t-8.5 20.5t8.5 20.5t20.5 8.5t20.5 -8.5t8.5 -20.5t-8.5 -20.5t-20.5 -8.5zM150 337q-12 0 -20.5 8.5t-8.5 20.5t8.5 20.5t20.5 8.5t20.5 -8.5t8.5 -20.5t-8.5 -20.5t-20.5 -8.5z" />
    <glyph glyph-name="uni20B8.tab" 
d="M54 688v27h492v-27h-492zM282 555h-228v30h492v-30h-228v-555h-36v555z" />
    <glyph glyph-name="comma.tab" horiz-adv-x="300" 
d="M83 -101l66 160l34 -15l-75 -157z" />
    <glyph glyph-name="period.tab" horiz-adv-x="300" 
d="M150 -5q-12 0 -20.5 8.5t-8.5 20.5t8.5 20.5t20.5 8.5t20.5 -8.5t8.5 -20.5t-8.5 -20.5t-20.5 -8.5z" />
    <glyph glyph-name="greaterequal.tab" 
d="M113 150l332 175l-332 175v34l384 -204v-10l-384 -204v34zM113 30h384v-30h-384v30z" />
    <glyph glyph-name="lessequal.tab" 
d="M104 320v10l384 204v-34l-332 -175l332 -175v-34zM104 30h384v-30h-384v30z" />
    <glyph glyph-name="greater.tab" 
d="M113 144l333 178l-333 178v34l384 -207v-10l-384 -207v34z" />
    <glyph glyph-name="less.tab" 
d="M104 317v10l384 207v-34l-333 -178l333 -178v-34z" />
    <glyph glyph-name="approxequal.tab" 
d="M91 189q5 42 30.5 67t68.5 25q41 0 115 -30t107 -30q29 0 47 18t21 44h30q-5 -42 -30.5 -67t-67.5 -25q-41 0 -115 29.5t-108 29.5q-29 0 -46.5 -17.5t-21.5 -43.5h-30zM91 349q5 42 30.5 67t68.5 25q41 0 115 -30t107 -30q29 0 47 18t21 44h30q-5 -41 -31 -66.5
t-67 -25.5t-115 30t-108 30q-29 0 -46.5 -17.5t-21.5 -44.5h-30z" />
    <glyph glyph-name="notequal.tab" 
d="M98 413h229l58 125h33l-58 -125h142v-30h-156l-59 -129h215v-30h-229l-57 -126h-32l57 126h-143v30h157l59 129h-216v30z" />
    <glyph glyph-name="uni043A.bgr" horiz-adv-x="468" 
d="M81 773h34v-773h-34v773zM118 276l275 247h42l-275 -246l291 -277h-44z" />
    <glyph glyph-name="equal.tab" 
d="M98 254h404v-30h-404v30zM98 413h404v-30h-404v30z" />
    <glyph glyph-name="uni0438.bgr" horiz-adv-x="569" 
d="M262 -8q-186 0 -186 201v330h34v-329q0 -171 157 -171q75 0 131 48t56 133v319h34v-523h-34v112q-19 -51 -70.5 -85.5t-121.5 -34.5z" />
    <glyph glyph-name="divide.tab" 
d="M300 143q-12 0 -20.5 8.5t-8.5 20.5t8.5 20.5t20.5 8.5t20.5 -8.5t8.5 -20.5t-8.5 -20.5t-20.5 -8.5zM85 357h431v-30h-431v30zM300 484q-12 0 -20.5 8.5t-8.5 19.5q0 12 8.5 20.5t20.5 8.5t20.5 -8.5t8.5 -20.5q0 -11 -8.5 -19.5t-20.5 -8.5z" />
    <glyph glyph-name="multiply.tab" 
d="M107 171l166 164l-166 166l21 21l165 -165l165 165l21 -21l-165 -166l165 -164l-21 -21l-165 165l-165 -165z" />
    <glyph glyph-name="plusminus.tab" 
d="M284 332h-199v30h199v210h32v-210h200v-30h-200v-209h-32v209zM85 30h431v-30h-431v30z" />
    <glyph glyph-name="minus.tab" 
d="M85 357h431v-30h-431v30z" />
    <glyph glyph-name="plus.tab" 
d="M284 327h-199v30h199v215h32v-215h200v-30h-200v-214h-32v214z" />
    <glyph glyph-name="perthousand.tab" horiz-adv-x="1000" 
d="M188 452q47 0 78 33.5t31 86.5t-31.5 87.5t-77.5 34.5q-48 0 -79 -34.5t-31 -88.5q0 -53 31.5 -86t78.5 -33zM188 424q-59 0 -100.5 41.5t-41.5 105.5q0 66 41.5 108.5t100.5 42.5t100 -42t41 -108q0 -65 -41.5 -106.5t-99.5 -41.5zM548 715h34l-467 -715h-34zM479 22
q47 0 78.5 34t31.5 87q0 54 -31 87.5t-79 33.5q-47 0 -78 -34t-31 -88q0 -53 31 -86.5t78 -33.5zM479 -6q-58 0 -99.5 41.5t-41.5 106.5t41.5 107.5t99.5 42.5q60 0 101 -42t41 -107q0 -66 -41.5 -107.5t-100.5 -41.5zM813 22q46 0 77.5 34t31.5 87q0 54 -30.5 87.5
t-78.5 33.5q-47 0 -78 -34t-31 -88q0 -53 31 -86.5t78 -33.5zM813 -6q-58 0 -99.5 41.5t-41.5 106.5t41.5 107.5t99.5 42.5q59 0 100 -42t41 -107q0 -66 -41 -107.5t-100 -41.5z" />
    <glyph glyph-name="uni0433.locl" horiz-adv-x="444" 
d="M116 494v-494h-34v523h332v-29h-298z" />
    <glyph glyph-name="percent.tab" horiz-adv-x="800" 
d="M204 435q51 0 85 34.5t34 93.5t-33.5 93.5t-85.5 34.5q-50 0 -84.5 -35.5t-34.5 -93.5t34.5 -92.5t84.5 -34.5zM204 407q-61 0 -106 43.5t-45 110.5q0 69 44.5 114t106.5 45q64 0 108 -44t44 -113q0 -70 -45 -113t-107 -43zM617 715h34l-467 -715h-34zM596 23q51 0 85 34
t34 94q0 59 -33.5 93.5t-85.5 34.5q-50 0 -84.5 -35.5t-34.5 -94.5q0 -58 34.5 -92t84.5 -34zM596 -6q-62 0 -107 43t-45 112q0 68 45 113t107 45q63 0 107.5 -44t44.5 -112q0 -70 -44.5 -113.5t-107.5 -43.5z" />
    <glyph glyph-name="grave.uc" horiz-adv-x="400" 
d="M107 891h42l68 -120h-29z" />
    <glyph glyph-name="dieresis.uc" horiz-adv-x="400" 
d="M117 788q-11 0 -18.5 7.5t-7.5 18.5t7.5 18.5t18.5 7.5t18.5 -7.5t7.5 -18.5t-7.5 -18.5t-18.5 -7.5zM283 788q-11 0 -18.5 7.5t-7.5 18.5t7.5 18.5t18.5 7.5t18.5 -7.5t7.5 -18.5t-7.5 -18.5t-18.5 -7.5z" />
    <glyph glyph-name="uni0447.bgr" horiz-adv-x="560" 
d="M426 0v276q-23 -34 -67 -59.5t-110 -25.5q-177 0 -177 201v131h35v-130q0 -172 147 -172q33 0 62 9t48 23t31.5 26.5t21.5 24.5l9 13v206h34v-523h-34z" />
    <glyph glyph-name="macron.uc" horiz-adv-x="400" 
d="M82 823h236v-29h-236v29z" />
    <glyph glyph-name="acute.uc" horiz-adv-x="400" 
d="M252 891h41l-81 -120h-29z" />
    <glyph glyph-name="circumflex.uc" horiz-adv-x="400" 
d="M184 891h34l110 -120h-30l-97 90l-99 -90h-30z" />
    <glyph glyph-name="caron.uc" horiz-adv-x="400" 
d="M71 891h30l99 -91l100 91h29l-113 -120h-34z" />
    <glyph glyph-name="breve.uc" horiz-adv-x="400" 
d="M200 773q-50 0 -84.5 33t-38.5 84h30q4 -39 29.5 -63.5t63.5 -24.5q37 0 63.5 25t31.5 63h29q-4 -51 -39.5 -84t-84.5 -33z" />
    <glyph glyph-name="uni0416.bgr" horiz-adv-x="863" 
d="M414 715h35v-715h-35v715zM794 0l-338 364l323 351h42l-326 -348l343 -367h-44zM26 0l342 365l-327 350h43l323 -352l-338 -363h-43z" />
    <glyph glyph-name="uni044E.bgr" horiz-adv-x="764" 
d="M481 -8q-102 0 -169 74t-69 191v1h-127v-258h-34v773h34v-486h127q8 109 75.5 176t165.5 67q103 0 170.5 -73t67.5 -191v-8q0 -117 -68.5 -191.5t-172.5 -74.5zM482 22q90 0 147.5 64t57.5 172v8q0 108 -57 171.5t-146 63.5q-90 0 -148 -64.5t-58 -171.5v-8
q0 -106 57.5 -170.5t146.5 -64.5z" />
    <glyph glyph-name="uni0448.bgr" horiz-adv-x="900" 
d="M823 0h-34v112q-19 -50 -67.5 -85t-113.5 -35q-137 0 -164 129q-24 -59 -74.5 -94t-115.5 -35q-174 0 -174 203v328h34v-330q0 -90 36.5 -130t107.5 -40t123.5 48.5t52.5 133.5v318h35v-330q0 -90 36 -130t108 -40q70 0 123 49t53 134v317h34v-523z" />
    <glyph glyph-name="uni0442.locl" horiz-adv-x="455" 
d="M432 494h-187v-494h-35v494h-187v29h409v-29z" />
    <glyph glyph-name="florin.tab" 
d="M111 397h124l24 156q26 171 173 171q42 0 71 -12v-30q-28 13 -70 13q-119 0 -140 -143l-24 -155h185v-29h-190l-84 -550h-34l84 550h-119v29z" />
    <glyph glyph-name="yen.tab" 
d="M100 347h182l-217 368h39l204 -349l191 349h36l-203 -368h180v-29h-187v-107h187v-29h-187v-182h-35v182h-190v29h190v107h-190v29z" />
    <glyph glyph-name="sterling.tab" 
d="M54 363h74q-27 85 -27 157q0 91 58.5 146.5t150.5 55.5q91 0 144 -48t61 -131h-35q-12 74 -52 111t-118 37q-77 0 -125 -47.5t-48 -123.5q0 -67 28 -157h239v-29h-231q22 -79 22 -139q0 -53 -23 -94q38 -2 117.5 -39.5t119.5 -37.5q49 0 76.5 30t30.5 86h33
q-5 -69 -41.5 -108t-96.5 -39q-48 0 -131 39.5t-117 39.5q-35 0 -55.5 -20t-26.5 -52h-33q6 37 28 64t61 35q24 43 24 96q0 58 -24 139h-83v29z" />
    <glyph glyph-name="uni0433.bgr" horiz-adv-x="449" 
d="M219 -9q-84 0 -131.5 37t-47.5 98q0 63 41.5 96.5t130.5 54.5q82 19 116 45t34 78q0 47 -35 74t-92 27q-122 0 -144 -113h-33q12 70 59.5 106t117.5 36q71 0 116 -34t45 -95q0 -66 -40.5 -97t-131.5 -52q-79 -19 -113.5 -46.5t-34.5 -79.5q0 -49 38 -77.5t106 -28.5
q137 0 156 125h33q-6 -72 -53.5 -113t-136.5 -41z" />
    <glyph glyph-name="dotaccent.uc" horiz-adv-x="400" 
d="M200 787q-11 0 -18.5 8t-7.5 19t7.5 18.5t18.5 7.5t19 -7.5t8 -18.5t-8 -19t-19 -8z" />
    <glyph glyph-name="ring.uc" horiz-adv-x="400" 
d="M200 774q29 0 48 19.5t19 47.5q0 29 -19 48.5t-48 19.5q-27 0 -46.5 -19.5t-19.5 -48.5q0 -28 19.5 -47.5t46.5 -19.5zM200 752q-37 0 -64.5 26.5t-27.5 62.5q0 38 27 64.5t65 26.5q39 0 66 -26.5t27 -64.5q0 -36 -27 -62.5t-66 -26.5z" />
    <glyph glyph-name="space.tab" horiz-adv-x="300" 
 />
    <glyph glyph-name="nine.old" horiz-adv-x="563" 
d="M265 -104q-81 0 -138.5 43.5t-69.5 119.5h34q11 -62 57.5 -97.5t118.5 -35.5q102 0 156 75t54 244v71q-21 -65 -79 -99.5t-125 -34.5q-108 0 -168 61.5t-60 158.5q0 99 63.5 161.5t165.5 62.5q123 0 180.5 -76.5t57.5 -206.5v-94q0 -353 -247 -353zM276 211q80 0 138 51
t58 135q0 83 -50 141.5t-148 58.5q-88 0 -141 -54t-53 -140q0 -88 50.5 -140t145.5 -52z" />
    <glyph glyph-name="eight.old" horiz-adv-x="558" 
d="M279 -7q-98 0 -165.5 53t-67.5 149q0 73 46.5 121.5t120.5 65.5q-59 14 -97.5 56.5t-38.5 105.5q0 79 60 128.5t142 49.5q83 0 142.5 -49t59.5 -127q0 -65 -36.5 -107t-95.5 -57q74 -17 119 -64.5t45 -120.5q0 -97 -66.5 -150.5t-167.5 -53.5zM279 23q90 0 144.5 45
t54.5 130q0 79 -56.5 123.5t-140.5 44.5q-83 0 -141.5 -45.5t-58.5 -124.5q0 -83 56.5 -128t141.5 -45zM282 395q72 0 118 39.5t46 111.5q0 64 -47.5 105.5t-119.5 41.5q-71 0 -119 -41t-48 -108q0 -69 51.5 -109t118.5 -40z" />
    <glyph glyph-name="seven.old" horiz-adv-x="483" 
d="M421 589h-396v29h440v-7l-291 -708h-36z" />
    <glyph glyph-name="six.old" horiz-adv-x="563" 
d="M289 -8q-121 0 -179 77.5t-58 203.5v89q0 184 70 272t188 88q78 0 126.5 -39.5t60.5 -111.5h-33q-11 58 -50.5 90t-105.5 32q-102 0 -162 -78.5t-60 -248.5v-63q21 63 79.5 98t125.5 35q108 0 168 -62t60 -158q0 -100 -63 -162t-167 -62zM289 21q88 0 141 54t53 140
q0 89 -50 141t-146 52q-81 0 -138.5 -50.5t-57.5 -133.5t50.5 -143t147.5 -60z" />
    <glyph glyph-name="five.old" horiz-adv-x="538" 
d="M256 -103q-98 0 -157.5 51.5t-65.5 129.5h32q9 -65 58.5 -108.5t132.5 -43.5q92 0 144.5 55.5t52.5 151.5q0 89 -51.5 142.5t-129.5 53.5q-117 0 -183 -83h-14v372h377v-30h-347v-296q62 66 171 66q92 0 152.5 -61t60.5 -164q0 -108 -64 -172t-169 -64z" />
    <glyph glyph-name="four.old" horiz-adv-x="581" 
d="M405 71h-377v11l360 536h52v-517h100v-30h-100v-168h-35v168zM405 101v492l-329 -492h329z" />
    <glyph glyph-name="uni20B4.tab" 
d="M289 -7q-98 0 -154 43t-56 123q0 78 53 126h-80v26h113q36 25 138 76q39 19 64 34h-315v26h353q30 24 43 52t13 72q0 121 -148 121q-153 0 -178 -136h-34q13 80 66.5 123t145.5 43q86 0 134.5 -38t48.5 -112q0 -76 -49 -125h100v-26h-132q-36 -26 -106 -60l-94 -50h332
v-26h-371q-61 -47 -61 -125q0 -67 47 -101.5t127 -34.5q94 0 142.5 47t59.5 124h35q-13 -92 -71 -147t-166 -55z" />
    <glyph glyph-name="three.old" horiz-adv-x="548" 
d="M274 -103q-107 0 -171 59t-68 144h32q6 -75 59 -124.5t148 -49.5q90 0 141 44.5t51 128.5q0 72 -48.5 119t-132.5 47h-53v30h49q77 0 117 41.5t40 103.5q0 71 -42.5 114t-118.5 43q-78 0 -125.5 -44.5t-56.5 -115.5h-32q6 81 65.5 135t148.5 54t142.5 -53t53.5 -133
q0 -60 -33.5 -102t-90.5 -56q66 -13 109 -62t43 -121q0 -94 -62.5 -148t-164.5 -54z" />
    <glyph glyph-name="two.old" horiz-adv-x="518" 
d="M25 9l253 225q74 65 108.5 113t34.5 107q0 68 -42 105.5t-116 37.5t-122 -44t-58 -125h-33q8 91 66.5 144.5t146.5 53.5q87 0 140 -46t53 -126q0 -66 -38 -118t-119 -123l-208 -183h379v-30h-445v9z" />
    <glyph glyph-name="one.old" horiz-adv-x="345" 
d="M189 578l-164 -112v33l173 119h26v-618h-35v578z" />
    <glyph glyph-name="zero.old" horiz-adv-x="615" 
d="M308 22q102 0 163 70t61 197v44q0 122 -62 193t-163 71q-100 0 -162 -71t-62 -195v-43q0 -126 62 -196t163 -70zM307 -8q-115 0 -187 80.5t-72 214.5v44q0 136 71.5 215.5t187.5 79.5q115 0 187.5 -79.5t72.5 -213.5v-44q0 -137 -71.5 -217t-188.5 -80z" />
    <glyph glyph-name="yen.old" horiz-adv-x="521" 
d="M60 337h176l-212 357h39l200 -340l187 340h35l-198 -357h173v-28h-181v-104h181v-28h-181v-177h-35v177h-184v28h184v104h-184v28z" />
    <glyph glyph-name="uni0430.alt" horiz-adv-x="593" 
d="M273 -8q-97 0 -164 71t-67 193v8q0 118 70 192.5t169 74.5q75 0 123.5 -40t73.5 -102v134h34v-523h-34v141q-20 -58 -75.5 -103.5t-129.5 -45.5zM275 22q84 0 144 64t60 171v8q0 110 -56 173t-140 63q-87 0 -146.5 -64t-59.5 -172v-8q0 -109 56.5 -172t141.5 -63z" />
    <glyph glyph-name="sterling.old" horiz-adv-x="580" 
d="M49 353h71q-26 94 -26 151q0 88 58 142t150 54q90 0 141 -46.5t60 -126.5h-33q-12 71 -52 107t-116 36q-77 0 -124.5 -45.5t-47.5 -120.5q0 -57 26 -151h232v-28h-224q21 -78 21 -136q0 -46 -21 -90q38 -2 115.5 -38.5t117.5 -36.5q99 0 107 112h32q-4 -66 -41 -104.5
t-95 -38.5q-49 0 -129 38t-113 38q-35 0 -56 -19t-26 -50h-33q6 35 27.5 61.5t58.5 34.5q24 43 24 93t-24 136h-80v28z" />
    <glyph glyph-name="uni20B8.oldtab" 
d="M58 668v26h482v-26h-482zM281 538h-223v29h482v-29h-224v-538h-35v538z" />
    <glyph glyph-name="Euro.old" horiz-adv-x="641" 
d="M30 428h65q6 123 72.5 197.5t178.5 74.5q98 0 155 -50.5t69 -142.5h-34q-24 164 -190 164q-98 0 -154 -65t-62 -178h253l-5 -28h-248v-106h228l-5 -28h-223q5 -114 60.5 -178.5t156.5 -64.5q87 0 137 47t63 133h32q-12 -100 -72.5 -155t-159.5 -55q-114 0 -180 74
t-72 199h-65v28h65v106h-65v28z" />
    <glyph glyph-name="dollar.old" horiz-adv-x="575" 
d="M272 -6q-107 6 -163.5 59t-67.5 138h35q24 -158 196 -168v326q-108 17 -157 59t-49 116q0 78 56.5 125t149.5 51v89h30v-90q84 -4 135.5 -46.5t62.5 -115.5h-33q-25 126 -165 133v-294q118 -19 168.5 -59.5t50.5 -132.5q0 -80 -59.5 -134.5t-159.5 -56.5v-127h-30v128z
M486 183q0 76 -41 110.5t-143 50.5v-321q85 2 134.5 47t49.5 113zM99 526q0 -61 39 -95.5t134 -49.5v290q-80 -3 -126.5 -41t-46.5 -104z" />
    <glyph glyph-name="space_uni0326" horiz-adv-x="400" 
d="M147 -184l58 140l34 -9l-68 -142z" />
    <glyph glyph-name="uni0434.locl" horiz-adv-x="565" 
d="M157 253q-10 -100 -22 -150.5t-38 -72.5h336v464h-259q-12 -200 -17 -241zM42 -127h-27v157h34q35 9 49.5 62.5t26.5 165.5q3 29 13 168l6 97h323v-493h72v-157h-28l-3 127h-462z" />
    <glyph glyph-name="tilde.uc" horiz-adv-x="400" 
d="M270 773q-27 0 -70.5 30t-61.5 30q-43 0 -51 -59h-27q5 44 26 66.5t52 22.5q26 0 70 -30t62 -30q42 0 50 59h27q-5 -44 -26 -66.5t-51 -22.5z" />
    <glyph glyph-name="hungarumlaut.uc" horiz-adv-x="400" 
d="M172 891h39l-61 -120h-28zM290 891h39l-61 -120h-28z" />
    <glyph glyph-name="f.short" horiz-adv-x="314" 
d="M107 494h-82v29h82v99q0 80 38 117t99 37q28 0 54 -7v-30q-26 8 -53 8q-103 0 -103 -122v-102h156v-29h-156v-494h-35v494z" />
    <glyph glyph-name="idotaccent" horiz-adv-x="200" 
d="M100 637q-11 0 -19 8t-8 19t8 18.5t19 7.5t18.5 -7.5t7.5 -18.5t-7.5 -19t-18.5 -8zM83 523h34v-523h-34v523z" />
    <glyph glyph-name="f_f.short" horiz-adv-x="586" 
d="M107 494h-82v29h82v91q0 79 40 116.5t104 37.5q24 0 54 -8v-30q-24 8 -54 8q-49 0 -79 -29t-30 -93v-93h238v99q0 80 38 117t98 37q28 0 54 -7v-30q-26 8 -53 8q-103 0 -103 -122v-102h156v-29h-156v-494h-34v494h-238v-494h-35v494z" />
    <glyph glyph-name="uni021B.alt" horiz-adv-x="307" 
d="M62 -184l58 140l34 -9l-68 -142zM114 494h-91v29h91v119h35v-119h133v-29h-133v-494h-35v494z" />
    <glyph glyph-name="uni0437.bgr" horiz-adv-x="459" 
d="M416 25q0 -103 -52.5 -157.5t-136.5 -54.5q-88 0 -137 49t-55 123h35q6 -64 45 -103t111 -39q71 0 113 45t42 137v6q0 76 -41 120t-122 44h-72v28h71q138 0 138 142v3q0 59 -34.5 96t-96.5 37q-111 0 -136 -120h-33q9 71 54.5 110.5t115.5 39.5q75 0 120.5 -45t45.5 -118
v-3q0 -64 -32 -105t-81 -50q61 -9 99.5 -55t38.5 -124v-6z" />
    <glyph glyph-name="uni0449.bgr" horiz-adv-x="926" 
d="M868 -127l-4 127h-75v112q-19 -50 -67.5 -85t-113.5 -35q-137 0 -164 129q-24 -59 -74.5 -94t-115.5 -35q-174 0 -174 203v328h34v-330q0 -90 36.5 -130t107.5 -40t123.5 48.5t52.5 133.5v318h35v-330q0 -90 36 -130t108 -40q70 0 123 49t53 134v317h34v-493h72v-157h-27
z" />
    <glyph glyph-name="uni044A.bgr" horiz-adv-x="572" 
d="M19 494v29h193v-206q56 14 126 14q93 0 146 -43t53 -121v-3q0 -78 -51 -124.5t-130 -46.5q-82 0 -130 46.5t-48 127.5v327h-159zM356 21q68 0 107.5 39t39.5 103v3q0 64 -42 100.5t-122 36.5q-67 0 -127 -14v-122q0 -67 37.5 -106.5t106.5 -39.5z" />
    </font>
</defs>
</svg>
