<?xml version="1.0" encoding="utf-8"?>
<!-- Generator: Adobe Illustrator 21.0.0, SVG Export Plug-In . SVG Version: 6.00 Build 0)  -->
<svg version="1.1" xmlns="http://www.w3.org/2000/svg" xmlns:xlink="http://www.w3.org/1999/xlink" x="0px" y="0px"
	 viewBox="0 0 1103 222" style="enable-background:new 0 0 1103 222; background-color: #ffffff;" xml:space="preserve">
<style type="text/css">
	.st0{fill:#1A1D1F;}
	.st1{fill:#FEFEFE;}
	.st2{fill:#3A3D3F;}
	.st3{fill:#393C3E;}
	.st4{fill:#D3D4D4;}
	.st5{fill:#1B1E20;}
</style>
<g id="Слой_1_xA0_Изображение_1_">
	<g>
		<path class="st0" d="M264,3c-13,30-26,60-39,90c-17.9,41.1-35.8,82.2-53.7,123.3c-0.4,0.9-0.9,1.8-1.3,2.7c-3,1-6.1,0.2-9.2,0.5
			c-2.3-0.5-2.9-2.7-3.7-4.4c-5.8-12.7-11.2-25.6-16.9-38.4c-1.2-2.8-1.4-5.4,0-8.2c1.3-2.5,2.1-5.3,3.4-7.8c0.7-1.4,1-3.6,3-3.6
			c2.1,0,2.8,2.2,3.5,3.8c2.3,5.5,4.8,11,7.2,16.5c2.4,5.6,4.8,11.3,7.7,17.8c4.7-10.4,8.8-19.9,12.9-29.5
			c20.7-47.7,41.4-95.3,62.2-143c3.3-7.5,3.3-7.5-4.8-7.5c-12.7,0-25.3,0.1-38-0.1c-4.4-0.1-6.8,1.3-8.7,5.6
			c-25.1,57.8-50.1,115.5-75.3,173.2c-2.9,6.7-5.9,13.4-8.8,20.2c-0.9,2.1-1.6,4.5-4.2,5.2c-2.9,0-5.9,0-8.8,0
			c-3.2-1.6-3.8-4.9-5-7.7C64.6,160.7,42,110,19.9,59C14.7,46.8,9.4,34.5,3.8,22.5C2.5,19.7,2.3,16.7,1,14c0-4,0-8,0-12
			c8.3-1.1,16.6-0.3,24.9-0.5c5.2-0.1,10.3,0,15.5,0c3.2,1.2,7.6,8.6,6.8,11.5c-0.6,2.4-2.8,2.1-4.5,2.2c-6.3,0.2-12.7,0.1-19,0.1
			c-6.9,0-7.1,0.3-4.3,6.5C30.3,44.2,40,66.6,49.8,89.1c15,34.3,29.8,68.7,45,103c0.3,0.7,0.4,1.6,1.6,2.2
			c3.5-6.4,5.9-13.3,8.9-19.9c5.1-11.6,10.1-23.2,15.2-34.8c1.3-3,1.3-5.7,0-8.6C107,100.8,94,70.5,80.8,40.3
			C76,29.5,71.1,18.7,66.5,7.9c-0.9-2-2.5-4.2,0.1-6.3c64.6-0.2,129.2,0,193.9,0C261.7,1.6,263.6,0.6,264,3z"/>
		<path class="st1" d="M1,14c5.1,8.5,8.4,17.9,12.3,26.9c26,59.3,51.8,118.6,77.7,177.9c0.5,0.4,0.5,0.8-0.1,1.1
			c-28.6,0-57.2-0.1-85.9,0.1c-3.9,0-4.2-1.1-4.2-4.5C1,148.4,1,81.2,1,14z"/>
		<path class="st0" d="M1104,64c-10-0.1-20-0.1-30-0.3c-3.7-0.1-2.9,2.3-2.9,4.3c0,26.8,0,53.7,0,80.5c0,1.7,1,4.5-0.9,5
			c-3,0.7-6.3,0.6-9.3,0c-1.6-0.4-0.8-3-0.8-4.5c0-26.3-0.2-52.7,0.1-79c0-4.8-0.7-6.7-6-6.3c-8.3,0.6-16.7-0.2-25,0.3
			c-4.9,0.3-4.5-2.4-4.4-5.5c0.1-2.9-0.9-5.6,4.2-5.5c25,0.3,50,0.2,75,0.2C1104,56.7,1104,60.3,1104,64z"/>
		<path class="st2" d="M66,3c-0.3-0.7-0.7-1.3-1-2c66.7,0,133.3,0,200,0c-0.3,0.7-0.7,1.3-1,2c-1.5-1.6-3.4-1-5.2-1
			C196.3,2,133.7,2,71.2,2C69.4,2,67.5,1.3,66,3z"/>
		<path class="st3" d="M43,1c-0.1,0.3-0.1,0.7-0.2,1C28.9,2,14.9,2,1,2c0.1-2.2,1.8-0.9,2.5-0.9C16.7,1,29.8,1,43,1z"/>
		<path class="st4" d="M91,220c0-0.4,0.1-0.8,0.1-1.1c3.3,0,6.6,0.1,9.9,0.1c0,0.3,0,0.7,0,1C97.7,220,94.3,220,91,220z"/>
		<path class="st4" d="M160,220c0-0.4,0.1-0.8,0.1-1.1c3.3,0,6.6,0.1,9.9,0.1c0,0.3,0,0.7,0,1C166.7,220,163.3,220,160,220z"/>
		<path class="st0" d="M493.6,75c-12.2,16.4-24.4,32.8-36.6,49.2c-6.6,8.8-13.4,17.5-19.6,26.5c-3,4.5-7,3.1-10.7,2.9
			c-2.3-0.1-1.3-2.7-1.3-4.2c-0.1-15.5,0-31,0-46.5c0-15.3,0.2-30.7-0.1-46c-0.1-5.3,3.1-3.9,5.8-4c2.7-0.1,5.4-0.9,5.3,3.9
			c-0.3,23.7-0.1,47.3-0.1,71c0,1.6,0,3.2,0,5c2.3-0.6,2.8-2.4,3.7-3.6c18-24.2,36.1-48.3,53.8-72.7c2.9-4,6.2-3.8,9.9-3.5
			c3,0.2,1.7,2.8,1.7,4.3c0.1,18.7,0.1,37.3,0.1,56c0,11.8-0.3,23.7,0.2,35.5c0.2,5.2-2.2,5-5.9,5.1c-3.7,0.1-5.6-0.3-5.5-4.9
			c0.3-23.5,0.1-47,0.1-70.5C494.4,77.4,495,76.2,493.6,75z"/>
		<path class="st0" d="M795.1,103.1c0-15.2,0.1-30.3-0.1-45.5c0-3.6,0.6-4.8,4.5-4.8c19.7,0.2,39.3,0.3,59,0
			c4.9-0.1,4.3,2.4,4.3,5.5c0,3.1,0.5,5.6-4.4,5.5c-16-0.3-32,0-48-0.2c-3.5,0-4.5,1-4.4,4.5c0.3,8.2,0.3,16.3,0,24.5
			c-0.1,3.5,0.8,4.5,4.4,4.5c13.7-0.2,27.3,0.2,41-0.2c4.8-0.1,4.4,2.3,4.4,5.4c0,3.1,0.6,5.7-4.4,5.6c-13.6-0.4-27.3,0-41-0.2
			c-3.5-0.1-4.5,1-4.4,4.5c0.2,9,0.2,18,0,27c-0.1,3.5,1.1,4.1,4.3,4.1c16.2-0.1,32.3,0.2,48.5-0.2c4.8-0.1,5.3,1.6,5.3,5.6
			c0,3.9-0.6,5.5-5,5.4c-19.7-0.3-39.3-0.3-59,0c-4.3,0.1-5.1-1.3-5.1-5.3C795.3,133.5,795.1,118.3,795.1,103.1z"/>
		<path class="st0" d="M907.2,103.1c0-15.3,0.2-30.7-0.1-46c-0.1-5.1,2.8-4.2,5.6-4.2c2.8,0,5.9-1.2,5.7,4
			c-0.4,11.8,0,23.7-0.2,35.5c-0.1,3.3,0.5,4.6,4.3,4.6c16.2-0.2,32.3-0.2,48.5,0c3.1,0,3.9-0.9,3.9-4c-0.2-12,0.2-24-0.2-36
			c-0.2-5.2,2.8-4.1,5.6-4.1c2.9,0,5.7-1,5.6,4.2c-0.3,30.8-0.3,61.6,0,92.4c0,5-2.7,4.2-5.6,4.2c-3,0-5.7,0.8-5.6-4.2
			c0.4-12.6,0-25.3,0.2-38c0-3-0.8-4-3.9-4c-16.3,0.1-32.6,0.2-49,0c-3.3,0-3.8,1.2-3.8,4.1c0.1,12.7-0.2,25.3,0.2,38
			c0.2,5.7-3.5,3.8-6.2,4.1c-3.1,0.3-5.2,0.2-5.1-4.2C907.4,134.1,907.2,118.6,907.2,103.1z"/>
		<path class="st0" d="M679.4,143.1c14.3,0,27.8,0,41.3,0c3.6,0,9.1,6.6,8.4,10.1c-0.5,2.2-2.5,1.2-3.7,1.2
			c-14.8,0.1-29.6,0.1-44.5,0.1c-6.3,0-12.7-0.1-19,0c-2.6,0-3.4-0.7-2.2-3.2c1.6-3.5,0.9-8.9,7.4-8.5c1.3,0.1,1.5-2.3,2.1-3.7
			c11.7-27.1,23.4-54.3,35.1-81.5c1.2-2.8,2.2-4.9,6.2-4.9c4.1,0,4.9,2.2,6.1,5c13.1,30.5,26.2,61.1,39.4,91.6
			c1.6,3.6,1.4,4.5-2.9,4.8c-5.6,0.4-8-1.7-10.1-6.8c-10.5-25.5-21.4-50.8-32.6-77C699.9,94.7,689.8,118.5,679.4,143.1z"/>
		<path class="st0" d="M590.2,70.4c-5.9,13.8-11.5,26.8-17.4,40.5c4.5,0,8.5,0.3,12.4-0.1c4.2-0.4,6.5,1,7.5,5
			c0.4,1.6,1.1,3.1,2,5.3c-7.2,0-13.9,0.2-20.6-0.1c-3.9-0.2-5.9,0.8-7.4,4.7c-2.9,7.8-6.7,15.2-9.6,23c-1.5,4.1-3.7,5.9-8,5.1
			c-1.8-0.3-3.7,0-5.5,0c-0.8-1.8,0.4-3,1-4.2c13.2-30.8,26.6-61.7,39.8-92.5c1.3-3,2.6-4.2,6.1-4.3c3.7-0.1,4.7,1.8,5.9,4.6
			c13.1,30.6,26.2,61.1,39.4,91.6c1.5,3.5,1.9,4.9-3,5.1c-5.3,0.2-7.8-1.5-9.8-6.4c-10.1-24.6-20.7-49-31-73.5
			C591.5,73.1,591,72.1,590.2,70.4z"/>
		<path class="st0" d="M312.6,124.4c0-8.7,0.1-17.3-0.1-26c-0.1-2.9,0.9-4.2,3.6-3.4c2.5,0.8,6.6-2.7,7.5,2.5
			c0.5,2.9-1.3,6.8,0.9,8.5c2.5,1.9,6.4,0.6,9.7,0.6c6.7,0.1,13.3,0.1,20,0c11.3-0.2,19.4-9.3,19.4-21.6c0-11.4-8.8-21.2-19.4-21.3
			c-8.8-0.1-17.7,0.1-26.5-0.1c-3.4-0.1-4.3,1-4.1,4.2c0.1,1.6,1.1,4.3-1.1,4.8c-3,0.7-6.3,0.8-9.3-0.1c-0.9-0.3-1.1-18.5-0.2-19
			c0.8-0.4,1.9-0.5,2.8-0.5c13.3,0,26.6-0.3,40,0.1c20.1,0.6,34.1,23.8,26.7,43.8c-4.9,13.2-15.1,20.3-29.4,20.4
			c-8.5,0-17,0.2-25.5-0.1c-3.4-0.1-4.2,1.1-4.1,4.3c0.2,9.5-0.2,19,0.2,28.5c0.2,4.8-2.7,4-5.4,3.9c-2.7-0.1-6.1,1.4-5.9-3.9
			C312.9,141.4,312.6,132.9,312.6,124.4z"/>
		<path class="st5" d="M329.9,80.7c-0.9,4.9-3.4,6.1-7.5,5.8c-5.3-0.3-10.6-0.1-16.3-0.1c1-4.1,2.7-6.2,7.1-5.9
			C318.6,81,324.1,80.7,329.9,80.7z"/>
		<path class="st1" d="M131.5,117.3c-0.2,0.4-0.6,0.8-1.1,1.6c-15.3-35-30.4-69.8-45.8-105.1c3.2,0,5.6,0,8.1,0c26.5,0,53,0,79.5,0
			c2.2,0,4.9-0.9,3,3.4L131.5,117.3z"/>
	</g>
</g>
<g id="стоматологическая_клиника">
	<g>
		<path class="st0" d="M331.8,192.1l-4.5,2.5c-0.8-0.9-1.7-1.5-2.5-1.8c-0.8-0.3-1.8-0.5-2.9-0.5c-2,0-3.7,0.6-4.9,1.8
			c-1.2,1.2-1.9,2.7-1.9,4.6c0,1.8,0.6,3.3,1.8,4.5c1.2,1.2,2.8,1.7,4.7,1.7c2.4,0,4.3-0.8,5.6-2.5l4.3,2.9c-2.3,3-5.6,4.5-9.8,4.5
			c-3.8,0-6.7-1.1-8.9-3.4c-2.1-2.2-3.2-4.9-3.2-7.9c0-2.1,0.5-4,1.6-5.8c1-1.8,2.5-3.1,4.4-4.1c1.9-1,4-1.5,6.3-1.5
			c2.1,0,4.1,0.4,5.8,1.3C329.3,189.3,330.7,190.6,331.8,192.1z"/>
		<path class="st0" d="M342.8,187.8h20v5.1h-7.2v16.4h-5.4v-16.4h-7.5V187.8z"/>
		<path class="st0" d="M384.6,187.2c2,0,3.9,0.5,5.7,1.5s3.2,2.4,4.2,4.1c1,1.7,1.5,3.6,1.5,5.6c0,2-0.5,3.9-1.5,5.7
			s-2.4,3.1-4.1,4.1c-1.7,1-3.7,1.5-5.8,1.5c-3.1,0-5.7-1.1-7.9-3.3c-2.2-2.2-3.3-4.9-3.3-8c0-3.4,1.2-6.2,3.7-8.4
			C379.3,188.2,381.8,187.2,384.6,187.2z M384.7,192.3c-1.7,0-3.1,0.6-4.2,1.8c-1.1,1.2-1.7,2.7-1.7,4.5c0,1.9,0.6,3.4,1.7,4.5
			s2.5,1.7,4.2,1.7c1.7,0,3.1-0.6,4.2-1.8c1.1-1.2,1.7-2.7,1.7-4.5c0-1.8-0.6-3.3-1.7-4.5C387.8,192.9,386.4,192.3,384.7,192.3z"/>
		<path class="st0" d="M421.7,201.3l6.6-13.6h3.6l5.4,21.5h-5.3l-2.9-12.6l-6.4,12.6h-2.2l-6.3-12.6l-2.9,12.6H406l5.4-21.5h3.6
			L421.7,201.3z"/>
		<path class="st0" d="M464.2,187.8h5.4v21.5h-5.4V207c-1.1,1-2.1,1.7-3.2,2.2c-1.1,0.4-2.2,0.7-3.4,0.7c-2.8,0-5.2-1.1-7.2-3.2
			c-2-2.2-3-4.8-3-8c0-3.3,1-6,2.9-8.2c2-2.1,4.3-3.2,7.1-3.2c1.3,0,2.5,0.2,3.6,0.7s2.2,1.2,3.1,2.2V187.8z M458.5,192.2
			c-1.7,0-3.1,0.6-4.2,1.8s-1.7,2.7-1.7,4.5c0,1.9,0.6,3.4,1.7,4.6c1.1,1.2,2.5,1.8,4.1,1.8c1.7,0,3.1-0.6,4.2-1.8
			c1.1-1.2,1.7-2.7,1.7-4.6c0-1.9-0.6-3.4-1.7-4.5C461.7,192.8,460.2,192.2,458.5,192.2z"/>
		<path class="st0" d="M481.2,187.8h20v5.1h-7.2v16.4h-5.4v-16.4h-7.5V187.8z"/>
		<path class="st0" d="M523,187.2c2,0,3.9,0.5,5.7,1.5s3.2,2.4,4.2,4.1c1,1.7,1.5,3.6,1.5,5.6c0,2-0.5,3.9-1.5,5.7s-2.4,3.1-4.1,4.1
			c-1.7,1-3.7,1.5-5.8,1.5c-3.1,0-5.7-1.1-7.9-3.3c-2.2-2.2-3.3-4.9-3.3-8c0-3.4,1.2-6.2,3.7-8.4C517.7,188.2,520.2,187.2,523,187.2
			z M523.1,192.3c-1.7,0-3.1,0.6-4.2,1.8c-1.1,1.2-1.7,2.7-1.7,4.5c0,1.9,0.6,3.4,1.7,4.5s2.5,1.7,4.2,1.7c1.7,0,3.1-0.6,4.2-1.8
			c1.1-1.2,1.7-2.7,1.7-4.5c0-1.8-0.6-3.3-1.7-4.5C526.2,192.9,524.8,192.3,523.1,192.3z"/>
		<path class="st0" d="M566.2,209.3h-5.5l-5.4-13.6l-5.5,13.6h-5.5l9.2-21.5h3.5L566.2,209.3z"/>
		<path class="st0" d="M587.2,187.2c2,0,3.9,0.5,5.7,1.5c1.8,1,3.2,2.4,4.2,4.1c1,1.7,1.5,3.6,1.5,5.6c0,2-0.5,3.9-1.5,5.7
			c-1,1.8-2.4,3.1-4.1,4.1c-1.7,1-3.7,1.5-5.8,1.5c-3.1,0-5.7-1.1-7.9-3.3c-2.2-2.2-3.3-4.9-3.3-8c0-3.4,1.2-6.2,3.7-8.4
			C581.9,188.2,584.4,187.2,587.2,187.2z M587.3,192.3c-1.7,0-3.1,0.6-4.2,1.8c-1.1,1.2-1.7,2.7-1.7,4.5c0,1.9,0.6,3.4,1.7,4.5
			s2.5,1.7,4.2,1.7c1.7,0,3.1-0.6,4.2-1.8c1.1-1.2,1.7-2.7,1.7-4.5c0-1.8-0.6-3.3-1.7-4.5C590.4,192.9,589,192.3,587.3,192.3z"/>
		<path class="st0" d="M611.1,187.8h12.6v5.1h-7.2v16.4h-5.4V187.8z"/>
		<path class="st0" d="M638.3,209.3h-2.9v-21.5h5.3v12.6l11-12.6h2.6v21.5H649v-12.4L638.3,209.3z"/>
		<path class="st0" d="M679.5,200.7h-4.3c-2.9,0-5.2-0.6-6.8-1.7c-1.6-1.1-2.4-3-2.4-5.6v-5.7h5.4v5.3c0,1.9,1.3,2.8,3.8,2.8l2.1,0
			h2.2v-8.1h5.4v21.5h-5.4V200.7z"/>
		<path class="st0" d="M720,200.1h-17.3c0.3,1.5,0.9,2.7,2,3.6c1.1,0.9,2.5,1.4,4.2,1.4c2,0,3.8-0.7,5.2-2.1l4.5,2.1
			c-1.1,1.6-2.5,2.8-4.1,3.6c-1.6,0.8-3.5,1.2-5.6,1.2c-3.4,0-6.1-1.1-8.2-3.2c-2.1-2.1-3.2-4.8-3.2-8c0-3.3,1.1-6,3.2-8.2
			c2.1-2.2,4.8-3.3,8-3.3c3.4,0,6.1,1.1,8.3,3.3c2.1,2.2,3.2,5,3.2,8.6L720,200.1z M714.6,195.8c-0.4-1.2-1.1-2.2-2.1-2.9
			c-1-0.8-2.3-1.1-3.7-1.1c-1.5,0-2.8,0.4-4,1.3c-0.7,0.5-1.4,1.5-2,2.8H714.6z"/>
		<path class="st0" d="M753.5,192.1l-4.5,2.5c-0.8-0.9-1.7-1.5-2.5-1.8c-0.8-0.3-1.8-0.5-2.9-0.5c-2,0-3.7,0.6-4.9,1.8
			s-1.9,2.7-1.9,4.6c0,1.8,0.6,3.3,1.8,4.5s2.8,1.7,4.7,1.7c2.4,0,4.3-0.8,5.6-2.5l4.3,2.9c-2.3,3-5.6,4.5-9.8,4.5
			c-3.8,0-6.7-1.1-8.9-3.4c-2.1-2.2-3.2-4.9-3.2-7.9c0-2.1,0.5-4,1.6-5.8s2.5-3.1,4.4-4.1c1.9-1,4-1.5,6.3-1.5
			c2.1,0,4.1,0.4,5.8,1.3C751,189.3,752.4,190.6,753.5,192.1z"/>
		<path class="st0" d="M766.5,187.8h5.4v8l7.4-8h6.6l-9.6,10.5l9.7,11h-7.2l-6.4-7.6l-0.6,0.7v6.9h-5.4V187.8z"/>
		<path class="st0" d="M812.2,187.8h5.4v21.5h-5.4V207c-1.1,1-2.1,1.7-3.2,2.2c-1.1,0.4-2.2,0.7-3.4,0.7c-2.8,0-5.2-1.1-7.2-3.2
			c-2-2.2-3-4.8-3-8c0-3.3,1-6,2.9-8.2c2-2.1,4.3-3.2,7.1-3.2c1.3,0,2.5,0.2,3.6,0.7c1.1,0.5,2.2,1.2,3.1,2.2V187.8z M806.5,192.2
			c-1.7,0-3.1,0.6-4.2,1.8s-1.7,2.7-1.7,4.5c0,1.9,0.6,3.4,1.7,4.6c1.1,1.2,2.5,1.8,4.1,1.8c1.7,0,3.1-0.6,4.2-1.8
			c1.1-1.2,1.7-2.7,1.7-4.6c0-1.9-0.6-3.4-1.7-4.5C809.6,192.8,808.2,192.2,806.5,192.2z"/>
		<path class="st0" d="M834.8,200.5c-1.2-0.4-2.1-1.1-2.9-2.2c-0.7-1.1-1.1-2.3-1.1-3.6c0-1.6,0.5-3,1.4-4.2c0.9-1.2,2-2,3.3-2.3
			c1.3-0.3,3.2-0.5,5.9-0.5h5.5v21.5h-5.4v-7.8h-1l-5.1,7.8h-6.4L834.8,200.5z M841.4,197.4v-5.2h-1.9c-2.1,0-3.1,0.9-3.1,2.6
			c0,1.7,1.1,2.6,3.4,2.6H841.4z"/>
		<path class="st0" d="M879.8,187.8h5.4v8l7.4-8h6.6l-9.6,10.5l9.7,11h-7.2l-6.4-7.6l-0.6,0.7v6.9h-5.4V187.8z"/>
		<path class="st0" d="M928.8,209.3h-5.5l-5.4-13.6l-5.5,13.6H907l9.2-21.5h3.5L928.8,209.3z"/>
		<path class="st0" d="M942.6,209.3h-2.9v-21.5h5.3v12.6l11-12.6h2.6v21.5h-5.3v-12.4L942.6,209.3z"/>
		<path class="st0" d="M977.5,195.5h8.1v-7.8h5.4v21.5h-5.4v-8.9h-8.1v8.9h-5.4v-21.5h5.4V195.5z"/>
		<path class="st0" d="M1007.4,209.3h-2.9v-21.5h5.3v12.6l11-12.6h2.6v21.5h-5.3v-12.4L1007.4,209.3z"/>
		<path class="st0" d="M1037,187.8h5.4v8l7.4-8h6.6l-9.6,10.5l9.7,11h-7.2l-6.4-7.6l-0.6,0.7v6.9h-5.4V187.8z"/>
		<path class="st0" d="M1082.7,187.8h5.4v21.5h-5.4V207c-1.1,1-2.1,1.7-3.2,2.2c-1.1,0.4-2.2,0.7-3.4,0.7c-2.8,0-5.2-1.1-7.2-3.2
			c-2-2.2-3-4.8-3-8c0-3.3,1-6,2.9-8.2c2-2.1,4.3-3.2,7.1-3.2c1.3,0,2.5,0.2,3.6,0.7c1.1,0.5,2.2,1.2,3.1,2.2V187.8z M1077,192.2
			c-1.7,0-3.1,0.6-4.2,1.8s-1.7,2.7-1.7,4.5c0,1.9,0.6,3.4,1.7,4.6c1.1,1.2,2.5,1.8,4.1,1.8c1.7,0,3.1-0.6,4.2-1.8
			c1.1-1.2,1.7-2.7,1.7-4.6c0-1.9-0.6-3.4-1.7-4.5C1080.1,192.8,1078.7,192.2,1077,192.2z"/>
	</g>
</g>
</svg>
